ISO-10303-21;
HEADER;
FILE_DESCRIPTION(('annotation creation contract','Re-exported by ifc-lite, 121 modifications'),'2;1');
FILE_NAME('export.ifc','2026-09-12T13:11:54',(''),(''),'ifc-lite','ifc-lite','');
FILE_SCHEMA(('IFC4'));
ENDSEC;
DATA;
#1=IFCPROJECT('0Project000000000000000',$,'P',$,$,$,$,(#2),#3);
#2=IFCGEOMETRICREPRESENTATIONCONTEXT($,'Model',3,1.0E-5,#5,$);
#3=IFCUNITASSIGNMENT((#6));
#4=IFCCARTESIANPOINT((0.,0.,0.));
#5=IFCAXIS2PLACEMENT3D(#4,$,$);
#6=IFCSIUNIT(*,.LENGTHUNIT.,$,.METRE.);
#40=IFCBUILDINGSTOREY('0Storey0000000000000000',$,'Level',$,$,#41,$,$,.ELEMENT.,0.);
#41=IFCLOCALPLACEMENT($,#5);
#42=IFCRELAGGREGATES('0ccccccccccccccccccccc',$,$,$,#50,(#40));
#50=IFCBUILDING('0ddddddddddddddddddddd',$,'Building',$,$,#41,$,$,.ELEMENT.,$,$,$);
#51=IFCSPACE('0eeeeeeeeeeeeeeeeeeeee',$,'Room',$,$,#41,$,$,.ELEMENT.,.INTERNAL.,$);
#52=IFCRELAGGREGATES('0fffffffffffffffffffff',$,$,$,#1,(#50));
#53=IFCRELAGGREGATES('0ggggggggggggggggggggg',$,$,$,#40,(#51));
#54=IFCCARTESIANPOINT((2.,3.,4.));
#55=IFCDIRECTION((0.,-1.,0.));
#56=IFCDIRECTION((1.,0.,0.));
#57=IFCAXIS2PLACEMENT3D(#54,#55,#56);
#58=IFCLOCALPLACEMENT(#41,#57);
#59=IFCCARTESIANPOINT((0.6666667968749997,2.3666666666666667,0.));
#60=IFCCARTESIANPOINT((0.6666667968749997,2.299999869791667,0.));
#61=IFCCARTESIANPOINT((1.9999999999999998,2.299999869791667,0.));
#62=IFCCARTESIANPOINT((1.9999999999999998,2.3666666666666667,0.));
#63=IFCPOLYLINE((#59,#60,#61,#62,#59));
#64=IFCANNOTATIONFILLAREA(#63,$);
#65=IFCCOLOURRGB($,0.,0.,1.);
#66=IFCFILLAREASTYLE('PDF solid fill',(#65),.T.);
#67=IFCSTYLEDITEM(#64,(#66),$);
#68=IFCCARTESIANPOINT((0.6666667968749997,1.6999998697916667,0.));
#69=IFCCARTESIANPOINT((0.6666667968749997,1.6333334635416668,0.));
#70=IFCCARTESIANPOINT((0.7666667968749996,1.6333334635416668,0.));
#71=IFCCARTESIANPOINT((0.7666667968749996,1.6999998697916667,0.));
#72=IFCPOLYLINE((#68,#69,#70,#71,#68));
#73=IFCANNOTATIONFILLAREA(#72,$);
#74=IFCCOLOURRGB($,0.,0.,1.);
#75=IFCFILLAREASTYLE('PDF solid fill',(#74),.T.);
#76=IFCSTYLEDITEM(#73,(#75),$);
#77=IFCCARTESIANPOINT((0.8333332031249998,1.6999998697916667,0.));
#78=IFCCARTESIANPOINT((0.8333332031249998,1.6333334635416668,0.));
#79=IFCCARTESIANPOINT((0.9333332031249997,1.6333334635416668,0.));
#80=IFCCARTESIANPOINT((0.9333332031249997,1.6999998697916667,0.));
#81=IFCPOLYLINE((#77,#78,#79,#80,#77));
#82=IFCANNOTATIONFILLAREA(#81,$);
#83=IFCCOLOURRGB($,0.,0.,1.);
#84=IFCFILLAREASTYLE('PDF solid fill',(#83),.T.);
#85=IFCSTYLEDITEM(#82,(#84),$);
#86=IFCCARTESIANPOINT((0.9999999999999998,1.6999998697916667,0.));
#87=IFCCARTESIANPOINT((0.9999999999999998,1.6333334635416668,0.));
#88=IFCCARTESIANPOINT((1.0999999999999996,1.6333334635416668,0.));
#89=IFCCARTESIANPOINT((1.0999999999999996,1.6999998697916667,0.));
#90=IFCPOLYLINE((#86,#87,#88,#89,#86));
#91=IFCANNOTATIONFILLAREA(#90,$);
#92=IFCCOLOURRGB($,0.,0.,1.);
#93=IFCFILLAREASTYLE('PDF solid fill',(#92),.T.);
#94=IFCSTYLEDITEM(#91,(#93),$);
#95=IFCCARTESIANPOINT((1.1666667968749997,1.6999998697916667,0.));
#96=IFCCARTESIANPOINT((1.1666667968749997,1.6333334635416668,0.));
#97=IFCCARTESIANPOINT((1.2666667968749996,1.6333334635416668,0.));
#98=IFCCARTESIANPOINT((1.2666667968749996,1.6999998697916667,0.));
#99=IFCPOLYLINE((#95,#96,#97,#98,#95));
#100=IFCANNOTATIONFILLAREA(#99,$);
#101=IFCCOLOURRGB($,0.,0.,1.);
#102=IFCFILLAREASTYLE('PDF solid fill',(#101),.T.);
#103=IFCSTYLEDITEM(#100,(#102),$);
#104=IFCCARTESIANPOINT((1.3333332031249996,1.6999998697916667,0.));
#105=IFCCARTESIANPOINT((1.3333332031249996,1.6333334635416668,0.));
#106=IFCCARTESIANPOINT((1.4333332031249997,1.6333334635416668,0.));
#107=IFCCARTESIANPOINT((1.4333332031249997,1.6999998697916667,0.));
#108=IFCPOLYLINE((#104,#105,#106,#107,#104));
#109=IFCANNOTATIONFILLAREA(#108,$);
#110=IFCCOLOURRGB($,0.,0.,1.);
#111=IFCFILLAREASTYLE('PDF solid fill',(#110),.T.);
#112=IFCSTYLEDITEM(#109,(#111),$);
#113=IFCCARTESIANPOINT((1.4999999999999998,1.6999998697916667,0.));
#114=IFCCARTESIANPOINT((1.4999999999999998,1.6333334635416668,0.));
#115=IFCCARTESIANPOINT((1.5999999999999996,1.6333334635416668,0.));
#116=IFCCARTESIANPOINT((1.5999999999999996,1.6999998697916667,0.));
#117=IFCPOLYLINE((#113,#114,#115,#116,#113));
#118=IFCANNOTATIONFILLAREA(#117,$);
#119=IFCCOLOURRGB($,0.,0.,1.);
#120=IFCFILLAREASTYLE('PDF solid fill',(#119),.T.);
#121=IFCSTYLEDITEM(#118,(#120),$);
#122=IFCCARTESIANPOINT((1.6666667968749997,1.6999998697916667,0.));
#123=IFCCARTESIANPOINT((1.6666667968749997,1.6333334635416668,0.));
#124=IFCCARTESIANPOINT((1.7666667968749998,1.6333334635416668,0.));
#125=IFCCARTESIANPOINT((1.7666667968749998,1.6999998697916667,0.));
#126=IFCPOLYLINE((#122,#123,#124,#125,#122));
#127=IFCANNOTATIONFILLAREA(#126,$);
#128=IFCCOLOURRGB($,0.,0.,1.);
#129=IFCFILLAREASTYLE('PDF solid fill',(#128),.T.);
#130=IFCSTYLEDITEM(#127,(#129),$);
#131=IFCCARTESIANPOINT((1.8333332031249998,1.6999998697916667,0.));
#132=IFCCARTESIANPOINT((1.8333332031249998,1.6333334635416668,0.));
#133=IFCCARTESIANPOINT((1.9333332031249997,1.6333334635416668,0.));
#134=IFCCARTESIANPOINT((1.9333332031249997,1.6999998697916667,0.));
#135=IFCPOLYLINE((#131,#132,#133,#134,#131));
#136=IFCANNOTATIONFILLAREA(#135,$);
#137=IFCCOLOURRGB($,0.,0.,1.);
#138=IFCFILLAREASTYLE('PDF solid fill',(#137),.T.);
#139=IFCSTYLEDITEM(#136,(#138),$);
#140=IFCCARTESIANPOINT((0.6666667968749997,1.0333334635416667,0.));
#141=IFCCARTESIANPOINT((0.6666667968749997,0.9666666666666667,0.));
#142=IFCCARTESIANPOINT((1.9999999999999998,0.9666666666666667,0.));
#143=IFCCARTESIANPOINT((1.9999999999999998,1.0333334635416667,0.));
#144=IFCPOLYLINE((#140,#141,#142,#143,#140));
#145=IFCANNOTATIONFILLAREA(#144,$);
#146=IFCCOLOURRGB($,0.,0.,1.);
#147=IFCFILLAREASTYLE('PDF solid fill',(#146),.T.);
#148=IFCSTYLEDITEM(#145,(#147),$);
#149=IFCSHAPEREPRESENTATION(#2,'Annotation','Annotation2D',(#64,#73,#82,#91,#100,#109,#118,#127,#136,#145));
#150=IFCPRODUCTDEFINITIONSHAPE($,$,(#149));
#151=IFCANNOTATION('0aaaaaaaaaaaaaaaaaaaaa',$,'PDF fidelity evidence control:strokes','PDF vectors, page 1: exact conversion','IfcLite:PdfVectorFills',#58,#150);
#152=IFCRELCONTAINEDINSPATIALSTRUCTURE('0bbbbbbbbbbbbbbbbbbbbb',$,$,$,(#151),#40);
#153=IFCPROPERTYSINGLEVALUE('SourcePdfSha256',$,IFCIDENTIFIER('31a59d41c4076af7eb740977ee1f5463466b529985060c749a60358a8dfe3dd7'),$);
#154=IFCPROPERTYSINGLEVALUE('SourcePageNumber',$,IFCINTEGER(1),$);
#155=IFCPROPERTYSINGLEVALUE('SourceCropBox',$,IFCTEXT('[10.0,20.0,110.0,92.0]'),$);
#156=IFCPROPERTYSINGLEVALUE('SourceUserUnit',$,IFCREAL(2.),$);
#157=IFCPROPERTYSINGLEVALUE('SourceRotation',$,IFCINTEGER(90),$);
#158=IFCPROPERTYSINGLEVALUE('DecoderVersion',$,IFCLABEL('PDF.js 6.3.289'),$);
#159=IFCPROPERTYSINGLEVALUE('CalibrationKey',$,IFCTEXT('synthetic-control-30-pdf-units-per-metre'),$);
#160=IFCPROPERTYSINGLEVALUE('ModelMetresFromPdf',$,IFCTEXT('[0.03333333333333333,0.0,0.0,0.03333333333333333,0.0,0.0]'),$);
#161=IFCPROPERTYSINGLEVALUE('ToleranceMetres',$,IFCREAL(0.0001),$);
#162=IFCPROPERTYSINGLEVALUE('GridSizeMetres',$,IFCREAL(3.90625E-7),$);
#163=IFCPROPERTYSINGLEVALUE('Algorithm',$,IFCLABEL('ifclite-pdf-fill-annotation-v1'),$);
#164=IFCPROPERTYSINGLEVALUE('RequestSha256',$,IFCIDENTIFIER('5306b4d51068e2805531a00aebaf288fdf7e944acf85f836c275eb0504554ab9'),$);
#165=IFCPROPERTYSINGLEVALUE('FidelityAlgorithm',$,IFCLABEL('ifclite-pdf-fidelity-v1'),$);
#166=IFCPROPERTYSINGLEVALUE('FidelitySha256',$,IFCIDENTIFIER('49206dcd8e55743123266e4d9836972a3182b4756678fb5957ca1ff3734866e5'),$);
#167=IFCPROPERTYSINGLEVALUE('ExactConversion',$,IFCBOOLEAN(.T.),$);
#168=IFCPROPERTYSINGLEVALUE('AcceptedPartialConversion',$,IFCBOOLEAN(.F.),$);
#169=IFCPROPERTYSINGLEVALUE('ConvertedPaths',$,IFCINTEGER(3),$);
#170=IFCPROPERTYSINGLEVALUE('FillRegions',$,IFCINTEGER(10),$);
#171=IFCPROPERTYSINGLEVALUE('OmittedPaints',$,IFCINTEGER(0),$);
#172=IFCPROPERTYSINGLEVALUE('Omissions',$,IFCTEXT('[]'),$);
#173=IFCPROPERTYSET('0cccccccccccccccccccc1',$,'IfcLite_PdfVectorConversion','PDF vector conversion provenance (exact conversion)',(#153,#154,#155,#156,#157,#158,#159,#160,#161,#162,#163,#164,#165,#166,#167,#168,#169,#170,#171,#172));
#174=IFCRELDEFINESBYPROPERTIES('0cccccccccccccccccccc2',$,$,$,(#151),#173);
ENDSEC;
END-ISO-10303-21;
