ISO-10303-21;
HEADER;
FILE_DESCRIPTION(('ViewDefinition [CoordinationView]'),'2;1');
FILE_NAME('','2026-09-12T09:01:03',(''),(''),'IfcOpenShell 0.8.0','IfcOpenShell 0.8.0','');
FILE_SCHEMA(('IFC4'));
ENDSEC;
DATA;
#1=IFCPROJECT('1byBz03wn7i8FjgH4YICts',$,'0001',$,$,$,$,(#6),#3);
#2=IFCSIUNIT(*,.LENGTHUNIT.,$,.METRE.);
#3=IFCUNITASSIGNMENT((#2));
#4=IFCCARTESIANPOINT((0.,0.,0.));
#5=IFCAXIS2PLACEMENT3D(#4,$,$);
#6=IFCGEOMETRICREPRESENTATIONCONTEXT($,'Model',3,1.E-05,#5,$);
#7=IFCLOCALPLACEMENT($,#5);
#8=IFCSITE('1byBz03wn7i8FjgH4YICtq',$,'Default',$,$,#7,$,$,$,$,$,$,$,$);
#9=IFCLOCALPLACEMENT(#7,#5);
#10=IFCBUILDING('1byBz03wn7i8FjgH4YICtt',$,'',$,$,#9,$,$,$,$,$,$);
#11=IFCRELAGGREGATES('3GkDR4gvL4VgFyx4sJCZbT',$,$,$,#1,(#8));
#12=IFCRELAGGREGATES('2eF1V5Cj1AXODEnX9KQTOw',$,$,$,#8,(#10));
#13=IFCLOCALPLACEMENT(#9,#5);
#14=IFCBUILDINGSTOREY('3Zu5Bv0LOHrPC10026FoQQ',$,'Terreno',$,$,#13,$,$,.ELEMENT.,0.);
#15=IFCLOCALPLACEMENT(#9,#5);
#16=IFCBUILDINGSTOREY('3TnXlYhm57AwsanKuanrdY',$,'T\X2\00C9\X0\RREO',$,$,#15,$,$,.ELEMENT.,0.1);
#17=IFCRELAGGREGATES('2oYkFmvD14cOqo0GCxtttg',$,$,$,#10,(#14,#16));
#18=IFCCOLOURRGB($,0.85,0.84,0.8);
#19=IFCSURFACESTYLERENDERING(#18,0.,$,$,$,$,$,$,.NOTDEFINED.);
#20=IFCSURFACESTYLE('CRAS derivative default',.BOTH.,(#19));
#21=IFCCARTESIANPOINTLIST3D(((-9.915754403,-0.940905295,0.1),(-9.915754403,-0.940905295,3.),(-9.915754403,-0.790905295,2.29),(-9.915754403,-0.790905295,2.76),(-9.915754403,-0.290905295,2.29),(-9.915754403,-0.290905295,2.76),(-9.915754403,0.709094705,2.29),(-9.915754403,0.709094705,2.76),(-9.915754403,1.209094705,2.29),(-9.915754403,1.209094705,2.76),(-9.915754403,2.209094705,2.29),(-9.915754403,2.209094705,2.76),(-9.915754403,2.709094705,2.29),(-9.915754403,2.709094705,2.76),(-9.915754403,3.709094705,2.29),(-9.915754403,3.709094705,2.76),(-9.915754403,4.209094705,2.29),(-9.915754403,4.209094705,2.76),(-9.915754403,5.209094705,2.29),(-9.915754403,5.209094705,2.76),(-9.915754403,5.709094705,2.29),(-9.915754403,5.709094705,2.76),(-9.915754403,6.709094705,2.29),(-9.915754403,6.709094705,2.76),(-9.915754403,7.209094705,2.29),(-9.915754403,7.209094705,2.76),(-9.915754403,8.209094705,2.29),(-9.915754403,8.209094705,2.76),(-9.915754403,8.709094705,2.29),(-9.915754403,8.709094705,2.76),(-9.915754403,9.709094705,2.29),(-9.915754403,9.709094705,2.76),(-9.915754403,10.209094705,2.29),(-9.915754403,10.209094705,2.76),(-9.915754403,11.209094705,2.29),(-9.915754403,11.209094705,2.76),(-9.915754403,11.709094705,2.29),(-9.915754403,11.709094705,2.76),(-9.915754403,12.709096447,2.29),(-9.915754403,12.709096447,2.76),(-9.915754403,13.209096447,2.29),(-9.915754403,13.209096447,2.76),(-9.915754403,14.209096447,2.29),(-9.915754403,14.209096447,2.76),(-9.915754403,14.709096447,2.29),(-9.915754403,14.709096447,2.76),(-9.915754403,15.709096447,2.29),(-9.915754403,15.709096447,2.76),(-9.915754403,16.209096447,2.29),(-9.915754403,16.209096447,2.76),(-9.915754403,17.209096447,2.29),(-9.915754403,17.209096447,2.76),(-9.915754403,17.709096447,2.29),(-9.915754403,17.709096447,2.76),(-9.915754403,18.709096447,2.29),(-9.915754403,18.709096447,2.76),(-9.915754403,19.209096447,2.29),(-9.915754403,19.209096447,2.76),(-9.915754403,19.75151573,0.1),(-9.915754403,19.75151573,3.),(-9.615754403,-0.940905295,0.1),(-9.615754403,-0.940905295,3.),(-9.615754403,-0.790905295,2.29),(-9.615754403,-0.790905295,2.76),(-9.615754403,-0.290905295,2.29),(-9.615754403,-0.290905295,2.76),(-9.615754403,0.709094705,2.29),(-9.615754403,0.709094705,2.76),(-9.615754403,1.209094705,2.29),(-9.615754403,1.209094705,2.76),(-9.615754403,2.209094705,2.29),(-9.615754403,2.209094705,2.76),(-9.615754403,2.709094705,2.29),(-9.615754403,2.709094705,2.76),(-9.615754403,3.709094705,2.29),(-9.615754403,3.709094705,2.76),(-9.615754403,4.209094705,2.29),(-9.615754403,4.209094705,2.76),(-9.615754403,5.209094705,2.29),(-9.615754403,5.209094705,2.76),(-9.615754403,5.709094705,2.29),(-9.615754403,5.709094705,2.76),(-9.615754403,6.709094705,2.29),(-9.615754403,6.709094705,2.76),(-9.615754403,7.209094705,2.29),(-9.615754403,7.209094705,2.76),(-9.615754403,8.209094705,2.29),(-9.615754403,8.209094705,2.76),(-9.615754403,8.709094705,2.29),(-9.615754403,8.709094705,2.76),(-9.615754403,9.709094705,2.29),(-9.615754403,9.709094705,2.76),(-9.615754403,10.209094705,2.29),(-9.615754403,10.209094705,2.76),(-9.615754403,11.209094705,2.29),(-9.615754403,11.209094705,2.76),(-9.615754403,11.709094705,2.29),(-9.615754403,11.709094705,2.76),(-9.615754403,12.709096447,2.29),(-9.615754403,12.709096447,2.76),(-9.615754403,13.209096447,2.29),(-9.615754403,13.209096447,2.76),(-9.615754403,14.209096447,2.29),(-9.615754403,14.209096447,2.76),(-9.615754403,14.709096447,2.29),(-9.615754403,14.709096447,2.76),(-9.615754403,15.709096447,2.29),(-9.615754403,15.709096447,2.76),(-9.615754403,16.209096447,2.29),(-9.615754403,16.209096447,2.76),(-9.615754403,17.209096447,2.29),(-9.615754403,17.209096447,2.76),(-9.615754403,17.709096447,2.29),(-9.615754403,17.709096447,2.76),(-9.615754403,18.709096447,2.29),(-9.615754403,18.709096447,2.76),(-9.615754403,19.209096447,2.29),(-9.615754403,19.209096447,2.76),(-9.615754403,19.75151573,0.1),(-9.615754403,19.75151573,3.)));
#22=IFCTRIANGULATEDFACESET(#21,$,.F.,((1,61,62),(2,1,62),(120,119,59),(120,59,60),(119,61,1),(119,1,59),(2,62,120),(60,2,120),(116,115,55),(116,55,56),(58,116,56),(118,116,58),(117,118,58),(117,58,57),(55,117,57),(115,117,55),(112,111,51),(112,51,52),(54,112,52),(114,112,54),(113,114,54),(113,54,53),(51,113,53),(111,113,51),(108,107,47),(108,47,48),(50,108,48),(110,108,50),(109,110,50),(109,50,49),(47,109,49),(107,109,47),(104,103,43),(104,43,44),(46,104,44),(106,104,46),(105,106,46),(105,46,45),(43,105,45),(103,105,43),(100,99,39),(100,39,40),(42,100,40),(102,100,42),(101,102,42),(101,42,41),(39,101,41),(99,101,39),(96,95,35),(96,35,36),(38,96,36),(98,96,38),(97,98,38),(97,38,37),(35,97,37),(95,97,35),(92,91,31),(92,31,32),(34,92,32),(94,92,34),(93,94,34),(93,34,33),(31,93,33),(91,93,31),(88,87,27),(88,27,28),(30,88,28),(90,88,30),(89,90,30),(89,30,29),(27,89,29),(87,89,27),(84,83,23),(84,23,24),(26,84,24),(86,84,26),(85,86,26),(85,26,25),(23,85,25),(83,85,23),(80,79,19),(80,19,20),(82,80,20),(82,20,22),(81,82,22),(81,22,21),(79,81,21),(79,21,19),(76,75,15),(76,15,16),(78,76,16),(78,16,18),(77,78,18),(77,18,17),(75,77,17),(75,17,15),(72,71,11),(72,11,12),(74,72,12),(74,12,14),(73,74,14),(73,14,13),(71,73,13),(71,13,11),(68,67,7),(68,7,8),(70,68,8),(70,8,10),(69,70,10),(69,10,9),(67,69,9),(67,9,7),(64,63,3),(64,3,4),(66,64,4),(66,4,6),(65,66,6),(65,6,5),(63,65,5),(63,5,3),(63,64,62),(66,62,64),(68,62,66),(67,66,65),(67,68,66),(70,62,68),(61,69,67),(61,65,63),(61,63,62),(61,67,65),(71,70,69),(71,69,61),(71,72,70),(73,71,61),(75,74,73),(75,76,74),(75,73,61),(77,75,61),(79,78,77),(79,80,78),(79,77,61),(81,79,61),(83,84,82),(83,81,61),(83,82,81),(87,88,86),(87,86,85),(91,92,90),(91,90,89),(95,94,93),(95,96,94),(100,98,97),(99,100,97),(103,102,101),(103,104,102),(108,106,105),(107,108,105),(111,110,109),(111,112,110),(115,114,113),(115,116,114),(120,116,118),(120,112,114),(120,110,112),(120,114,116),(117,120,118),(119,117,115),(119,113,111),(119,109,107),(119,105,103),(119,101,99),(119,97,95),(119,99,97),(119,103,101),(119,107,105),(119,111,109),(119,115,113),(119,120,117),(120,62,70),(120,70,72),(120,72,74),(120,74,76),(120,76,78),(120,78,80),(120,80,82),(120,82,84),(120,84,86),(120,86,88),(120,88,90),(120,90,92),(120,92,94),(120,94,96),(120,96,98),(120,98,100),(120,100,102),(120,102,104),(120,104,106),(120,106,108),(120,108,110),(61,119,95),(61,95,93),(61,93,91),(61,91,89),(61,89,87),(61,87,85),(61,85,83),(2,4,3),(4,2,6),(6,2,8),(5,6,7),(6,8,7),(8,2,10),(7,9,1),(3,5,1),(2,3,1),(5,7,1),(9,10,11),(1,9,11),(10,12,11),(1,11,13),(13,14,15),(14,16,15),(1,13,15),(1,15,17),(17,18,19),(18,20,19),(1,17,19),(1,19,21),(22,24,23),(1,21,23),(21,22,23),(26,28,27),(25,26,27),(30,32,31),(29,30,31),(33,34,35),(34,36,35),(37,38,40),(37,40,39),(41,42,43),(42,44,43),(45,46,48),(45,48,47),(49,50,51),(50,52,51),(53,54,55),(54,56,55),(58,56,60),(54,52,60),(52,50,60),(56,54,60),(58,60,57),(55,57,59),(51,53,59),(47,49,59),(43,45,59),(39,41,59),(35,37,59),(37,39,59),(41,43,59),(45,47,59),(49,51,59),(53,55,59),(57,60,59),(10,2,60),(12,10,60),(14,12,60),(16,14,60),(18,16,60),(20,18,60),(22,20,60),(24,22,60),(26,24,60),(28,26,60),(30,28,60),(32,30,60),(34,32,60),(36,34,60),(38,36,60),(40,38,60),(42,40,60),(44,42,60),(46,44,60),(48,46,60),(50,48,60),(35,59,1),(33,35,1),(31,33,1),(29,31,1),(27,29,1),(25,27,1),(23,25,1)),$);
#23=IFCSTYLEDITEM(#22,(#20),$);
#24=IFCSHAPEREPRESENTATION(#6,'Body','Tessellation',(#22));
#25=IFCLOCALPLACEMENT(#9,#5);
#26=IFCPRODUCTDEFINITIONSHAPE($,$,(#24));
#27=IFCWALL('3XP_HdJcfD9xJPuaOu_1Uv',$,'Basic Wall:(35cm) Tijolo cer\X2\00E2\X0\mico acabamento pintura branca:914875',$,$,#25,#26,$,$);
#28=IFCCARTESIANPOINTLIST3D(((-9.915754403,19.75151573,0.1),(-9.915754403,19.75151573,3.),(-9.915754403,19.95151573,0.1),(-9.915754403,19.95151573,3.),(8.286239344,19.75151573,0.1),(8.286239344,19.75151573,3.),(8.286239344,19.95151573,0.1),(8.286239344,19.95151573,3.)));
#29=IFCTRIANGULATEDFACESET(#28,$,.F.,((8,7,3),(4,8,3),(4,3,1),(2,4,1),(2,1,5),(6,2,5),(6,5,7),(8,6,7),(1,3,7),(5,1,7),(8,4,2),(8,2,6)),$);
#30=IFCSTYLEDITEM(#29,(#20),$);
#31=IFCSHAPEREPRESENTATION(#6,'Body','Tessellation',(#29));
#32=IFCLOCALPLACEMENT(#9,#5);
#33=IFCPRODUCTDEFINITIONSHAPE($,$,(#31));
#34=IFCWALL('3XP_HdJcfD9xJPuaOu_1HV',$,'Basic Wall:(20cm) Tijolo cer\X2\00E2\X0\mico acabamento pintura branca:915037',$,$,#32,#33,$,$);
#35=IFCCARTESIANPOINTLIST3D(((7.986239344,-4.309927044,0.1),(7.986239344,-4.309927044,3.),(7.986239344,-3.789961689,2.29),(7.986239344,-3.789961689,2.76),(7.986239344,-3.289961689,2.29),(7.986239344,-3.289961689,2.76),(7.986239344,-2.289961689,2.29),(7.986239344,-2.289961689,2.76),(7.986239344,-1.789961689,2.29),(7.986239344,-1.789961689,2.76),(7.986239344,-0.789961689,2.29),(7.986239344,-0.789961689,2.76),(7.986239344,-0.289961689,2.29),(7.986239344,-0.289961689,2.76),(7.986239344,0.710038311,2.29),(7.986239344,0.710038311,2.76),(7.986239344,1.210038311,2.29),(7.986239344,1.210038311,2.76),(7.986239344,2.210038443,2.29),(7.986239344,2.210038443,2.76),(7.986239344,2.710038443,2.29),(7.986239344,2.710038443,2.76),(7.986239344,3.710038443,2.29),(7.986239344,3.710038443,2.76),(7.986239344,4.210038443,2.29),(7.986239344,4.210038443,2.76),(7.986239344,5.210038575,2.29),(7.986239344,5.210038575,2.76),(7.986239344,5.710038575,2.29),(7.986239344,5.710038575,2.76),(7.986239344,6.710038708,2.29),(7.986239344,6.710038708,2.76),(7.986239344,7.210038708,2.29),(7.986239344,7.210038708,2.76),(7.986239344,8.210038707,2.29),(7.986239344,8.210038707,2.76),(7.986239344,8.710038707,2.29),(7.986239344,8.710038707,2.76),(7.986239344,9.710038707,2.29),(7.986239344,9.710038707,2.76),(7.986239344,10.210038707,2.29),(7.986239344,10.210038707,2.76),(7.986239344,11.21003884,2.29),(7.986239344,11.21003884,2.76),(7.986239344,11.71003884,2.29),(7.986239344,11.71003884,2.76),(7.986239344,12.71003884,2.29),(7.986239344,12.71003884,2.76),(7.986239344,13.21003884,2.29),(7.986239344,13.21003884,2.76),(7.986239344,14.21003884,2.29),(7.986239344,14.21003884,2.76),(7.986239344,14.71003884,2.29),(7.986239344,14.71003884,2.76),(7.986239344,15.710038972,2.29),(7.986239344,15.710038972,2.76),(7.986239344,16.210038972,2.29),(7.986239344,16.210038972,2.76),(7.986239344,17.210039847,2.29),(7.986239344,17.210039847,2.76),(7.986239344,17.710039847,2.29),(7.986239344,17.710039847,2.76),(7.986239344,18.709096447,2.29),(7.986239344,18.709096447,2.76),(7.986239344,19.209096447,2.29),(7.986239344,19.209096447,2.76),(7.986239344,19.75151573,0.1),(7.986239344,19.75151573,3.),(8.286239344,-4.309927044,0.1),(8.286239344,-4.309927044,3.),(8.286239344,-3.789961689,2.29),(8.286239344,-3.789961689,2.76),(8.286239344,-3.289961689,2.29),(8.286239344,-3.289961689,2.76),(8.286239344,-2.289961689,2.29),(8.286239344,-2.289961689,2.76),(8.286239344,-1.789961689,2.29),(8.286239344,-1.789961689,2.76),(8.286239344,-0.789961689,2.29),(8.286239344,-0.789961689,2.76),(8.286239344,-0.289961689,2.29),(8.286239344,-0.289961689,2.76),(8.286239344,0.710038311,2.29),(8.286239344,0.710038311,2.76),(8.286239344,1.210038311,2.29),(8.286239344,1.210038311,2.76),(8.286239344,2.210038443,2.29),(8.286239344,2.210038443,2.76),(8.286239344,2.710038443,2.29),(8.286239344,2.710038443,2.76),(8.286239344,3.710038443,2.29),(8.286239344,3.710038443,2.76),(8.286239344,4.210038443,2.29),(8.286239344,4.210038443,2.76),(8.286239344,5.210038575,2.29),(8.286239344,5.210038575,2.76),(8.286239344,5.710038575,2.29),(8.286239344,5.710038575,2.76),(8.286239344,6.710038708,2.29),(8.286239344,6.710038708,2.76),(8.286239344,7.210038708,2.29),(8.286239344,7.210038708,2.76),(8.286239344,8.210038707,2.29),(8.286239344,8.210038707,2.76),(8.286239344,8.710038707,2.29),(8.286239344,8.710038707,2.76),(8.286239344,9.710038707,2.29),(8.286239344,9.710038707,2.76),(8.286239344,10.210038707,2.29),(8.286239344,10.210038707,2.76),(8.286239344,11.21003884,2.29),(8.286239344,11.21003884,2.76),(8.286239344,11.71003884,2.29),(8.286239344,11.71003884,2.76),(8.286239344,12.71003884,2.29),(8.286239344,12.71003884,2.76),(8.286239344,13.21003884,2.29),(8.286239344,13.21003884,2.76),(8.286239344,14.21003884,2.29),(8.286239344,14.21003884,2.76),(8.286239344,14.71003884,2.29),(8.286239344,14.71003884,2.76),(8.286239344,15.710038972,2.29),(8.286239344,15.710038972,2.76),(8.286239344,16.210038972,2.29),(8.286239344,16.210038972,2.76),(8.286239344,17.210039847,2.29),(8.286239344,17.210039847,2.76),(8.286239344,17.710039847,2.29),(8.286239344,17.710039847,2.76),(8.286239344,18.709096447,2.29),(8.286239344,18.709096447,2.76),(8.286239344,19.209096447,2.29),(8.286239344,19.209096447,2.76),(8.286239344,19.75151573,0.1),(8.286239344,19.75151573,3.)));
#36=IFCTRIANGULATEDFACESET(#35,$,.F.,((1,69,70),(2,1,70),(136,135,67),(136,67,68),(135,69,1),(135,1,67),(2,70,136),(68,2,136),(29,97,98),(30,29,98),(30,98,28),(28,98,96),(28,96,95),(27,28,95),(27,95,29),(29,95,97),(33,101,102),(34,33,102),(34,102,32),(32,102,100),(32,100,99),(31,32,99),(31,99,33),(33,99,101),(37,105,106),(38,37,106),(38,106,36),(36,106,104),(36,104,103),(35,36,103),(35,103,37),(37,103,105),(41,109,110),(42,41,110),(42,110,40),(40,110,108),(40,108,107),(39,40,107),(39,107,41),(41,107,109),(45,113,114),(46,45,114),(46,114,44),(44,114,112),(44,112,111),(43,44,111),(43,111,45),(45,111,113),(49,117,118),(50,49,118),(50,118,48),(48,118,116),(48,116,115),(47,48,115),(47,115,49),(49,115,117),(53,121,122),(54,53,122),(54,122,52),(52,122,120),(52,120,119),(51,52,119),(51,119,53),(53,119,121),(57,125,126),(58,57,126),(58,126,56),(56,126,124),(56,124,123),(55,56,123),(55,123,57),(57,123,125),(61,129,130),(62,61,130),(62,130,60),(60,130,128),(60,128,127),(59,60,127),(59,127,61),(61,127,129),(25,93,94),(26,25,94),(26,94,24),(24,94,92),(24,92,91),(23,24,91),(23,91,25),(25,91,93),(21,89,90),(22,21,90),(22,90,88),(20,22,88),(20,88,87),(19,20,87),(19,87,89),(21,19,89),(17,85,86),(18,17,86),(18,86,84),(16,18,84),(16,84,83),(15,16,83),(15,83,85),(17,15,85),(13,81,82),(14,13,82),(14,82,80),(12,14,80),(12,80,79),(11,12,79),(11,79,81),(13,11,81),(9,77,78),(10,9,78),(10,78,76),(8,10,76),(8,76,75),(7,8,75),(7,75,77),(9,7,77),(5,73,74),(6,5,74),(6,74,72),(4,6,72),(4,72,71),(3,4,71),(3,71,73),(5,3,73),(65,133,134),(66,65,134),(66,134,64),(64,134,132),(64,132,131),(63,64,131),(63,131,65),(65,131,133),(71,72,70),(74,70,72),(76,70,74),(75,74,73),(75,76,74),(78,70,76),(69,73,71),(69,71,70),(69,75,73),(77,75,69),(79,78,77),(79,80,78),(79,77,69),(81,79,69),(83,82,81),(83,84,82),(83,81,69),(85,83,69),(87,88,86),(87,85,69),(87,86,85),(89,87,69),(91,89,69),(91,92,90),(91,90,89),(93,91,69),(95,96,94),(95,94,93),(99,98,97),(99,100,98),(103,102,101),(103,104,102),(108,106,105),(107,108,105),(112,110,109),(111,112,109),(115,114,113),(115,116,114),(119,118,117),(119,120,118),(123,122,121),(123,124,122),(127,126,125),(127,128,126),(131,130,129),(131,132,130),(136,128,130),(136,132,134),(136,126,128),(136,130,132),(133,136,134),(135,136,133),(135,113,111),(135,117,115),(135,121,119),(135,125,123),(135,129,127),(135,111,109),(135,115,113),(135,133,131),(135,119,117),(135,123,121),(135,127,125),(135,131,129),(136,70,80),(80,70,78),(136,80,82),(136,82,84),(136,84,86),(136,86,88),(136,88,90),(136,90,92),(136,92,94),(136,94,96),(136,96,98),(136,98,100),(136,100,102),(136,102,104),(136,104,106),(136,106,108),(136,108,110),(136,110,112),(136,112,114),(136,114,116),(136,116,118),(136,118,120),(136,120,122),(136,122,124),(136,124,126),(69,135,109),(69,109,107),(69,107,105),(69,105,103),(69,103,101),(69,101,99),(69,99,97),(69,97,95),(69,95,93),(2,4,3),(4,2,6),(6,2,8),(5,6,7),(6,8,7),(8,2,10),(3,5,1),(2,3,1),(5,7,1),(1,7,9),(9,10,11),(10,12,11),(1,9,11),(1,11,13),(13,14,15),(14,16,15),(1,13,15),(1,15,17),(18,20,19),(1,17,19),(17,18,19),(1,19,21),(1,21,23),(22,24,23),(21,22,23),(1,23,25),(26,28,27),(25,26,27),(29,30,31),(30,32,31),(33,34,35),(34,36,35),(37,38,40),(37,40,39),(41,42,44),(41,44,43),(45,46,47),(46,48,47),(49,50,51),(50,52,51),(53,54,55),(54,56,55),(57,58,59),(58,60,59),(61,62,63),(62,64,63),(62,60,68),(66,64,68),(60,58,68),(64,62,68),(66,68,65),(65,68,67),(43,45,67),(47,49,67),(51,53,67),(55,57,67),(59,61,67),(41,43,67),(45,47,67),(63,65,67),(49,51,67),(53,55,67),(57,59,67),(61,63,67),(12,2,68),(10,2,12),(14,12,68),(16,14,68),(18,16,68),(20,18,68),(22,20,68),(24,22,68),(26,24,68),(28,26,68),(30,28,68),(32,30,68),(34,32,68),(36,34,68),(38,36,68),(40,38,68),(42,40,68),(44,42,68),(46,44,68),(48,46,68),(50,48,68),(52,50,68),(54,52,68),(56,54,68),(58,56,68),(41,67,1),(39,41,1),(37,39,1),(35,37,1),(33,35,1),(31,33,1),(29,31,1),(27,29,1),(25,27,1)),$);
#37=IFCSTYLEDITEM(#36,(#20),$);
#38=IFCSHAPEREPRESENTATION(#6,'Body','Tessellation',(#36));
#39=IFCLOCALPLACEMENT(#9,#5);
#40=IFCPRODUCTDEFINITIONSHAPE($,$,(#38));
#41=IFCWALL('0FDABnXCHCUR8gI54b$Kx2',$,'Basic Wall:(35cm) Tijolo cer\X2\00E2\X0\mico acabamento pintura branca:919433',$,$,#39,#40,$,$);
#42=IFCCARTESIANPOINTLIST3D(((1.180689489,-4.309927044,0.1),(1.180689489,-4.309927044,3.),(1.180689489,-4.159927044,0.1),(1.180689489,-4.159927044,3.),(7.986239344,-4.309927044,0.1),(7.986239344,-4.309927044,3.),(7.986239344,-4.159927044,0.1),(7.986239344,-4.159927044,3.)));
#43=IFCTRIANGULATEDFACESET(#42,$,.F.,((8,7,3),(4,8,3),(4,3,1),(2,4,1),(2,1,5),(6,2,5),(6,5,7),(8,6,7),(1,3,7),(5,1,7),(8,4,2),(8,2,6)),$);
#44=IFCSTYLEDITEM(#43,(#20),$);
#45=IFCSHAPEREPRESENTATION(#6,'Body','Tessellation',(#43));
#46=IFCLOCALPLACEMENT(#9,#5);
#47=IFCPRODUCTDEFINITIONSHAPE($,$,(#45));
#48=IFCWALL('0FDABnXCHCUR8gI54b$K1a',$,'Basic Wall:(15cm) Tijolo cer\X2\00E2\X0\mico acabamento pintura branca:919855',$,$,#46,#47,$,$);
#49=IFCCARTESIANPOINTLIST3D(((-9.615754403,-0.940905295,0.1),(-9.615754403,-0.940905295,3.),(-9.615754403,-0.790905295,0.1),(-9.615754403,-0.790905295,3.),(-2.809320202,-0.940905295,0.1),(-2.809320202,-0.940905295,3.),(-2.809320202,-0.790905295,0.1),(-2.809320202,-0.790905295,3.)));
#50=IFCTRIANGULATEDFACESET(#49,$,.F.,((8,7,3),(4,8,3),(4,3,1),(2,4,1),(2,1,5),(6,2,5),(6,5,7),(8,6,7),(1,3,7),(5,1,7),(8,4,2),(8,2,6)),$);
#51=IFCSTYLEDITEM(#50,(#20),$);
#52=IFCSHAPEREPRESENTATION(#6,'Body','Tessellation',(#50));
#53=IFCLOCALPLACEMENT(#9,#5);
#54=IFCPRODUCTDEFINITIONSHAPE($,$,(#52));
#55=IFCWALL('0FDABnXCHCUR8gI54b$KPS',$,'Basic Wall:(15cm) Tijolo cer\X2\00E2\X0\mico acabamento pintura branca:921367',$,$,#53,#54,$,$);
#56=IFCCARTESIANPOINTLIST3D(((-2.169735277,-4.53352002,0.1),(-2.169735277,-4.53352002,3.),(-2.169735277,-1.613519926,0.1),(-2.169735277,-1.613519926,3.),(-2.019735277,-4.53352002,0.1),(-2.019735277,-4.53352002,3.),(-2.019735277,-1.613519926,0.1),(-2.019735277,-1.613519926,3.)));
#57=IFCTRIANGULATEDFACESET(#56,$,.F.,((6,5,7),(8,6,7),(8,7,3),(4,8,3),(4,3,1),(2,4,1),(2,1,5),(6,2,5),(3,7,5),(1,3,5),(6,8,4),(6,4,2)),$);
#58=IFCSTYLEDITEM(#57,(#20),$);
#59=IFCSHAPEREPRESENTATION(#6,'Body','Tessellation',(#57));
#60=IFCLOCALPLACEMENT(#9,#5);
#61=IFCPRODUCTDEFINITIONSHAPE($,$,(#59));
#62=IFCWALL('0FDABnXCHCUR8gI54b$LZ2',$,'Basic Wall:(15cm) Tijolo cer\X2\00E2\X0\mico acabamento pintura branca:921993',$,$,#60,#61,$,$);
#63=IFCCARTESIANPOINTLIST3D(((-2.214735755,13.92651573,0.1),(-2.214735755,13.92651573,3.),(-2.214735755,19.75151573,0.1),(-2.214735755,19.75151573,3.),(-2.064735755,13.92651573,0.1),(-2.064735755,13.92651573,3.),(-2.064735755,19.75151573,0.1),(-2.064735755,19.75151573,3.)));
#64=IFCTRIANGULATEDFACESET(#63,$,.F.,((6,5,7),(8,6,7),(8,7,3),(4,8,3),(4,3,1),(2,4,1),(2,1,5),(6,2,5),(3,7,5),(1,3,5),(6,8,4),(6,4,2)),$);
#65=IFCSTYLEDITEM(#64,(#20),$);
#66=IFCSHAPEREPRESENTATION(#6,'Body','Tessellation',(#64));
#67=IFCLOCALPLACEMENT(#9,#5);
#68=IFCPRODUCTDEFINITIONSHAPE($,$,(#66));
#69=IFCWALL('1E1B1LzKP1fOal0Nog1F_3',$,'Basic Wall:(15cm) Tijolo cer\X2\00E2\X0\mico acabamento pintura branca:941802',$,$,#67,#68,$,$);
#70=IFCCARTESIANPOINTLIST3D(((-2.214735755,13.77651573,0.1),(-2.214735755,13.77651573,3.),(-2.214735755,13.92651573,0.1),(-2.214735755,13.92651573,3.),(-1.807233196,13.77651573,0.1),(-1.807233196,13.77651573,3.),(-1.807233196,13.92651573,0.1),(-1.807233196,13.92651573,3.)));
#71=IFCTRIANGULATEDFACESET(#70,$,.F.,((8,7,3),(4,8,3),(4,3,1),(2,4,1),(2,1,5),(6,2,5),(6,5,7),(8,6,7),(1,3,7),(5,1,7),(8,4,2),(8,2,6)),$);
#72=IFCSTYLEDITEM(#71,(#20),$);
#73=IFCSHAPEREPRESENTATION(#6,'Body','Tessellation',(#71));
#74=IFCLOCALPLACEMENT(#9,#5);
#75=IFCPRODUCTDEFINITIONSHAPE($,$,(#73));
#76=IFCWALL('1E1B1LzKP1fOal0Nog1Fuu',$,'Basic Wall:(15cm) Tijolo cer\X2\00E2\X0\mico acabamento pintura branca:941905',$,$,#74,#75,$,$);
#77=IFCCARTESIANPOINTLIST3D(((0.435280721,13.911515078,0.1),(0.435280721,13.911515078,3.),(0.435280721,19.75151573,0.1),(0.435280721,19.75151573,3.),(0.585280721,13.911515078,0.1),(0.585280721,13.911515078,3.),(0.585280721,19.75151573,0.1),(0.585280721,19.75151573,3.)));
#78=IFCTRIANGULATEDFACESET(#77,$,.F.,((6,5,7),(8,6,7),(8,7,3),(4,8,3),(4,3,1),(2,4,1),(2,1,5),(6,2,5),(3,7,5),(1,3,5),(6,8,4),(6,4,2)),$);
#79=IFCSTYLEDITEM(#78,(#20),$);
#80=IFCSHAPEREPRESENTATION(#6,'Body','Tessellation',(#78));
#81=IFCLOCALPLACEMENT(#9,#5);
#82=IFCPRODUCTDEFINITIONSHAPE($,$,(#80));
#83=IFCWALL('1E1B1LzKP1fOal0Nog1C7k',$,'Basic Wall:(15cm) Tijolo cer\X2\00E2\X0\mico acabamento pintura branca:942215',$,$,#81,#82,$,$);
#84=IFCCARTESIANPOINTLIST3D(((-0.837233197,13.776515137,0.1),(-0.837233197,13.776515137,3.),(-0.837233197,13.926515137,0.1),(-0.837233197,13.926515137,3.),(-0.624730686,13.776515137,0.1),(-0.624730686,13.776515137,3.),(-0.624730686,13.926515137,0.1),(-0.624730686,13.926515137,3.)));
#85=IFCTRIANGULATEDFACESET(#84,$,.F.,((8,7,3),(4,8,3),(4,3,1),(2,4,1),(2,1,5),(6,2,5),(6,5,7),(8,6,7),(1,3,7),(5,1,7),(8,4,2),(8,2,6)),$);
#86=IFCSTYLEDITEM(#85,(#20),$);
#87=IFCSHAPEREPRESENTATION(#6,'Body','Tessellation',(#85));
#88=IFCLOCALPLACEMENT(#9,#5);
#89=IFCPRODUCTDEFINITIONSHAPE($,$,(#87));
#90=IFCWALL('1E1B1LzKP1fOal0Nog1C0_',$,'Basic Wall:(15cm) Tijolo cer\X2\00E2\X0\mico acabamento pintura branca:942423',$,$,#88,#89,$,$);
#91=IFCCARTESIANPOINTLIST3D(((-0.774730686,13.926515137,0.1),(-0.774730686,13.926515137,3.),(-0.774730686,18.213691398,0.1),(-0.774730686,18.213691398,3.),(-0.624730686,13.926515137,0.1),(-0.624730686,13.926515137,3.),(-0.624730686,18.213691398,0.1),(-0.624730686,18.213691398,3.)));
#92=IFCTRIANGULATEDFACESET(#91,$,.F.,((4,3,1),(2,4,1),(2,1,5),(6,2,5),(6,5,7),(8,6,7),(8,7,3),(4,8,3),(5,1,3),(7,5,3),(4,2,6),(4,6,8)),$);
#93=IFCSTYLEDITEM(#92,(#20),$);
#94=IFCSHAPEREPRESENTATION(#6,'Body','Tessellation',(#92));
#95=IFCLOCALPLACEMENT(#9,#5);
#96=IFCPRODUCTDEFINITIONSHAPE($,$,(#94));
#97=IFCWALL('1E1B1LzKP1fOal0Nog1CDg',$,'Basic Wall:(15cm) Tijolo cer\X2\00E2\X0\mico acabamento pintura branca:942595',$,$,#95,#96,$,$);
#98=IFCCARTESIANPOINTLIST3D(((-0.624730686,18.063691398,0.1),(-0.624730686,18.063691398,3.),(-0.624730686,18.213691398,0.1),(-0.624730686,18.213691398,3.),(0.435280721,18.063691398,0.1),(0.435280721,18.063691398,3.),(0.435280721,18.213691398,0.1),(0.435280721,18.213691398,3.)));
#99=IFCTRIANGULATEDFACESET(#98,$,.F.,((8,7,3),(4,8,3),(4,3,1),(2,4,1),(2,1,5),(6,2,5),(6,5,7),(8,6,7),(1,3,7),(5,1,7),(8,4,2),(8,2,6)),$);
#100=IFCSTYLEDITEM(#99,(#20),$);
#101=IFCSHAPEREPRESENTATION(#6,'Body','Tessellation',(#99));
#102=IFCLOCALPLACEMENT(#9,#5);
#103=IFCPRODUCTDEFINITIONSHAPE($,$,(#101));
#104=IFCWALL('1E1B1LzKP1fOal0Nog1CCw',$,'Basic Wall:(15cm) Tijolo cer\X2\00E2\X0\mico acabamento pintura branca:942675',$,$,#102,#103,$,$);
#105=IFCCARTESIANPOINTLIST3D(((1.180689489,2.908515201,0.1),(1.180689489,2.908515201,3.),(1.180689489,3.008515201,0.1),(1.180689489,3.008515201,3.),(2.466239344,2.908515201,2.29),(2.466239344,2.908515201,2.77),(2.466239344,3.008515201,2.29),(2.466239344,3.008515201,2.77),(3.666239344,2.908515201,2.29),(3.666239344,2.908515201,2.77),(3.666239344,3.008515201,2.29),(3.666239344,3.008515201,2.77),(4.866239344,2.908515201,2.29),(4.866239344,2.908515201,2.77),(4.866239344,3.008515201,2.29),(4.866239344,3.008515201,2.77),(6.066239344,2.908515201,2.29),(6.066239344,2.908515201,2.77),(6.066239344,3.008515201,2.29),(6.066239344,3.008515201,2.77),(7.266239344,2.908515201,2.29),(7.266239344,2.908515201,2.77),(7.266239344,3.008515201,2.29),(7.266239344,3.008515201,2.77),(7.986239344,2.908515201,0.1),(7.986239344,2.908515201,2.29),(7.986239344,2.908515201,2.77),(7.986239344,2.908515201,3.),(7.986239344,3.008515201,0.1),(7.986239344,3.008515201,2.29),(7.986239344,3.008515201,2.77),(7.986239344,3.008515201,3.)));
#106=IFCTRIANGULATEDFACESET(#105,$,.F.,((25,1,3),(25,3,29),(26,25,29),(26,29,30),(21,26,30),(21,30,23),(17,21,23),(17,23,19),(13,17,19),(13,19,15),(9,13,15),(9,15,11),(5,9,11),(5,11,7),(6,5,7),(6,7,8),(10,6,8),(10,8,12),(14,10,12),(14,12,16),(18,14,16),(18,16,20),(24,18,20),(22,18,24),(27,22,24),(27,24,31),(28,27,31),(28,31,32),(4,2,28),(32,4,28),(3,1,2),(4,3,2),(6,2,5),(2,6,10),(5,2,1),(5,1,9),(2,10,14),(9,1,13),(18,22,28),(14,18,28),(2,14,28),(28,22,27),(17,13,25),(21,17,25),(26,21,25),(13,1,25),(7,4,8),(12,8,4),(3,4,7),(11,3,7),(16,12,4),(15,3,11),(32,24,20),(32,20,16),(32,16,4),(31,24,32),(29,15,19),(29,19,23),(29,23,30),(29,3,15)),$);
#107=IFCSTYLEDITEM(#106,(#20),$);
#108=IFCSHAPEREPRESENTATION(#6,'Body','Tessellation',(#106));
#109=IFCLOCALPLACEMENT(#9,#5);
#110=IFCPRODUCTDEFINITIONSHAPE($,$,(#108));
#111=IFCWALL('1gsZ4XbYD0qRhfvwOUEI1z',$,'Basic Wall:(10cm) Drywall:961571',$,$,#109,#110,$,$);
#112=IFCCARTESIANPOINTLIST3D(((0.490692074,3.411515202,0.1),(0.490692074,3.411515202,3.),(0.490692074,3.511515202,0.1),(0.490692074,3.511515202,3.),(1.080689489,3.411515202,0.1),(1.080689489,3.411515202,3.),(1.080689489,3.511515202,0.1),(1.080689489,3.511515202,3.)));
#113=IFCTRIANGULATEDFACESET(#112,$,.F.,((8,7,3),(4,8,3),(4,3,1),(2,4,1),(2,1,5),(6,2,5),(6,5,7),(8,6,7),(1,3,7),(5,1,7),(8,4,2),(8,2,6)),$);
#114=IFCSTYLEDITEM(#113,(#20),$);
#115=IFCSHAPEREPRESENTATION(#6,'Body','Tessellation',(#113));
#116=IFCLOCALPLACEMENT(#9,#5);
#117=IFCPRODUCTDEFINITIONSHAPE($,$,(#115));
#118=IFCWALL('1gsZ4XbYD0qRhfvwOUEIAE',$,'Basic Wall:(10cm) Drywall:962256',$,$,#116,#117,$,$);
#119=IFCCARTESIANPOINTLIST3D(((0.490692074,2.783514713,0.1),(0.490692074,2.783514713,3.),(0.490692074,2.883514713,0.1),(0.490692074,2.883514713,3.),(1.080689489,2.783514713,0.1),(1.080689489,2.783514713,3.),(1.080689489,2.883514713,0.1),(1.080689489,2.883514713,3.)));
#120=IFCTRIANGULATEDFACESET(#119,$,.F.,((2,1,5),(6,2,5),(6,5,7),(8,6,7),(8,7,3),(4,8,3),(4,3,1),(2,4,1),(7,5,1),(3,7,1),(2,6,8),(2,8,4)),$);
#121=IFCSTYLEDITEM(#120,(#20),$);
#122=IFCSHAPEREPRESENTATION(#6,'Body','Tessellation',(#120));
#123=IFCLOCALPLACEMENT(#9,#5);
#124=IFCPRODUCTDEFINITIONSHAPE($,$,(#122));
#125=IFCWALL('1gsZ4XbYD0qRhfvwOUEIF9',$,'Basic Wall:(10cm) Drywall:962455',$,$,#123,#124,$,$);
#126=IFCCARTESIANPOINTLIST3D(((0.390692074,1.383514713,0.1),(0.390692074,1.383514713,3.),(0.390692074,3.586515202,0.1),(0.390692074,3.586515202,2.3),(0.390692074,7.186515202,0.1),(0.390692074,7.186515202,2.3),(0.390692074,9.256419199,0.1),(0.390692074,9.256419199,3.),(0.490692074,1.383514713,0.1),(0.490692074,1.383514713,3.),(0.490692074,3.586515202,0.1),(0.490692074,3.586515202,2.3),(0.490692074,7.186515202,0.1),(0.490692074,7.186515202,2.3),(0.490692074,9.256419199,0.1),(0.490692074,9.256419199,3.)));
#127=IFCTRIANGULATEDFACESET(#126,$,.F.,((11,9,1),(11,1,3),(12,11,3),(12,3,4),(14,12,4),(14,4,6),(13,14,6),(13,6,5),(15,13,5),(15,5,7),(16,15,7),(16,7,8),(2,10,16),(8,2,16),(1,9,10),(2,1,10),(10,9,12),(12,9,11),(12,14,16),(10,12,16),(14,13,15),(16,14,15),(4,1,2),(3,1,4),(8,6,4),(8,4,2),(7,5,6),(7,6,8)),$);
#128=IFCSTYLEDITEM(#127,(#20),$);
#129=IFCSHAPEREPRESENTATION(#6,'Body','Tessellation',(#127));
#130=IFCLOCALPLACEMENT(#9,#5);
#131=IFCPRODUCTDEFINITIONSHAPE($,$,(#129));
#132=IFCWALL('1gsZ4XbYD0qRhfvwOUEIEw',$,'Basic Wall:(10cm) Drywall:962532',$,$,#130,#131,$,$);
#133=IFCCARTESIANPOINTLIST3D(((-2.709320202,-0.316484799,0.1),(-2.709320202,-0.316484799,3.),(-2.709320202,-0.216484799,0.1),(-2.709320202,-0.216484799,3.),(-2.019735277,-0.316484799,0.1),(-2.019735277,-0.316484799,3.),(-2.019735277,-0.216484799,0.1),(-2.019735277,-0.216484799,3.)));
#134=IFCTRIANGULATEDFACESET(#133,$,.F.,((8,7,3),(4,8,3),(4,3,1),(2,4,1),(2,1,5),(6,2,5),(6,5,7),(8,6,7),(1,3,7),(5,1,7),(8,4,2),(8,2,6)),$);
#135=IFCSTYLEDITEM(#134,(#20),$);
#136=IFCSHAPEREPRESENTATION(#6,'Body','Tessellation',(#134));
#137=IFCLOCALPLACEMENT(#9,#5);
#138=IFCPRODUCTDEFINITIONSHAPE($,$,(#136));
#139=IFCWALL('1gsZ4XbYD0qRhfvwOUEJvs',$,'Basic Wall:(10cm) Drywall:963112',$,$,#137,#138,$,$);
#140=IFCCARTESIANPOINTLIST3D(((-2.119735277,-1.513519926,0.1),(-2.119735277,-1.513519926,3.),(-2.119735277,-0.316484799,0.1),(-2.119735277,-0.316484799,3.),(-2.019735277,-1.513519926,0.1),(-2.019735277,-1.513519926,3.),(-2.019735277,-0.316484799,0.1),(-2.019735277,-0.316484799,3.)));
#141=IFCTRIANGULATEDFACESET(#140,$,.F.,((6,5,7),(8,6,7),(8,7,3),(4,8,3),(4,3,1),(2,4,1),(2,1,5),(6,2,5),(3,7,5),(1,3,5),(6,8,4),(6,4,2)),$);
#142=IFCSTYLEDITEM(#141,(#20),$);
#143=IFCSHAPEREPRESENTATION(#6,'Body','Tessellation',(#141));
#144=IFCLOCALPLACEMENT(#9,#5);
#145=IFCPRODUCTDEFINITIONSHAPE($,$,(#143));
#146=IFCWALL('1gsZ4XbYD0qRhfvwOUEJzI',$,'Basic Wall:(10cm) Drywall:963340',$,$,#144,#145,$,$);
#147=IFCCARTESIANPOINTLIST3D(((-2.809320202,-1.613519926,0.1),(-2.809320202,-1.613519926,3.),(-2.809320202,-1.513519926,0.1),(-2.809320202,-1.513519926,3.),(-2.019735277,-1.613519926,0.1),(-2.019735277,-1.613519926,3.),(-2.019735277,-1.513519926,0.1),(-2.019735277,-1.513519926,3.)));
#148=IFCTRIANGULATEDFACESET(#147,$,.F.,((2,1,5),(6,2,5),(6,5,7),(8,6,7),(8,7,3),(4,8,3),(4,3,1),(2,4,1),(7,5,1),(3,7,1),(2,6,8),(2,8,4)),$);
#149=IFCSTYLEDITEM(#148,(#20),$);
#150=IFCSHAPEREPRESENTATION(#6,'Body','Tessellation',(#148));
#151=IFCLOCALPLACEMENT(#9,#5);
#152=IFCPRODUCTDEFINITIONSHAPE($,$,(#150));
#153=IFCWALL('1gsZ4XbYD0qRhfvwOUEJ$V',$,'Basic Wall:(10cm) Drywall:963457',$,$,#151,#152,$,$);
#154=IFCCARTESIANPOINTLIST3D(((-2.809320202,-1.513519926,0.1),(-2.809320202,-1.513519926,3.),(-2.809320202,-0.216484799,0.1),(-2.809320202,-0.216484799,2.3),(-2.809320202,1.283515201,0.1),(-2.809320202,1.283515201,2.3),(-2.809320202,2.783515201,0.1),(-2.809320202,2.783515201,3.),(-2.709320202,-1.513519926,0.1),(-2.709320202,-1.513519926,3.),(-2.709320202,-0.216484799,0.1),(-2.709320202,-0.216484799,2.3),(-2.709320202,1.283515201,0.1),(-2.709320202,1.283515201,2.3),(-2.709320202,2.783515201,0.1),(-2.709320202,2.783515201,3.)));
#155=IFCTRIANGULATEDFACESET(#154,$,.F.,((5,7,15),(5,15,13),(6,5,13),(6,13,14),(4,6,14),(4,14,12),(3,4,12),(3,12,11),(1,3,11),(1,11,9),(2,1,9),(2,9,10),(16,8,2),(10,16,2),(15,7,8),(16,15,8),(6,8,7),(6,4,2),(8,6,2),(6,7,5),(4,3,1),(2,4,1),(15,16,14),(10,12,14),(10,14,16),(13,15,14),(9,11,12),(9,12,10)),$);
#156=IFCSTYLEDITEM(#155,(#20),$);
#157=IFCSHAPEREPRESENTATION(#6,'Body','Tessellation',(#155));
#158=IFCLOCALPLACEMENT(#9,#5);
#159=IFCPRODUCTDEFINITIONSHAPE($,$,(#157));
#160=IFCWALL('1gsZ4XbYD0qRhfvwOUEJZF',$,'Basic Wall:(10cm) Drywall:963729',$,$,#158,#159,$,$);
#161=IFCCARTESIANPOINTLIST3D(((0.390692074,1.283514713,0.1),(0.390692074,1.283514713,3.),(0.390692074,1.383514713,0.1),(0.390692074,1.383514713,3.),(1.080689489,1.283514713,0.1),(1.080689489,1.283514713,3.),(1.080689489,1.383514713,0.1),(1.080689489,1.383514713,3.)));
#162=IFCTRIANGULATEDFACESET(#161,$,.F.,((2,1,5),(6,2,5),(6,5,7),(8,6,7),(8,7,3),(4,8,3),(4,3,1),(2,4,1),(7,5,1),(3,7,1),(2,6,8),(2,8,4)),$);
#163=IFCSTYLEDITEM(#162,(#20),$);
#164=IFCSHAPEREPRESENTATION(#6,'Body','Tessellation',(#162));
#165=IFCLOCALPLACEMENT(#9,#5);
#166=IFCPRODUCTDEFINITIONSHAPE($,$,(#164));
#167=IFCWALL('1gsZ4XbYD0qRhfvwOUEJcy',$,'Basic Wall:(10cm) Drywall:964066',$,$,#165,#166,$,$);
#168=IFCCARTESIANPOINTLIST3D(((-2.709320202,2.683515201,0.1),(-2.709320202,2.683515201,3.),(-2.709320202,2.783515201,0.1),(-2.709320202,2.783515201,3.),(-2.11972003,2.683515201,0.1),(-2.11972003,2.683515201,3.),(-2.11972003,2.783515201,0.1),(-2.11972003,2.783515201,3.)));
#169=IFCTRIANGULATEDFACESET(#168,$,.F.,((8,7,3),(4,8,3),(4,3,1),(2,4,1),(2,1,5),(6,2,5),(6,5,7),(8,6,7),(1,3,7),(5,1,7),(8,4,2),(8,2,6)),$);
#170=IFCSTYLEDITEM(#169,(#20),$);
#171=IFCSHAPEREPRESENTATION(#6,'Body','Tessellation',(#169));
#172=IFCLOCALPLACEMENT(#9,#5);
#173=IFCPRODUCTDEFINITIONSHAPE($,$,(#171));
#174=IFCWALL('1gsZ4XbYD0qRhfvwOUEJij',$,'Basic Wall:(10cm) Drywall:964467',$,$,#172,#173,$,$);
#175=IFCCARTESIANPOINTLIST3D(((-2.709320202,1.283515201,0.1),(-2.709320202,1.283515201,3.),(-2.709320202,1.383515201,0.1),(-2.709320202,1.383515201,3.),(-2.01972003,1.283515201,0.1),(-2.01972003,1.283515201,3.),(-2.01972003,1.383515201,0.1),(-2.01972003,1.383515201,3.)));
#176=IFCTRIANGULATEDFACESET(#175,$,.F.,((2,1,5),(6,2,5),(6,5,7),(8,6,7),(8,7,3),(4,8,3),(4,3,1),(2,4,1),(7,5,1),(3,7,1),(2,6,8),(2,8,4)),$);
#177=IFCSTYLEDITEM(#176,(#20),$);
#178=IFCSHAPEREPRESENTATION(#6,'Body','Tessellation',(#176));
#179=IFCLOCALPLACEMENT(#9,#5);
#180=IFCPRODUCTDEFINITIONSHAPE($,$,(#178));
#181=IFCWALL('1gsZ4XbYD0qRhfvwOUEJHg',$,'Basic Wall:(10cm) Drywall:964660',$,$,#179,#180,$,$);
#182=IFCCARTESIANPOINTLIST3D(((0.390691991,-4.53352002,0.1),(0.390691991,-4.53352002,3.),(0.390691991,-4.43352002,0.1),(0.390691991,-4.43352002,3.),(1.180689489,-4.53352002,0.1),(1.180689489,-4.53352002,3.),(1.180689489,-4.43352002,0.1),(1.180689489,-4.43352002,3.)));
#183=IFCTRIANGULATEDFACESET(#182,$,.F.,((8,7,3),(4,8,3),(4,3,1),(2,4,1),(2,1,5),(6,2,5),(6,5,7),(8,6,7),(1,3,7),(5,1,7),(8,4,2),(8,2,6)),$);
#184=IFCSTYLEDITEM(#183,(#20),$);
#185=IFCSHAPEREPRESENTATION(#6,'Body','Tessellation',(#183));
#186=IFCLOCALPLACEMENT(#9,#5);
#187=IFCPRODUCTDEFINITIONSHAPE($,$,(#185));
#188=IFCWALL('1gsZ4XbYD0qRhfvwOUEJV_',$,'Basic Wall:(10cm) Drywall:965536',$,$,#186,#187,$,$);
#189=IFCCARTESIANPOINTLIST3D(((0.490691991,-4.18852005,0.1),(0.490691991,-4.18852005,3.),(0.490691991,-4.08852005,0.1),(0.490691991,-4.08852005,3.),(1.080689489,-4.18852005,0.1),(1.080689489,-4.18852005,3.),(1.080689489,-4.08852005,0.1),(1.080689489,-4.08852005,3.)));
#190=IFCTRIANGULATEDFACESET(#189,$,.F.,((2,1,5),(6,2,5),(6,5,7),(8,6,7),(8,7,3),(4,8,3),(4,3,1),(2,4,1),(7,5,1),(3,7,1),(2,6,8),(2,8,4)),$);
#191=IFCSTYLEDITEM(#190,(#20),$);
#192=IFCSHAPEREPRESENTATION(#6,'Body','Tessellation',(#190));
#193=IFCLOCALPLACEMENT(#9,#5);
#194=IFCPRODUCTDEFINITIONSHAPE($,$,(#192));
#195=IFCWALL('1gsZ4XbYD0qRhfvwOUEJ17',$,'Basic Wall:(10cm) Drywall:965657',$,$,#193,#194,$,$);
#196=IFCCARTESIANPOINTLIST3D(((-2.019735277,-4.53352002,0.1),(-2.019735277,-4.53352002,3.),(-2.019735277,-4.33352002,0.1),(-2.019735277,-4.33352002,3.),(-1.672059061,-4.53352002,0.1),(-1.672059061,-4.53352002,2.29),(-1.672059061,-4.33352002,0.1),(-1.672059061,-4.33352002,2.29),(0.047940939,-4.53352002,0.1),(0.047940939,-4.53352002,2.29),(0.047940939,-4.33352002,0.1),(0.047940939,-4.33352002,2.29),(0.390691991,-4.53352002,0.1),(0.390691991,-4.53352002,3.),(0.390691991,-4.33352002,0.1),(0.390691991,-4.33352002,3.)));
#197=IFCTRIANGULATEDFACESET(#196,$,.F.,((11,15,13),(11,13,9),(10,12,11),(9,10,11),(6,8,12),(10,6,12),(5,7,8),(6,5,8),(3,7,5),(3,5,1),(4,3,1),(4,1,2),(14,16,4),(2,14,4),(13,15,16),(14,13,16),(4,16,8),(16,12,8),(12,16,15),(12,15,11),(8,7,3),(4,8,3),(6,14,2),(6,10,14),(13,14,10),(9,13,10),(1,5,6),(1,6,2)),$);
#198=IFCSTYLEDITEM(#197,(#20),$);
#199=IFCSHAPEREPRESENTATION(#6,'Body','Tessellation',(#197));
#200=IFCLOCALPLACEMENT(#9,#5);
#201=IFCPRODUCTDEFINITIONSHAPE($,$,(#199));
#202=IFCWALL('1gsZ4XbYD0qRhfvwOUEJ7O',$,'Basic Wall:(20cm) Tijolo cer\X2\00E2\X0\mico acabamento pintura branca:966022',$,$,#200,#201,$,$);
#203=IFCCARTESIANPOINTLIST3D(((0.390691991,-0.316484799,0.1),(0.390691991,-0.316484799,3.),(0.390691991,-0.216484799,0.1),(0.390691991,-0.216484799,3.),(1.080689489,-0.316484799,0.1),(1.080689489,-0.316484799,3.),(1.080689489,-0.216484799,0.1),(1.080689489,-0.216484799,3.)));
#204=IFCTRIANGULATEDFACESET(#203,$,.F.,((8,7,3),(4,8,3),(4,3,1),(2,4,1),(2,1,5),(6,2,5),(6,5,7),(8,6,7),(1,3,7),(5,1,7),(8,4,2),(8,2,6)),$);
#205=IFCSTYLEDITEM(#204,(#20),$);
#206=IFCSHAPEREPRESENTATION(#6,'Body','Tessellation',(#204));
#207=IFCLOCALPLACEMENT(#9,#5);
#208=IFCPRODUCTDEFINITIONSHAPE($,$,(#206));
#209=IFCWALL('1gsZ4XbYD0qRhfvwOUEKlH',$,'Basic Wall:(10cm) Drywall:968591',$,$,#207,#208,$,$);
#210=IFCCARTESIANPOINTLIST3D(((0.390691991,-4.43352002,0.1),(0.390691991,-4.43352002,3.),(0.390691991,-0.316484799,0.1),(0.390691991,-0.316484799,3.),(0.490691991,-4.43352002,0.1),(0.490691991,-4.43352002,3.),(0.490691991,-0.316484799,0.1),(0.490691991,-0.316484799,3.)));
#211=IFCTRIANGULATEDFACESET(#210,$,.F.,((6,5,7),(8,6,7),(8,7,3),(4,8,3),(4,3,1),(2,4,1),(2,1,5),(6,2,5),(3,7,5),(1,3,5),(6,8,4),(6,4,2)),$);
#212=IFCSTYLEDITEM(#211,(#20),$);
#213=IFCSHAPEREPRESENTATION(#6,'Body','Tessellation',(#211));
#214=IFCLOCALPLACEMENT(#9,#5);
#215=IFCPRODUCTDEFINITIONSHAPE($,$,(#213));
#216=IFCWALL('1gsZ4XbYD0qRhfvwOUEK3Z',$,'Basic Wall:(10cm) Drywall:969917',$,$,#214,#215,$,$);
#217=IFCCARTESIANPOINTLIST3D(((0.490691991,-3.271484799,0.1),(0.490691991,-3.271484799,3.),(0.490691991,-3.171484799,0.1),(0.490691991,-3.171484799,3.),(1.080689489,-3.271484799,0.1),(1.080689489,-3.271484799,3.),(1.080689489,-3.171484799,0.1),(1.080689489,-3.171484799,3.)));
#218=IFCTRIANGULATEDFACESET(#217,$,.F.,((8,7,3),(4,8,3),(4,3,1),(2,4,1),(2,1,5),(6,2,5),(6,5,7),(8,6,7),(1,3,7),(5,1,7),(8,4,2),(8,2,6)),$);
#219=IFCSTYLEDITEM(#218,(#20),$);
#220=IFCSHAPEREPRESENTATION(#6,'Body','Tessellation',(#218));
#221=IFCLOCALPLACEMENT(#9,#5);
#222=IFCPRODUCTDEFINITIONSHAPE($,$,(#220));
#223=IFCWALL('1gsZ4XbYD0qRhfvwOUEK7Q',$,'Basic Wall:(10cm) Drywall:970116',$,$,#221,#222,$,$);
#224=IFCCARTESIANPOINTLIST3D(((0.490691991,-1.771484799,0.1),(0.490691991,-1.771484799,3.),(0.490691991,-1.671484799,0.1),(0.490691991,-1.671484799,3.),(1.080689489,-1.771484799,0.1),(1.080689489,-1.771484799,3.),(1.080689489,-1.671484799,0.1),(1.080689489,-1.671484799,3.)));
#225=IFCTRIANGULATEDFACESET(#224,$,.F.,((8,7,3),(4,8,3),(4,3,1),(2,4,1),(2,1,5),(6,2,5),(6,5,7),(8,6,7),(1,3,7),(5,1,7),(8,4,2),(8,2,6)),$);
#226=IFCSTYLEDITEM(#225,(#20),$);
#227=IFCSHAPEREPRESENTATION(#6,'Body','Tessellation',(#225));
#228=IFCLOCALPLACEMENT(#9,#5);
#229=IFCPRODUCTDEFINITIONSHAPE($,$,(#227));
#230=IFCWALL('1gsZ4XbYD0qRhfvwOUEK9q',$,'Basic Wall:(10cm) Drywall:970282',$,$,#228,#229,$,$);
#231=IFCCARTESIANPOINTLIST3D(((-2.809320155,14.683515445,0.1),(-2.809320155,14.683515445,3.),(-2.809320155,14.783515445,0.1),(-2.809320155,14.783515445,3.),(-2.214735755,14.683515445,0.1),(-2.214735755,14.683515445,3.),(-2.214735755,14.783515445,0.1),(-2.214735755,14.783515445,3.)));
#232=IFCTRIANGULATEDFACESET(#231,$,.F.,((2,1,5),(6,2,5),(6,5,7),(8,6,7),(8,7,3),(4,8,3),(4,3,1),(2,4,1),(7,5,1),(3,7,1),(2,6,8),(2,8,4)),$);
#233=IFCSTYLEDITEM(#232,(#20),$);
#234=IFCSHAPEREPRESENTATION(#6,'Body','Tessellation',(#232));
#235=IFCLOCALPLACEMENT(#9,#5);
#236=IFCPRODUCTDEFINITIONSHAPE($,$,(#234));
#237=IFCWALL('1gsZ4XbYD0qRhfvwOUEKFH',$,'Basic Wall:(10cm) Drywall:970639',$,$,#235,#236,$,$);
#238=IFCCARTESIANPOINTLIST3D(((1.080689489,-4.43352002,0.1),(1.080689489,-4.43352002,3.),(1.080689489,-0.216485287,0.1),(1.080689489,-0.216485287,2.3),(1.080689489,1.283514713,0.1),(1.080689489,1.283514713,2.3),(1.080689489,3.511515202,0.1),(1.080689489,3.511515202,3.),(1.180689489,-4.43352002,0.1),(1.180689489,-4.43352002,3.),(1.180689489,-0.216485287,0.1),(1.180689489,-0.216485287,2.3),(1.180689489,1.283514713,0.1),(1.180689489,1.283514713,2.3),(1.180689489,3.511515202,0.1),(1.180689489,3.511515202,3.)));
#239=IFCTRIANGULATEDFACESET(#238,$,.F.,((5,7,15),(5,15,13),(14,6,5),(13,14,5),(12,4,6),(14,12,6),(11,3,4),(12,11,4),(1,3,11),(1,11,9),(2,1,9),(2,9,10),(16,8,2),(10,16,2),(15,7,8),(16,15,8),(8,7,6),(8,6,4),(6,7,5),(8,4,2),(4,3,1),(2,4,1),(14,15,16),(12,14,16),(13,15,14),(10,12,16),(9,11,12),(9,12,10)),$);
#240=IFCSTYLEDITEM(#239,(#20),$);
#241=IFCSHAPEREPRESENTATION(#6,'Body','Tessellation',(#239));
#242=IFCLOCALPLACEMENT(#9,#5);
#243=IFCPRODUCTDEFINITIONSHAPE($,$,(#241));
#244=IFCWALL('1gsZ4XbYD0qRhfvwOUELvf',$,'Basic Wall:(10cm) Drywall:971319',$,$,#242,#243,$,$);
#245=IFCCARTESIANPOINTLIST3D(((0.585280721,14.683515201,0.1),(0.585280721,14.683515201,3.),(0.585280721,14.783515201,0.1),(0.585280721,14.783515201,3.),(1.180689339,14.683515201,0.1),(1.180689339,14.683515201,3.),(1.180689339,14.783515201,0.1),(1.180689339,14.783515201,3.)));
#246=IFCTRIANGULATEDFACESET(#245,$,.F.,((2,1,5),(6,2,5),(6,5,7),(8,6,7),(8,7,3),(4,8,3),(4,3,1),(2,4,1),(7,5,1),(3,7,1),(2,6,8),(2,8,4)),$);
#247=IFCSTYLEDITEM(#246,(#20),$);
#248=IFCSHAPEREPRESENTATION(#6,'Body','Tessellation',(#246));
#249=IFCLOCALPLACEMENT(#9,#5);
#250=IFCPRODUCTDEFINITIONSHAPE($,$,(#248));
#251=IFCWALL('3qeiF73TD1uOeHIcNGcTKH',$,'Basic Wall:(10cm) Drywall:971683',$,$,#249,#250,$,$);
#252=IFCCARTESIANPOINTLIST3D(((1.180689339,10.861515201,0.1),(1.180689339,10.861515201,3.),(1.180689339,10.961515201,0.1),(1.180689339,10.961515201,3.),(2.466239344,10.861515201,2.29),(2.466239344,10.861515201,2.77),(2.466239344,10.961515201,2.29),(2.466239344,10.961515201,2.77),(3.666239344,10.861515201,2.29),(3.666239344,10.861515201,2.77),(3.666239344,10.961515201,2.29),(3.666239344,10.961515201,2.77),(4.866239344,10.861515201,2.29),(4.866239344,10.861515201,2.77),(4.866239344,10.961515201,2.29),(4.866239344,10.961515201,2.77),(6.066239344,10.861515201,2.29),(6.066239344,10.861515201,2.77),(6.066239344,10.961515201,2.29),(6.066239344,10.961515201,2.77),(7.266239344,10.861515201,2.29),(7.266239344,10.861515201,2.77),(7.266239344,10.961515201,2.29),(7.266239344,10.961515201,2.77),(7.986239344,10.861515201,0.1),(7.986239344,10.861515201,2.29),(7.986239344,10.861515201,2.77),(7.986239344,10.861515201,3.),(7.986239344,10.961515201,0.1),(7.986239344,10.961515201,2.29),(7.986239344,10.961515201,2.77),(7.986239344,10.961515201,3.)));
#253=IFCTRIANGULATEDFACESET(#252,$,.F.,((3,29,25),(3,25,1),(4,3,1),(4,1,2),(28,32,4),(2,28,4),(27,31,32),(28,27,32),(24,31,27),(24,27,22),(20,24,22),(20,22,18),(16,20,18),(16,18,14),(10,16,14),(12,16,10),(8,12,10),(8,10,6),(7,8,6),(7,6,5),(11,7,5),(11,5,9),(15,11,9),(15,9,13),(19,15,13),(19,13,17),(23,19,17),(23,17,21),(30,23,21),(30,21,26),(25,29,30),(26,25,30),(32,31,24),(32,24,20),(23,30,29),(19,23,29),(32,20,16),(19,29,15),(8,7,4),(12,8,4),(16,12,4),(32,16,4),(11,15,3),(7,11,3),(15,29,3),(4,7,3),(22,27,28),(18,22,28),(25,26,21),(25,21,17),(14,18,28),(13,25,17),(2,5,6),(2,6,10),(2,10,14),(2,14,28),(1,13,9),(1,9,5),(1,25,13),(1,5,2)),$);
#254=IFCSTYLEDITEM(#253,(#20),$);
#255=IFCSHAPEREPRESENTATION(#6,'Body','Tessellation',(#253));
#256=IFCLOCALPLACEMENT(#9,#5);
#257=IFCPRODUCTDEFINITIONSHAPE($,$,(#255));
#258=IFCWALL('3qeiF73TD1uOeHIcNGcTy8',$,'Basic Wall:(10cm) Drywall:973242',$,$,#256,#257,$,$);
#259=IFCCARTESIANPOINTLIST3D(((0.435280721,13.283514597,0.1),(0.435280721,13.283514597,3.),(0.435280721,13.911515078,0.1),(0.435280721,13.911515078,3.),(0.535280721,13.283514597,0.1),(0.535280721,13.283514597,3.),(0.535280721,13.911515078,0.1),(0.535280721,13.911515078,3.)));
#260=IFCTRIANGULATEDFACESET(#259,$,.F.,((6,5,7),(8,6,7),(8,7,3),(4,8,3),(4,3,1),(2,4,1),(2,1,5),(6,2,5),(3,7,5),(1,3,5),(6,8,4),(6,4,2)),$);
#261=IFCSTYLEDITEM(#260,(#20),$);
#262=IFCSHAPEREPRESENTATION(#6,'Body','Tessellation',(#260));
#263=IFCLOCALPLACEMENT(#9,#5);
#264=IFCPRODUCTDEFINITIONSHAPE($,$,(#262));
#265=IFCWALL('3qeiF73TD1uOeHIcNGcUCm',$,'Basic Wall:(10cm) Drywall:976258',$,$,#263,#264,$,$);
#266=IFCCARTESIANPOINTLIST3D(((0.535280721,13.283514597,0.1),(0.535280721,13.283514597,3.),(0.535280721,13.383514597,0.1),(0.535280721,13.383514597,3.),(1.080689339,13.283514597,0.1),(1.080689339,13.283514597,3.),(1.080689339,13.383514597,0.1),(1.080689339,13.383514597,3.)));
#267=IFCTRIANGULATEDFACESET(#266,$,.F.,((8,7,3),(4,8,3),(4,3,1),(2,4,1),(2,1,5),(6,2,5),(6,5,7),(8,6,7),(1,3,7),(5,1,7),(8,4,2),(8,2,6)),$);
#268=IFCSTYLEDITEM(#267,(#20),$);
#269=IFCSHAPEREPRESENTATION(#6,'Body','Tessellation',(#267));
#270=IFCLOCALPLACEMENT(#9,#5);
#271=IFCPRODUCTDEFINITIONSHAPE($,$,(#269));
#272=IFCWALL('3qeiF73TD1uOeHIcNGcUCE',$,'Basic Wall:(10cm) Drywall:976316',$,$,#270,#271,$,$);
#273=IFCCARTESIANPOINTLIST3D(((0.390691864,11.683515201,0.1),(0.390691864,11.683515201,3.),(0.390691864,11.783515201,0.1),(0.390691864,11.783515201,3.),(1.080689339,11.683515201,0.1),(1.080689339,11.683515201,3.),(1.080689339,11.783515201,0.1),(1.080689339,11.783515201,3.)));
#274=IFCTRIANGULATEDFACESET(#273,$,.F.,((2,1,5),(6,2,5),(6,5,7),(8,6,7),(8,7,3),(4,8,3),(4,3,1),(2,4,1),(7,5,1),(3,7,1),(2,6,8),(2,8,4)),$);
#275=IFCSTYLEDITEM(#274,(#20),$);
#276=IFCSHAPEREPRESENTATION(#6,'Body','Tessellation',(#274));
#277=IFCLOCALPLACEMENT(#9,#5);
#278=IFCPRODUCTDEFINITIONSHAPE($,$,(#276));
#279=IFCWALL('3qeiF73TD1uOeHIcNGcU1j',$,'Basic Wall:(10cm) Drywall:976607',$,$,#277,#278,$,$);
#280=IFCCARTESIANPOINTLIST3D(((0.390691864,10.861515201,0.1),(0.390691864,10.861515201,3.),(0.390691864,11.683515201,0.1),(0.390691864,11.683515201,3.),(0.490691864,10.861515201,0.1),(0.490691864,10.861515201,3.),(0.490691864,11.683515201,0.1),(0.490691864,11.683515201,3.)));
#281=IFCTRIANGULATEDFACESET(#280,$,.F.,((6,5,7),(8,6,7),(8,7,3),(4,8,3),(4,3,1),(2,4,1),(2,1,5),(6,2,5),(3,7,5),(1,3,5),(6,8,4),(6,4,2)),$);
#282=IFCSTYLEDITEM(#281,(#20),$);
#283=IFCSHAPEREPRESENTATION(#6,'Body','Tessellation',(#281));
#284=IFCLOCALPLACEMENT(#9,#5);
#285=IFCPRODUCTDEFINITIONSHAPE($,$,(#283));
#286=IFCWALL('3qeiF73TD1uOeHIcNGcU7L',$,'Basic Wall:(10cm) Drywall:976743',$,$,#284,#285,$,$);
#287=IFCCARTESIANPOINTLIST3D(((0.490691864,10.861515201,0.1),(0.490691864,10.861515201,3.),(0.490691864,10.961515201,0.1),(0.490691864,10.961515201,3.),(1.080689339,10.861515201,0.1),(1.080689339,10.861515201,3.),(1.080689339,10.961515201,0.1),(1.080689339,10.961515201,3.)));
#288=IFCTRIANGULATEDFACESET(#287,$,.F.,((8,7,3),(4,8,3),(4,3,1),(2,4,1),(2,1,5),(6,2,5),(6,5,7),(8,6,7),(1,3,7),(5,1,7),(8,4,2),(8,2,6)),$);
#289=IFCSTYLEDITEM(#288,(#20),$);
#290=IFCSHAPEREPRESENTATION(#6,'Body','Tessellation',(#288));
#291=IFCLOCALPLACEMENT(#9,#5);
#292=IFCPRODUCTDEFINITIONSHAPE($,$,(#290));
#293=IFCWALL('3qeiF73TD1uOeHIcNGcU5f',$,'Basic Wall:(10cm) Drywall:976859',$,$,#291,#292,$,$);
#294=IFCCARTESIANPOINTLIST3D(((0.390692074,9.256419199,0.1),(0.390692074,9.256419199,3.),(0.390692074,9.356419199,0.1),(0.390692074,9.356419199,3.),(1.080689339,9.256419199,0.1),(1.080689339,9.256419199,3.),(1.080689339,9.356419199,0.1),(1.080689339,9.356419199,3.)));
#295=IFCTRIANGULATEDFACESET(#294,$,.F.,((2,1,5),(6,2,5),(6,5,7),(8,6,7),(8,7,3),(4,8,3),(4,3,1),(2,4,1),(7,5,1),(3,7,1),(2,6,8),(2,8,4)),$);
#296=IFCSTYLEDITEM(#295,(#20),$);
#297=IFCSHAPEREPRESENTATION(#6,'Body','Tessellation',(#295));
#298=IFCLOCALPLACEMENT(#9,#5);
#299=IFCPRODUCTDEFINITIONSHAPE($,$,(#297));
#300=IFCWALL('3qeiF73TD1uOeHIcNGcUyj',$,'Basic Wall:(10cm) Drywall:977311',$,$,#298,#299,$,$);
#301=IFCCARTESIANPOINTLIST3D(((0.490692074,7.261515201,0.1),(0.490692074,7.261515201,3.),(0.490692074,7.361515201,0.1),(0.490692074,7.361515201,3.),(1.180689339,7.261515201,0.1),(1.180689339,7.261515201,3.),(1.180689339,7.361515201,0.1),(1.180689339,7.361515201,3.)));
#302=IFCTRIANGULATEDFACESET(#301,$,.F.,((8,7,3),(4,8,3),(4,3,1),(2,4,1),(2,1,5),(6,2,5),(6,5,7),(8,6,7),(1,3,7),(5,1,7),(8,4,2),(8,2,6)),$);
#303=IFCSTYLEDITEM(#302,(#20),$);
#304=IFCSHAPEREPRESENTATION(#6,'Body','Tessellation',(#302));
#305=IFCLOCALPLACEMENT(#9,#5);
#306=IFCPRODUCTDEFINITIONSHAPE($,$,(#304));
#307=IFCWALL('3qeiF73TD1uOeHIcNGcUXS',$,'Basic Wall:(10cm) Drywall:978670',$,$,#305,#306,$,$);
#308=IFCCARTESIANPOINTLIST3D(((1.080689339,7.361515201,0.1),(1.080689339,7.361515201,3.),(1.080689339,9.3589672,0.1),(1.080689339,9.3589672,2.3),(1.080689339,10.8589672,0.1),(1.080689339,10.8589672,2.3),(1.080689339,11.783514597,0.1),(1.080689339,11.783514597,2.3),(1.080689339,13.283514597,0.1),(1.080689339,13.283514597,2.3),(1.080689339,14.683515201,0.1),(1.080689339,14.683515201,3.),(1.180689339,7.361515201,0.1),(1.180689339,7.361515201,3.),(1.180689339,9.3589672,0.1),(1.180689339,9.3589672,2.3),(1.180689339,10.8589672,0.1),(1.180689339,10.8589672,2.3),(1.180689339,11.783514597,0.1),(1.180689339,11.783514597,2.3),(1.180689339,13.283514597,0.1),(1.180689339,13.283514597,2.3),(1.180689339,14.683515201,0.1),(1.180689339,14.683515201,3.)));
#309=IFCTRIANGULATEDFACESET(#308,$,.F.,((15,13,1),(15,1,3),(16,15,3),(16,3,4),(18,16,4),(18,4,6),(17,18,6),(17,6,5),(19,17,5),(19,5,7),(20,19,7),(20,7,8),(22,20,8),(22,8,10),(21,22,10),(21,10,9),(23,21,9),(23,9,11),(24,23,11),(24,11,12),(2,14,24),(12,2,24),(1,13,14),(2,1,14),(16,14,13),(14,16,18),(16,13,15),(18,17,19),(20,18,19),(20,22,24),(14,18,24),(18,20,24),(22,21,23),(24,22,23),(1,2,4),(6,4,2),(3,1,4),(7,5,6),(7,6,8),(12,10,8),(12,6,2),(12,8,6),(11,9,10),(11,10,12)),$);
#310=IFCSTYLEDITEM(#309,(#20),$);
#311=IFCSHAPEREPRESENTATION(#6,'Body','Tessellation',(#309));
#312=IFCLOCALPLACEMENT(#9,#5);
#313=IFCPRODUCTDEFINITIONSHAPE($,$,(#311));
#314=IFCWALL('3qeiF73TD1uOeHIcNGcVOd',$,'Basic Wall:(10cm) Drywall:979093',$,$,#312,#313,$,$);
#315=IFCCARTESIANPOINTLIST3D(((-2.11972003,1.383515201,0.1),(-2.11972003,1.383515201,3.),(-2.11972003,2.783515201,0.1),(-2.11972003,2.783515201,2.3),(-2.11972003,4.283515201,0.1),(-2.11972003,4.283515201,2.3),(-2.11972003,5.783515201,0.1),(-2.11972003,5.783515201,2.3),(-2.11972003,7.283515201,0.1),(-2.11972003,7.283515201,2.3),(-2.11972003,8.783515445,0.1),(-2.11972003,8.783515445,2.3),(-2.11972003,10.283515445,0.1),(-2.11972003,10.283515445,2.3),(-2.11972003,11.783528185,0.1),(-2.11972003,11.783528185,3.),(-2.01972003,1.383515201,0.1),(-2.01972003,1.383515201,3.),(-2.01972003,2.783515201,0.1),(-2.01972003,2.783515201,2.3),(-2.01972003,4.283515201,0.1),(-2.01972003,4.283515201,2.3),(-2.01972003,5.783515201,0.1),(-2.01972003,5.783515201,2.3),(-2.01972003,7.283515201,0.1),(-2.01972003,7.283515201,2.3),(-2.01972003,8.783515445,0.1),(-2.01972003,8.783515445,2.3),(-2.01972003,10.283515445,0.1),(-2.01972003,10.283515445,2.3),(-2.01972003,11.783528185,0.1),(-2.01972003,11.783528185,3.)));
#316=IFCTRIANGULATEDFACESET(#315,$,.F.,((19,17,1),(19,1,3),(20,19,3),(20,3,4),(22,20,4),(22,4,6),(21,22,6),(21,6,5),(23,21,5),(23,5,7),(24,23,7),(24,7,8),(10,24,8),(26,24,10),(25,26,10),(25,10,9),(27,25,9),(27,9,11),(28,27,11),(28,11,12),(30,28,12),(30,12,14),(29,30,14),(29,14,13),(31,29,13),(31,13,15),(32,31,15),(32,15,16),(2,18,32),(16,2,32),(1,17,18),(2,1,18),(20,18,17),(18,20,22),(20,17,19),(18,22,24),(24,22,21),(18,24,26),(24,21,23),(26,25,27),(28,26,27),(28,30,32),(18,26,32),(26,28,32),(30,29,31),(32,30,31),(1,2,4),(6,4,2),(3,1,4),(8,6,2),(5,6,8),(10,8,2),(7,5,8),(11,9,10),(11,10,12),(16,14,12),(16,10,2),(16,12,10),(15,13,14),(15,14,16)),$);
#317=IFCSTYLEDITEM(#316,(#20),$);
#318=IFCSHAPEREPRESENTATION(#6,'Body','Tessellation',(#316));
#319=IFCLOCALPLACEMENT(#9,#5);
#320=IFCPRODUCTDEFINITIONSHAPE($,$,(#318));
#321=IFCWALL('0oqzbjvSb0$vZTZRUtb1Sf',$,'Basic Wall:(10cm) Drywall:980786',$,$,#319,#320,$,$);
#322=IFCCARTESIANPOINTLIST3D(((-2.809320155,10.283515445,0.1),(-2.809320155,10.283515445,3.),(-2.809320155,11.783528185,0.1),(-2.809320155,11.783528185,2.3),(-2.809320155,13.283528185,0.1),(-2.809320155,13.283528185,2.3),(-2.809320155,14.683515445,0.1),(-2.809320155,14.683515445,3.),(-2.709320155,10.283515445,0.1),(-2.709320155,10.283515445,3.),(-2.709320155,11.783528185,0.1),(-2.709320155,11.783528185,2.3),(-2.709320155,13.283528185,0.1),(-2.709320155,13.283528185,2.3),(-2.709320155,14.683515445,0.1),(-2.709320155,14.683515445,3.)));
#323=IFCTRIANGULATEDFACESET(#322,$,.F.,((5,7,15),(5,15,13),(6,5,13),(6,13,14),(4,6,14),(4,14,12),(3,4,12),(3,12,11),(1,3,11),(1,11,9),(2,1,9),(2,9,10),(16,8,2),(10,16,2),(15,7,8),(16,15,8),(6,8,7),(8,6,4),(6,7,5),(8,4,2),(4,3,1),(2,4,1),(15,16,14),(12,14,16),(13,15,14),(10,12,16),(9,11,12),(9,12,10)),$);
#324=IFCSTYLEDITEM(#323,(#20),$);
#325=IFCSHAPEREPRESENTATION(#6,'Body','Tessellation',(#323));
#326=IFCLOCALPLACEMENT(#9,#5);
#327=IFCPRODUCTDEFINITIONSHAPE($,$,(#325));
#328=IFCWALL('0oqzbjvSb0$vZTZRUtb1Yl',$,'Basic Wall:(10cm) Drywall:981172',$,$,#326,#327,$,$);
#329=IFCCARTESIANPOINTLIST3D(((-2.709320155,10.283515445,0.1),(-2.709320155,10.283515445,3.),(-2.709320155,10.383515445,0.1),(-2.709320155,10.383515445,3.),(-2.11972003,10.283515445,0.1),(-2.11972003,10.283515445,3.),(-2.11972003,10.383515445,0.1),(-2.11972003,10.383515445,3.)));
#330=IFCTRIANGULATEDFACESET(#329,$,.F.,((8,7,3),(4,8,3),(4,3,1),(2,4,1),(2,1,5),(6,2,5),(6,5,7),(8,6,7),(1,3,7),(5,1,7),(8,4,2),(8,2,6)),$);
#331=IFCSTYLEDITEM(#330,(#20),$);
#332=IFCSHAPEREPRESENTATION(#6,'Body','Tessellation',(#330));
#333=IFCLOCALPLACEMENT(#9,#5);
#334=IFCPRODUCTDEFINITIONSHAPE($,$,(#332));
#335=IFCWALL('0oqzbjvSb0$vZTZRUtb1ZX',$,'Basic Wall:(10cm) Drywall:981242',$,$,#333,#334,$,$);
#336=IFCCARTESIANPOINTLIST3D(((-2.709320155,11.683528185,0.1),(-2.709320155,11.683528185,3.),(-2.709320155,11.783528185,0.1),(-2.709320155,11.783528185,3.),(-2.11972003,11.683528185,0.1),(-2.11972003,11.683528185,3.),(-2.11972003,11.783528185,0.1),(-2.11972003,11.783528185,3.)));
#337=IFCTRIANGULATEDFACESET(#336,$,.F.,((8,7,3),(4,8,3),(4,3,1),(2,4,1),(2,1,5),(6,2,5),(6,5,7),(8,6,7),(1,3,7),(5,1,7),(8,4,2),(8,2,6)),$);
#338=IFCSTYLEDITEM(#337,(#20),$);
#339=IFCSHAPEREPRESENTATION(#6,'Body','Tessellation',(#337));
#340=IFCLOCALPLACEMENT(#9,#5);
#341=IFCPRODUCTDEFINITIONSHAPE($,$,(#339));
#342=IFCWALL('0oqzbjvSb0$vZTZRUtb1dQ',$,'Basic Wall:(10cm) Drywall:981441',$,$,#340,#341,$,$);
#343=IFCCARTESIANPOINTLIST3D(((-2.709320155,13.283528185,0.1),(-2.709320155,13.283528185,3.),(-2.709320155,13.383528185,0.1),(-2.709320155,13.383528185,3.),(-2.014810113,13.283528185,0.1),(-2.014810113,13.283528185,3.),(-2.014810113,13.383528185,0.1),(-2.014810113,13.383528185,3.)));
#344=IFCTRIANGULATEDFACESET(#343,$,.F.,((8,7,3),(4,8,3),(4,3,1),(2,4,1),(2,1,5),(6,2,5),(6,5,7),(8,6,7),(1,3,7),(5,1,7),(8,4,2),(8,2,6)),$);
#345=IFCSTYLEDITEM(#344,(#20),$);
#346=IFCSHAPEREPRESENTATION(#6,'Body','Tessellation',(#344));
#347=IFCLOCALPLACEMENT(#9,#5);
#348=IFCPRODUCTDEFINITIONSHAPE($,$,(#346));
#349=IFCWALL('0oqzbjvSb0$vZTZRUtb1gx',$,'Basic Wall:(10cm) Drywall:981664',$,$,#347,#348,$,$);
#350=IFCCARTESIANPOINTLIST3D(((-2.809319879,7.283515201,0.1),(-2.809319879,7.283515201,3.),(-2.809319879,7.383515201,0.1),(-2.809319879,7.383515201,3.),(-2.11972003,7.283515201,0.1),(-2.11972003,7.283515201,3.),(-2.11972003,7.383515201,0.1),(-2.11972003,7.383515201,3.)));
#351=IFCTRIANGULATEDFACESET(#350,$,.F.,((2,1,5),(6,2,5),(6,5,7),(8,6,7),(8,7,3),(4,8,3),(4,3,1),(2,4,1),(7,5,1),(3,7,1),(2,6,8),(2,8,4)),$);
#352=IFCSTYLEDITEM(#351,(#20),$);
#353=IFCSHAPEREPRESENTATION(#6,'Body','Tessellation',(#351));
#354=IFCLOCALPLACEMENT(#9,#5);
#355=IFCPRODUCTDEFINITIONSHAPE($,$,(#353));
#356=IFCWALL('0oqzbjvSb0$vZTZRUtb1kd',$,'Basic Wall:(10cm) Drywall:981948',$,$,#354,#355,$,$);
#357=IFCCARTESIANPOINTLIST3D(((-2.809319879,7.383515201,0.1),(-2.809319879,7.383515201,3.),(-2.809319879,8.783515201,0.1),(-2.809319879,8.783515201,3.),(-2.709319879,7.383515201,0.1),(-2.709319879,7.383515201,3.),(-2.709319879,8.783515201,0.1),(-2.709319879,8.783515201,3.)));
#358=IFCTRIANGULATEDFACESET(#357,$,.F.,((4,3,1),(2,4,1),(2,1,5),(6,2,5),(6,5,7),(8,6,7),(8,7,3),(4,8,3),(5,1,3),(7,5,3),(4,2,6),(4,6,8)),$);
#359=IFCSTYLEDITEM(#358,(#20),$);
#360=IFCSHAPEREPRESENTATION(#6,'Body','Tessellation',(#358));
#361=IFCLOCALPLACEMENT(#9,#5);
#362=IFCPRODUCTDEFINITIONSHAPE($,$,(#360));
#363=IFCWALL('0oqzbjvSb0$vZTZRUtb1mb',$,'Basic Wall:(10cm) Drywall:982078',$,$,#361,#362,$,$);
#364=IFCCARTESIANPOINTLIST3D(((-2.709319879,8.683515201,0.1),(-2.709319879,8.683515201,3.),(-2.709319879,8.783515201,0.1),(-2.709319879,8.783515201,3.),(-2.11972003,8.683515201,0.1),(-2.11972003,8.683515201,3.),(-2.11972003,8.783515201,0.1),(-2.11972003,8.783515201,3.)));
#365=IFCTRIANGULATEDFACESET(#364,$,.F.,((8,7,3),(4,8,3),(4,3,1),(2,4,1),(2,1,5),(6,2,5),(6,5,7),(8,6,7),(1,3,7),(5,1,7),(8,4,2),(8,2,6)),$);
#366=IFCSTYLEDITEM(#365,(#20),$);
#367=IFCSHAPEREPRESENTATION(#6,'Body','Tessellation',(#365));
#368=IFCLOCALPLACEMENT(#9,#5);
#369=IFCPRODUCTDEFINITIONSHAPE($,$,(#367));
#370=IFCWALL('0oqzbjvSb0$vZTZRUtb1nb',$,'Basic Wall:(10cm) Drywall:982142',$,$,#368,#369,$,$);
#371=IFCCARTESIANPOINTLIST3D(((-2.80932003,5.683879454,0.1),(-2.80932003,5.683879454,3.),(-2.80932003,5.783879454,0.1),(-2.80932003,5.783879454,3.),(-2.11972003,5.683879454,0.1),(-2.11972003,5.683879454,3.),(-2.11972003,5.783879454,0.1),(-2.11972003,5.783879454,3.)));
#372=IFCTRIANGULATEDFACESET(#371,$,.F.,((8,7,3),(4,8,3),(4,3,1),(2,4,1),(2,1,5),(6,2,5),(6,5,7),(8,6,7),(1,3,7),(5,1,7),(8,4,2),(8,2,6)),$);
#373=IFCSTYLEDITEM(#372,(#20),$);
#374=IFCSHAPEREPRESENTATION(#6,'Body','Tessellation',(#372));
#375=IFCLOCALPLACEMENT(#9,#5);
#376=IFCPRODUCTDEFINITIONSHAPE($,$,(#374));
#377=IFCWALL('0oqzbjvSb0$vZTZRUtb1rK',$,'Basic Wall:(10cm) Drywall:982351',$,$,#375,#376,$,$);
#378=IFCCARTESIANPOINTLIST3D(((-2.80932003,4.283515201,0.1),(-2.80932003,4.283515201,3.),(-2.80932003,4.383515201,0.1),(-2.80932003,4.383515201,3.),(-2.11972003,4.283515201,0.1),(-2.11972003,4.283515201,3.),(-2.11972003,4.383515201,0.1),(-2.11972003,4.383515201,3.)));
#379=IFCTRIANGULATEDFACESET(#378,$,.F.,((2,1,5),(6,2,5),(6,5,7),(8,6,7),(8,7,3),(4,8,3),(4,3,1),(2,4,1),(7,5,1),(3,7,1),(2,6,8),(2,8,4)),$);
#380=IFCSTYLEDITEM(#379,(#20),$);
#381=IFCSHAPEREPRESENTATION(#6,'Body','Tessellation',(#379));
#382=IFCLOCALPLACEMENT(#9,#5);
#383=IFCPRODUCTDEFINITIONSHAPE($,$,(#381));
#384=IFCWALL('02YF6m7eLAdg$Ov49N6Ccx',$,'Basic Wall:(10cm) Drywall:983725',$,$,#382,#383,$,$);
#385=IFCCARTESIANPOINTLIST3D(((-2.80932003,4.383515201,0.1),(-2.80932003,4.383515201,3.),(-2.80932003,5.683879454,0.1),(-2.80932003,5.683879454,3.),(-2.70932003,4.383515201,0.1),(-2.70932003,4.383515201,3.),(-2.70932003,5.683879454,0.1),(-2.70932003,5.683879454,3.)));
#386=IFCTRIANGULATEDFACESET(#385,$,.F.,((4,3,1),(2,4,1),(2,1,5),(6,2,5),(6,5,7),(8,6,7),(8,7,3),(4,8,3),(5,1,3),(7,5,3),(4,2,6),(4,6,8)),$);
#387=IFCSTYLEDITEM(#386,(#20),$);
#388=IFCSHAPEREPRESENTATION(#6,'Body','Tessellation',(#386));
#389=IFCLOCALPLACEMENT(#9,#5);
#390=IFCPRODUCTDEFINITIONSHAPE($,$,(#388));
#391=IFCWALL('02YF6m7eLAdg$Ov49N6CWu',$,'Basic Wall:(10cm) Drywall:983854',$,$,#389,#390,$,$);
#392=IFCCARTESIANPOINTLIST3D(((-2.114810113,13.383528185,0.1),(-2.114810113,13.383528185,3.),(-2.114810113,13.77651573,0.1),(-2.114810113,13.77651573,3.),(-2.014810113,13.383528185,0.1),(-2.014810113,13.383528185,3.),(-2.014810113,13.77651573,0.1),(-2.014810113,13.77651573,3.)));
#393=IFCTRIANGULATEDFACESET(#392,$,.F.,((4,3,1),(2,4,1),(2,1,5),(6,2,5),(6,5,7),(8,6,7),(8,7,3),(4,8,3),(5,1,3),(7,5,3),(4,2,6),(4,6,8)),$);
#394=IFCSTYLEDITEM(#393,(#20),$);
#395=IFCSHAPEREPRESENTATION(#6,'Body','Tessellation',(#393));
#396=IFCLOCALPLACEMENT(#9,#5);
#397=IFCPRODUCTDEFINITIONSHAPE($,$,(#395));
#398=IFCWALL('3j6v11QKf2WOfL75uASwqW',$,'Basic Wall:(10cm) Drywall:1047423',$,$,#396,#397,$,$);
#399=IFCCARTESIANPOINTLIST3D(((-9.089320202,2.259093843,-1.17),(-9.089320202,2.259093843,0.84),(-9.089320202,7.459093844,-1.17),(-9.089320202,7.459093844,0.84),(-8.889320202,2.259093843,-1.17),(-8.889320202,2.259093843,0.84),(-8.889320202,7.459093844,-1.17),(-8.889320202,7.459093844,0.84)));
#400=IFCTRIANGULATEDFACESET(#399,$,.F.,((6,5,7),(8,6,7),(8,7,3),(4,8,3),(4,3,1),(2,4,1),(2,1,5),(6,2,5),(3,7,5),(1,3,5),(6,8,4),(6,4,2)),$);
#401=IFCSTYLEDITEM(#400,(#20),$);
#402=IFCSHAPEREPRESENTATION(#6,'Body','Tessellation',(#400));
#403=IFCLOCALPLACEMENT(#9,#5);
#404=IFCPRODUCTDEFINITIONSHAPE($,$,(#402));
#405=IFCWALL('0m4dHdJwjEdwQqA272LU9r',$,'Basic Wall:(20cm) Tijolo cer\X2\00E2\X0\mico acabamento pastilha azul:1156417',$,$,#403,#404,$,$);
#406=IFCCARTESIANPOINTLIST3D(((-8.889320202,2.259093843,-1.17),(-8.889320202,2.259093843,0.84),(-8.889320202,2.459093843,-1.17),(-8.889320202,2.459093843,0.84),(-4.289320202,2.259093843,-1.17),(-4.289320202,2.259093843,0.84),(-4.289320202,2.459093843,-1.17),(-4.289320202,2.459093843,0.84)));
#407=IFCTRIANGULATEDFACESET(#406,$,.F.,((8,7,3),(4,8,3),(4,3,1),(2,4,1),(2,1,5),(6,2,5),(6,5,7),(8,6,7),(1,3,7),(5,1,7),(8,4,2),(8,2,6)),$);
#408=IFCSTYLEDITEM(#407,(#20),$);
#409=IFCSHAPEREPRESENTATION(#6,'Body','Tessellation',(#407));
#410=IFCLOCALPLACEMENT(#9,#5);
#411=IFCPRODUCTDEFINITIONSHAPE($,$,(#409));
#412=IFCWALL('0m4dHdJwjEdwQqA272LUAO',$,'Basic Wall:(20cm) Tijolo cer\X2\00E2\X0\mico acabamento pastilha azul:1156524',$,$,#410,#411,$,$);
#413=IFCCARTESIANPOINTLIST3D(((-4.489320202,2.459093843,-1.17),(-4.489320202,2.459093843,0.84),(-4.489320202,7.459093844,-1.17),(-4.489320202,7.459093844,0.84),(-4.289320202,2.459093843,-1.17),(-4.289320202,2.459093843,0.84),(-4.289320202,7.459093844,-1.17),(-4.289320202,7.459093844,0.84)));
#414=IFCTRIANGULATEDFACESET(#413,$,.F.,((4,3,1),(2,4,1),(2,1,5),(6,2,5),(6,5,7),(8,6,7),(8,7,3),(4,8,3),(5,1,3),(7,5,3),(4,2,6),(4,6,8)),$);
#415=IFCSTYLEDITEM(#414,(#20),$);
#416=IFCSHAPEREPRESENTATION(#6,'Body','Tessellation',(#414));
#417=IFCLOCALPLACEMENT(#9,#5);
#418=IFCPRODUCTDEFINITIONSHAPE($,$,(#416));
#419=IFCWALL('0m4dHdJwjEdwQqA272LUB7',$,'Basic Wall:(20cm) Tijolo cer\X2\00E2\X0\mico acabamento pastilha azul:1156595',$,$,#417,#418,$,$);
#420=IFCCARTESIANPOINTLIST3D(((-8.889320202,7.059093844,-1.17),(-8.889320202,7.059093844,0.84),(-8.889320202,7.459093844,-1.17),(-8.889320202,7.459093844,0.84),(-4.489320202,7.059093844,-1.17),(-4.489320202,7.059093844,0.84),(-4.489320202,7.459093844,-1.17),(-4.489320202,7.459093844,0.84)));
#421=IFCTRIANGULATEDFACESET(#420,$,.F.,((8,7,3),(4,8,3),(4,3,1),(2,4,1),(2,1,5),(6,2,5),(6,5,7),(8,6,7),(1,3,7),(5,1,7),(8,4,2),(8,2,6)),$);
#422=IFCSTYLEDITEM(#421,(#20),$);
#423=IFCSHAPEREPRESENTATION(#6,'Body','Tessellation',(#421));
#424=IFCLOCALPLACEMENT(#9,#5);
#425=IFCPRODUCTDEFINITIONSHAPE($,$,(#423));
#426=IFCWALL('0m4dHdJwjEdwQqA272LU3o',$,'Basic Wall:(40cm) Tijolo cer\X2\00E2\X0\mico acabamento pastilha:1157062',$,$,#424,#425,$,$);
#427=IFCCARTESIANPOINTLIST3D(((-9.165754403,12.641487257,2.83),(-9.165754403,12.641487257,2.93),(-9.165754403,13.091487257,2.83),(-9.165754403,13.091487257,2.93),(-2.809320155,12.641487257,2.83),(-2.809320155,12.641487257,2.93),(-2.809320155,13.091487257,2.83),(-2.809320155,13.091487257,2.93)));
#428=IFCTRIANGULATEDFACESET(#427,$,.F.,((8,7,3),(4,8,3),(4,3,1),(2,4,1),(2,1,5),(6,2,5),(6,5,7),(8,6,7),(1,3,7),(5,1,7),(8,4,2),(8,2,6)),$);
#429=IFCSTYLEDITEM(#428,(#20),$);
#430=IFCSHAPEREPRESENTATION(#6,'Body','Tessellation',(#428));
#431=IFCLOCALPLACEMENT(#9,#5);
#432=IFCPRODUCTDEFINITIONSHAPE($,$,(#430));
#433=IFCWALL('0CX_MeLNH88ekhhWV4e$F7',$,'Basic Wall:(45cm) Tijolo cer\X2\00E2\X0\mico acabamento pintura branca 2:1438546',$,$,#431,#432,$,$);
#434=IFCCARTESIANPOINTLIST3D(((-9.615754403,-0.790905295,2.83),(-9.615754403,-0.790905295,2.93),(-9.615754403,19.75151573,2.83),(-9.615754403,19.75151573,2.93),(-9.165754403,-0.790905295,2.83),(-9.165754403,-0.790905295,2.93),(-9.165754403,19.75151573,2.83),(-9.165754403,19.75151573,2.93)));
#435=IFCTRIANGULATEDFACESET(#434,$,.F.,((4,3,1),(2,4,1),(2,1,5),(6,2,5),(6,5,7),(8,6,7),(8,7,3),(4,8,3),(5,1,3),(7,5,3),(4,2,6),(4,6,8)),$);
#436=IFCSTYLEDITEM(#435,(#20),$);
#437=IFCSHAPEREPRESENTATION(#6,'Body','Tessellation',(#435));
#438=IFCLOCALPLACEMENT(#9,#5);
#439=IFCPRODUCTDEFINITIONSHAPE($,$,(#437));
#440=IFCWALL('0CX_MeLNH88ekhhWV4e$QH',$,'Basic Wall:(45cm) Tijolo cer\X2\00E2\X0\mico acabamento pintura branca 2:1439236',$,$,#438,#439,$,$);
#441=IFCCARTESIANPOINTLIST3D(((0.585280721,19.41151573,0.1),(0.585280721,19.41151573,3.),(0.585280721,19.75151573,0.1),(0.585280721,19.75151573,3.),(0.885280721,19.41151573,0.1),(0.885280721,19.41151573,3.),(0.885280721,19.75151573,0.1),(0.885280721,19.75151573,3.)));
#442=IFCTRIANGULATEDFACESET(#441,$,.F.,((6,5,7),(8,6,7),(8,7,3),(4,8,3),(4,3,1),(2,4,1),(2,1,5),(6,2,5),(3,7,5),(1,3,5),(6,8,4),(6,4,2)),$);
#443=IFCSTYLEDITEM(#442,(#20),$);
#444=IFCSHAPEREPRESENTATION(#6,'Body','Tessellation',(#442));
#445=IFCLOCALPLACEMENT(#9,#5);
#446=IFCPRODUCTDEFINITIONSHAPE($,$,(#444));
#447=IFCWALL('33gtcvddH7cec8$WOT4ecj',$,'Basic Wall:(35cm) Tijolo cer\X2\00E2\X0\mico acabamento pintura branca:1534316',$,$,#445,#446,$,$);
#448=IFCCARTESIANPOINTLIST3D(((-9.915754403,-0.940905295,-0.05),(-9.915754403,-0.940905295,0.1),(-9.915754403,19.95151573,-0.05),(-9.915754403,19.95151573,0.1),(-9.289320202,2.059093843,-0.05),(-9.289320202,2.059093843,0.1),(-9.289320202,7.659093844,-0.05),(-9.289320202,7.659093844,0.1),(-4.289320202,2.783515201,-0.05),(-4.289320202,2.783515201,0.1),(-4.289320202,4.199093843,-0.05),(-4.289320202,4.199093843,0.1),(-4.289320202,5.499093843,-0.05),(-4.289320202,5.499093843,0.071425),(-4.289320202,5.525443844,0.071425),(-4.289320202,5.525443844,0.1),(-4.289320202,7.659093844,-0.05),(-4.289320202,7.659093844,0.1),(-3.069320202,4.199093843,-0.05),(-3.069320202,4.199093843,0.1),(-3.069320202,4.199376358,0.071425),(-3.069320202,4.199376358,0.1),(-3.069320202,5.499093843,-0.05),(-3.069320202,5.499093843,0.071425),(-3.069320202,5.499093843,0.1),(-3.069320202,5.525443844,0.071425),(-3.069320202,5.525443844,0.1),(-2.809320202,-1.613519926,-0.05),(-2.809320202,-1.613519926,0.1),(-2.809320202,-0.940905295,-0.05),(-2.809320202,-0.940905295,0.1),(-2.809320202,2.059093843,-0.05),(-2.809320202,2.059093843,0.1),(-2.809320202,2.783515201,-0.05),(-2.809320202,2.783515201,0.1),(-2.169735277,-4.53352002,-0.05),(-2.169735277,-4.53352002,0.1),(-2.169735277,-1.613519926,-0.05),(-2.169735277,-1.613519926,0.1),(1.180689489,-4.53352002,-0.05),(1.180689489,-4.53352002,0.1),(1.180689489,-4.309927044,-0.05),(1.180689489,-4.309927044,0.1),(8.286239344,-4.309927044,-0.05),(8.286239344,-4.309927044,0.1),(8.286239344,19.95151573,-0.05),(8.286239344,19.95151573,0.1)));
#449=IFCTRIANGULATEDFACESET(#448,$,.F.,((3,4,46),(46,4,47),(1,2,4),(3,1,4),(46,47,45),(44,46,45),(41,43,37),(37,43,39),(29,39,31),(43,45,33),(39,43,33),(31,39,33),(33,45,35),(10,35,20),(20,35,22),(10,20,12),(35,45,25),(22,35,25),(25,45,27),(27,45,47),(16,27,18),(27,47,18),(2,6,8),(8,18,4),(18,47,4),(8,4,2),(2,33,6),(31,33,2),(36,42,40),(38,42,36),(30,38,28),(32,44,42),(32,42,38),(32,38,30),(34,44,32),(19,34,9),(11,19,9),(23,34,19),(23,44,34),(46,44,23),(17,23,13),(17,46,23),(7,5,1),(3,17,7),(3,46,17),(1,3,7),(5,32,1),(1,32,30),(30,31,2),(1,30,2),(44,45,43),(42,44,43),(28,29,31),(30,28,31),(42,43,41),(40,42,41),(38,39,29),(28,38,29),(40,41,37),(36,40,37),(36,37,39),(38,36,39),(22,25,24),(22,24,21),(21,24,23),(21,23,19),(20,22,21),(19,20,21),(12,20,19),(12,19,11),(10,12,11),(10,11,9),(35,10,9),(35,9,34),(33,35,34),(33,34,32),(6,33,32),(6,32,5),(8,6,5),(8,5,7),(18,8,7),(18,7,17),(15,18,17),(15,17,13),(14,15,13),(16,18,15),(15,26,27),(15,27,16),(26,24,25),(26,25,27),(24,14,13),(24,13,23),(14,24,26),(14,26,15)),$);
#450=IFCSTYLEDITEM(#449,(#20),$);
#451=IFCSHAPEREPRESENTATION(#6,'Body','Tessellation',(#449));
#452=IFCLOCALPLACEMENT(#9,#5);
#453=IFCPRODUCTDEFINITIONSHAPE($,$,(#451));
#454=IFCSLAB('3XP_HdJcfD9xJPuaOu_0Jb',$,'Floor:(15cm) Piso + Porcelanato cinza claro 60 X 60:911079',$,$,#452,#453,$,$);
#455=IFCCARTESIANPOINTLIST3D(((-2.064735755,17.376489135,1.997058824),(-2.064735755,17.376489135,2.097058824),(-2.064735755,17.376489135,2.147058824),(-2.064735755,19.75151573,1.997058824),(-2.064735755,19.75151573,2.097058824),(-2.064735755,19.75151573,2.147058824),(-0.774730686,17.376489135,1.997058824),(-0.774730686,17.376489135,2.097058824),(-0.774730686,17.376489135,2.147058824),(-0.624730921,17.376489135,1.750824631),(-0.624730921,17.376489135,1.926470588),(-0.624730921,17.376489135,1.997058824),(-0.624730921,17.376489135,2.097058824),(-0.624730921,17.376489135,2.147058824),(-0.624730921,17.780652844,1.997058824),(0.435280721,17.376489135,1.750824631),(0.435280721,17.376489135,1.926470588),(0.435280721,17.376489135,2.097058824),(0.435280721,17.376489135,2.147058824),(0.435280721,17.780652844,1.997058824),(0.435280721,17.780652844,2.097058824),(0.435280721,19.75151573,1.997058824),(0.435280721,19.75151573,2.097058824),(0.435280721,19.75151573,2.147058824)));
#456=IFCTRIANGULATEDFACESET(#455,$,.F.,((6,3,9),(24,14,19),(24,9,14),(24,6,9),(23,13,8),(23,18,13),(5,8,2),(5,23,8),(18,19,14),(18,14,13),(24,19,18),(24,18,23),(24,23,5),(24,5,6),(2,3,6),(2,6,5),(8,9,3),(8,3,2),(13,14,9),(13,9,8),(5,2,8),(21,13,18),(23,8,13),(23,5,8),(23,13,21),(18,13,12),(17,12,11),(17,18,12),(16,11,10),(16,17,11),(20,18,17),(20,17,16),(21,18,20),(23,20,22),(23,21,20),(23,22,4),(23,4,5),(1,2,5),(1,5,4),(7,8,2),(7,2,1),(12,13,8),(12,8,7),(15,12,7),(22,20,15),(1,15,7),(4,22,15),(4,15,1),(15,20,16),(10,15,16),(11,15,10),(12,15,11)),$);
#457=IFCSTYLEDITEM(#456,(#20),$);
#458=IFCSHAPEREPRESENTATION(#6,'Body','Tessellation',(#456));
#459=IFCLOCALPLACEMENT(#9,#5);
#460=IFCPRODUCTDEFINITIONSHAPE($,$,(#458));
#461=IFCSLAB('3qeiF73TD1uOeHIcNGcUKc',$,'Cast-In-Place Stair:Stair:975096 Landing 1',$,$,#459,#460,$,$);
#462=IFCCARTESIANPOINTLIST3D(((-8.889320202,2.459093843,-1.17),(-8.889320202,2.459093843,-1.02),(-8.889320202,7.059093844,-1.17),(-8.889320202,7.059093844,-1.02),(-4.489320202,2.459093843,-1.17),(-4.489320202,2.459093843,-1.02),(-4.489320202,7.059093844,-1.17),(-4.489320202,7.059093844,-1.02)));
#463=IFCTRIANGULATEDFACESET(#462,$,.F.,((1,2,4),(3,1,4),(3,4,8),(7,3,8),(7,8,6),(5,7,6),(5,6,2),(1,5,2),(4,2,8),(2,6,8),(7,1,3),(7,5,1)),$);
#464=IFCSTYLEDITEM(#463,(#20),$);
#465=IFCSHAPEREPRESENTATION(#6,'Body','Tessellation',(#463));
#466=IFCLOCALPLACEMENT(#9,#5);
#467=IFCPRODUCTDEFINITIONSHAPE($,$,(#465));
#468=IFCSLAB('0m4dHdJwjEdwQqA272LUIb',$,'Floor:(15cm) Piso + Pastilha azul:1155985',$,$,#466,#467,$,$);
#469=IFCCARTESIANPOINTLIST3D(((-9.289320202,2.059093843,-0.14),(-9.289320202,2.059093843,-0.02),(-9.289320202,7.659093844,-0.14),(-9.289320202,7.659093844,-0.02),(-9.089320202,2.259093843,-0.14),(-9.089320202,2.259093843,-0.02),(-9.089320202,7.459093844,-0.14),(-9.089320202,7.459093844,-0.02),(-4.289320202,2.259093843,-0.14),(-4.289320202,2.259093843,-0.02),(-4.289320202,2.783515201,-0.14),(-4.289320202,2.783515201,-0.02),(-4.289320202,7.459093844,-0.14),(-4.289320202,7.459093844,-0.02),(-4.289320202,7.659093844,-0.14),(-4.289320202,7.659093844,-0.02),(-2.809320202,2.059093843,-0.14),(-2.809320202,2.059093843,-0.02),(-2.809320202,2.783515201,-0.14),(-2.809320202,2.783515201,-0.02)));
#470=IFCTRIANGULATEDFACESET(#469,$,.F.,((1,2,4),(3,1,4),(3,4,16),(15,3,16),(15,16,14),(13,15,14),(13,14,8),(7,13,8),(7,8,6),(5,7,6),(5,6,10),(9,5,10),(9,10,12),(11,9,12),(11,12,20),(19,11,20),(19,20,18),(17,19,18),(17,18,2),(1,17,2),(6,2,10),(4,2,8),(2,6,8),(12,10,20),(10,18,20),(8,14,16),(4,8,16),(10,2,18),(9,1,5),(7,1,3),(7,5,1),(19,9,11),(19,17,9),(15,13,7),(15,7,3),(17,1,9)),$);
#471=IFCSTYLEDITEM(#470,(#20),$);
#472=IFCSHAPEREPRESENTATION(#6,'Body','Tessellation',(#470));
#473=IFCLOCALPLACEMENT(#9,#5);
#474=IFCPRODUCTDEFINITIONSHAPE($,$,(#472));
#475=IFCSLAB('1rv7r_bWn3AP4mJITwGEQ5',$,'Floor:(12cm) Laje:1305914',$,$,#473,#474,$,$);
#476=IFCCARTESIANPOINTLIST3D(((-4.289320202,4.199093843,-0.14),(-4.289320202,4.199093843,-0.02),(-4.289320202,5.499093843,-0.14),(-4.289320202,5.499093843,-0.02),(-3.069320202,4.199093843,-0.14),(-3.069320202,4.199093843,-0.02),(-3.069320202,5.499093843,-0.14),(-3.069320202,5.499093843,-0.02)));
#477=IFCTRIANGULATEDFACESET(#476,$,.F.,((1,2,4),(3,1,4),(3,4,8),(7,3,8),(7,8,6),(5,7,6),(5,6,2),(1,5,2),(4,2,8),(2,6,8),(7,1,3),(7,5,1)),$);
#478=IFCSTYLEDITEM(#477,(#20),$);
#479=IFCSHAPEREPRESENTATION(#6,'Body','Tessellation',(#477));
#480=IFCLOCALPLACEMENT(#9,#5);
#481=IFCPRODUCTDEFINITIONSHAPE($,$,(#479));
#482=IFCSLAB('1rv7r_bWn3AP4mJITwGFWy',$,'Floor:(12cm) Laje:1307523',$,$,#480,#481,$,$);
#483=IFCRELCONTAINEDINSPATIALSTRUCTURE('21A06fRXv8JuJScc9VXZHk',$,$,$,(#468,#475,#482),#14);
#484=IFCRELCONTAINEDINSPATIALSTRUCTURE('0PSxHaX2585PHoEHV0JCgi',$,$,$,(#27,#34,#41,#48,#55,#62,#69,#76,#83,#90,#97,#104,#111,#118,#125,#132,#139,#146,#153,#160,#167,#174,#181,#188,#195,#202,#209,#216,#223,#230,#237,#244,#251,#258,#265,#272,#279,#286,#293,#300,#307,#314,#321,#328,#335,#342,#349,#356,#363,#370,#377,#384,#391,#398,#405,#412,#419,#426,#433,#440,#447,#454),#16);
ENDSEC;
END-ISO-10303-21;
