ISO-10303-21;
HEADER;
FILE_DESCRIPTION(('annotation creation contract','Re-exported by ifc-lite, 174 modifications'),'2;1');
FILE_NAME('export.ifc','2026-09-12T14:45:45',(''),(''),'ifc-lite','ifc-lite','');
FILE_SCHEMA(('IFC4'));
ENDSEC;
DATA;
#1=IFCPROJECT('0Project000000000000000',$,'P',$,$,$,$,(#2),#3);
#2=IFCGEOMETRICREPRESENTATIONCONTEXT($,'Model',3,1.0E-5,#5,$);
#3=IFCUNITASSIGNMENT((#6));
#4=IFCCARTESIANPOINT((0.,0.,0.));
#5=IFCAXIS2PLACEMENT3D(#4,$,$);
#6=IFCSIUNIT(*,.LENGTHUNIT.,$,.METRE.);
#40=IFCBUILDINGSTOREY('0Storey0000000000000000',$,'Level',$,$,#41,$,$,.ELEMENT.,0.);
#41=IFCLOCALPLACEMENT($,#5);
#42=IFCRELAGGREGATES('0ccccccccccccccccccccc',$,$,$,#50,(#40));
#50=IFCBUILDING('0ddddddddddddddddddddd',$,'Building',$,$,#41,$,$,.ELEMENT.,$,$,$);
#51=IFCSPACE('0eeeeeeeeeeeeeeeeeeeee',$,'Room',$,$,#41,$,$,.ELEMENT.,.INTERNAL.,$);
#52=IFCRELAGGREGATES('0fffffffffffffffffffff',$,$,$,#1,(#50));
#53=IFCRELAGGREGATES('0ggggggggggggggggggggg',$,$,$,#40,(#51));
#54=IFCCARTESIANPOINT((2.,3.,4.));
#55=IFCDIRECTION((0.,-1.,0.));
#56=IFCDIRECTION((1.,0.,0.));
#57=IFCAXIS2PLACEMENT3D(#54,#55,#56);
#58=IFCLOCALPLACEMENT(#41,#57);
#59=IFCCARTESIANPOINT((0.6666667968749997,2.3666666666666667,0.));
#60=IFCCARTESIANPOINT((0.6666667968749997,2.299999869791667,0.));
#61=IFCCARTESIANPOINT((0.8999999999999997,2.299999869791667,0.));
#62=IFCCARTESIANPOINT((0.8999999999999997,2.3666666666666667,0.));
#63=IFCPOLYLINE((#59,#60,#61,#62,#59));
#64=IFCANNOTATIONFILLAREA(#63,$);
#65=IFCCOLOURRGB($,0.,0.,1.);
#66=IFCFILLAREASTYLE('PDF solid fill',(#65),.T.);
#67=IFCSTYLEDITEM(#64,(#66),$);
#68=IFCCARTESIANPOINT((1.2333332031249997,2.3666666666666667,0.));
#69=IFCCARTESIANPOINT((1.2333332031249997,2.299999869791667,0.));
#70=IFCCARTESIANPOINT((1.4999999999999998,2.299999869791667,0.));
#71=IFCCARTESIANPOINT((1.4999999999999998,2.3666666666666667,0.));
#72=IFCPOLYLINE((#68,#69,#70,#71,#68));
#73=IFCANNOTATIONFILLAREA(#72,$);
#74=IFCCOLOURRGB($,0.,0.,1.);
#75=IFCFILLAREASTYLE('PDF solid fill',(#74),.T.);
#76=IFCSTYLEDITEM(#73,(#75),$);
#77=IFCCARTESIANPOINT((1.9666667968749998,2.1666666666666665,0.));
#78=IFCCARTESIANPOINT((1.9666667968749998,2.0333334635416667,0.));
#79=IFCCARTESIANPOINT((2.233333203125,2.0333334635416667,0.));
#80=IFCCARTESIANPOINT((2.233333203125,2.0999998697916666,0.));
#81=IFCCARTESIANPOINT((2.0333332031249998,2.0999998697916666,0.));
#82=IFCCARTESIANPOINT((2.0333332031249998,2.1666666666666665,0.));
#83=IFCPOLYLINE((#77,#78,#79,#80,#81,#82,#77));
#84=IFCANNOTATIONFILLAREA(#83,$);
#85=IFCCOLOURRGB($,0.,0.,1.);
#86=IFCFILLAREASTYLE('PDF solid fill',(#85),.T.);
#87=IFCSTYLEDITEM(#84,(#86),$);
#88=IFCCARTESIANPOINT((1.9666667968749998,2.7666666666666666,0.));
#89=IFCCARTESIANPOINT((1.9666667968749998,2.499999869791667,0.));
#90=IFCCARTESIANPOINT((2.0333332031249998,2.499999869791667,0.));
#91=IFCCARTESIANPOINT((2.0333332031249998,2.6999998697916667,0.));
#92=IFCCARTESIANPOINT((2.0999999999999996,2.6999998697916667,0.));
#93=IFCCARTESIANPOINT((2.0999999999999996,2.7666666666666666,0.));
#94=IFCPOLYLINE((#88,#89,#90,#91,#92,#93,#88));
#95=IFCANNOTATIONFILLAREA(#94,$);
#96=IFCCOLOURRGB($,0.,0.,1.);
#97=IFCFILLAREASTYLE('PDF solid fill',(#96),.T.);
#98=IFCSTYLEDITEM(#95,(#97),$);
#99=IFCCARTESIANPOINT((2.4333332031249997,2.7666666666666666,0.));
#100=IFCCARTESIANPOINT((2.4333332031249997,2.6999998697916667,0.));
#101=IFCCARTESIANPOINT((2.633333203125,2.6999998697916667,0.));
#102=IFCCARTESIANPOINT((2.633333203125,2.6333334635416668,0.));
#103=IFCCARTESIANPOINT((2.6999999999999997,2.6333334635416668,0.));
#104=IFCCARTESIANPOINT((2.6999999999999997,2.7666666666666666,0.));
#105=IFCPOLYLINE((#99,#100,#101,#102,#103,#104,#99));
#106=IFCANNOTATIONFILLAREA(#105,$);
#107=IFCCOLOURRGB($,0.,0.,1.);
#108=IFCFILLAREASTYLE('PDF solid fill',(#107),.T.);
#109=IFCSTYLEDITEM(#106,(#108),$);
#110=IFCCARTESIANPOINT((2.566666796875,2.0999998697916666,0.));
#111=IFCCARTESIANPOINT((2.566666796875,2.0333334635416667,0.));
#112=IFCCARTESIANPOINT((2.6999999999999997,2.0333334635416667,0.));
#113=IFCCARTESIANPOINT((2.6999999999999997,2.299999869791667,0.));
#114=IFCCARTESIANPOINT((2.633333203125,2.299999869791667,0.));
#115=IFCCARTESIANPOINT((2.633333203125,2.0999998697916666,0.));
#116=IFCPOLYLINE((#110,#111,#112,#113,#114,#115,#110));
#117=IFCANNOTATIONFILLAREA(#116,$);
#118=IFCCOLOURRGB($,0.,0.,1.);
#119=IFCFILLAREASTYLE('PDF solid fill',(#118),.T.);
#120=IFCSTYLEDITEM(#117,(#119),$);
#121=IFCCARTESIANPOINT((1.7999999999999998,1.4333334635416666,0.));
#122=IFCCARTESIANPOINT((1.7999999999999998,1.0999998697916666,0.));
#123=IFCCARTESIANPOINT((1.8666667968749997,1.0999998697916666,0.));
#124=IFCCARTESIANPOINT((1.8666667968749997,1.4333334635416666,0.));
#125=IFCPOLYLINE((#121,#122,#123,#124,#121));
#126=IFCANNOTATIONFILLAREA(#125,$);
#127=IFCCOLOURRGB($,0.,0.,1.);
#128=IFCFILLAREASTYLE('PDF solid fill',(#127),.T.);
#129=IFCSTYLEDITEM(#126,(#128),$);
#130=IFCCARTESIANPOINT((1.9333332031249997,1.6999998697916667,0.));
#131=IFCCARTESIANPOINT((1.9333332031249997,1.6333334635416668,0.));
#132=IFCCARTESIANPOINT((2.2666667968749996,1.6333334635416668,0.));
#133=IFCCARTESIANPOINT((2.2666667968749996,1.6999998697916667,0.));
#134=IFCPOLYLINE((#130,#131,#132,#133,#130));
#135=IFCANNOTATIONFILLAREA(#134,$);
#136=IFCCOLOURRGB($,0.,0.,1.);
#137=IFCFILLAREASTYLE('PDF solid fill',(#136),.T.);
#138=IFCSTYLEDITEM(#135,(#137),$);
#139=IFCCARTESIANPOINT((2.066666796875,1.0333334635416667,0.));
#140=IFCCARTESIANPOINT((2.066666796875,0.9666666666666667,0.));
#141=IFCCARTESIANPOINT((2.4,0.9666666666666667,0.));
#142=IFCCARTESIANPOINT((2.4,1.0333334635416667,0.));
#143=IFCPOLYLINE((#139,#140,#141,#142,#139));
#144=IFCANNOTATIONFILLAREA(#143,$);
#145=IFCCOLOURRGB($,0.,0.,1.);
#146=IFCFILLAREASTYLE('PDF solid fill',(#145),.T.);
#147=IFCSTYLEDITEM(#144,(#146),$);
#148=IFCCARTESIANPOINT((2.466666796875,1.5666666666666667,0.));
#149=IFCCARTESIANPOINT((2.466666796875,1.2333334635416666,0.));
#150=IFCCARTESIANPOINT((2.5333332031249998,1.2333334635416666,0.));
#151=IFCCARTESIANPOINT((2.5333332031249998,1.5666666666666667,0.));
#152=IFCPOLYLINE((#148,#149,#150,#151,#148));
#153=IFCANNOTATIONFILLAREA(#152,$);
#154=IFCCOLOURRGB($,0.,0.,1.);
#155=IFCFILLAREASTYLE('PDF solid fill',(#154),.T.);
#156=IFCSTYLEDITEM(#153,(#155),$);
#157=IFCCARTESIANPOINT((0.6333332031249996,1.0999998697916666,0.));
#158=IFCCARTESIANPOINT((0.6333332031249996,0.9666666666666667,0.));
#159=IFCCARTESIANPOINT((0.8999999999999997,0.9666666666666667,0.));
#160=IFCCARTESIANPOINT((0.8999999999999997,1.0333334635416667,0.));
#161=IFCCARTESIANPOINT((0.6999999999999997,1.0333334635416667,0.));
#162=IFCCARTESIANPOINT((0.6999999999999997,1.0999998697916666,0.));
#163=IFCPOLYLINE((#157,#158,#159,#160,#161,#162,#157));
#164=IFCANNOTATIONFILLAREA(#163,$);
#165=IFCCOLOURRGB($,0.,0.,1.);
#166=IFCFILLAREASTYLE('PDF solid fill',(#165),.T.);
#167=IFCSTYLEDITEM(#164,(#166),$);
#168=IFCCARTESIANPOINT((0.6333332031249996,1.6999998697916667,0.));
#169=IFCCARTESIANPOINT((0.6333332031249996,1.4333334635416666,0.));
#170=IFCCARTESIANPOINT((0.6999999999999997,1.4333334635416666,0.));
#171=IFCCARTESIANPOINT((0.6999999999999997,1.6333334635416668,0.));
#172=IFCCARTESIANPOINT((0.7666667968749996,1.6333334635416668,0.));
#173=IFCCARTESIANPOINT((0.7666667968749996,1.6999998697916667,0.));
#174=IFCPOLYLINE((#168,#169,#170,#171,#172,#173,#168));
#175=IFCANNOTATIONFILLAREA(#174,$);
#176=IFCCOLOURRGB($,0.,0.,1.);
#177=IFCFILLAREASTYLE('PDF solid fill',(#176),.T.);
#178=IFCSTYLEDITEM(#175,(#177),$);
#179=IFCCARTESIANPOINT((1.0999999999999996,1.6999998697916667,0.));
#180=IFCCARTESIANPOINT((1.0999999999999996,1.6333334635416668,0.));
#181=IFCCARTESIANPOINT((1.2999999999999998,1.6333334635416668,0.));
#182=IFCCARTESIANPOINT((1.2999999999999998,1.5666666666666667,0.));
#183=IFCCARTESIANPOINT((1.3666667968749997,1.5666666666666667,0.));
#184=IFCCARTESIANPOINT((1.3666667968749997,1.6999998697916667,0.));
#185=IFCPOLYLINE((#179,#180,#181,#182,#183,#184,#179));
#186=IFCANNOTATIONFILLAREA(#185,$);
#187=IFCCOLOURRGB($,0.,0.,1.);
#188=IFCFILLAREASTYLE('PDF solid fill',(#187),.T.);
#189=IFCSTYLEDITEM(#186,(#188),$);
#190=IFCCARTESIANPOINT((1.2333332031249997,1.0333334635416667,0.));
#191=IFCCARTESIANPOINT((1.2333332031249997,0.9666666666666667,0.));
#192=IFCCARTESIANPOINT((1.3666667968749997,0.9666666666666667,0.));
#193=IFCCARTESIANPOINT((1.3666667968749997,1.2333334635416666,0.));
#194=IFCCARTESIANPOINT((1.2999999999999998,1.2333334635416666,0.));
#195=IFCCARTESIANPOINT((1.2999999999999998,1.0333334635416667,0.));
#196=IFCPOLYLINE((#190,#191,#192,#193,#194,#195,#190));
#197=IFCANNOTATIONFILLAREA(#196,$);
#198=IFCCOLOURRGB($,0.,0.,1.);
#199=IFCFILLAREASTYLE('PDF solid fill',(#198),.T.);
#200=IFCSTYLEDITEM(#197,(#199),$);
#201=IFCSHAPEREPRESENTATION(#2,'Annotation','Annotation2D',(#64,#73,#84,#95,#106,#117,#126,#135,#144,#153,#164,#175,#186,#197));
#202=IFCPRODUCTDEFINITIONSHAPE($,$,(#201));
#203=IFCANNOTATION('0aaaaaaaaaaaaaaaaaaaaa',$,'PDF fidelity evidence control:closedDashesV2','PDF vectors, page 1: exact conversion','IfcLite:PdfVectorFills',#58,#202);
#204=IFCRELCONTAINEDINSPATIALSTRUCTURE('0bbbbbbbbbbbbbbbbbbbbb',$,$,$,(#203),#40);
#205=IFCPROPERTYSINGLEVALUE('SourcePdfSha256',$,IFCIDENTIFIER('4e62b68a2e9d93c260af98386b5fff4dc079f8f457e0cc0a0941f4da24c59d0f'),$);
#206=IFCPROPERTYSINGLEVALUE('SourcePdfFormatVersion',$,IFCLABEL('2.0'),$);
#207=IFCPROPERTYSINGLEVALUE('SourcePageNumber',$,IFCINTEGER(1),$);
#208=IFCPROPERTYSINGLEVALUE('SourceCropBox',$,IFCTEXT('[10.0,20.0,110.0,92.0]'),$);
#209=IFCPROPERTYSINGLEVALUE('SourceUserUnit',$,IFCREAL(2.),$);
#210=IFCPROPERTYSINGLEVALUE('SourceRotation',$,IFCINTEGER(90),$);
#211=IFCPROPERTYSINGLEVALUE('DecoderVersion',$,IFCLABEL('PDF.js 6.3.289'),$);
#212=IFCPROPERTYSINGLEVALUE('CalibrationKey',$,IFCTEXT('synthetic-control-30-pdf-units-per-metre'),$);
#213=IFCPROPERTYSINGLEVALUE('ModelMetresFromPdf',$,IFCTEXT('[0.03333333333333333,0.0,0.0,0.03333333333333333,0.0,0.0]'),$);
#214=IFCPROPERTYSINGLEVALUE('ToleranceMetres',$,IFCREAL(0.0001),$);
#215=IFCPROPERTYSINGLEVALUE('GridSizeMetres',$,IFCREAL(3.90625E-7),$);
#216=IFCPROPERTYSINGLEVALUE('Algorithm',$,IFCLABEL('ifclite-pdf-fill-annotation-v1'),$);
#217=IFCPROPERTYSINGLEVALUE('RequestSha256',$,IFCIDENTIFIER('c910c3468de49d4d023b1bb2fac7b5ae081398673d430ae03ae21445722139c4'),$);
#218=IFCPROPERTYSINGLEVALUE('FidelityAlgorithm',$,IFCLABEL('ifclite-pdf-fidelity-v1'),$);
#219=IFCPROPERTYSINGLEVALUE('FidelitySha256',$,IFCIDENTIFIER('336958c33962538c6cabb6f6e5593492b74457feb6b4596af7262b5db6986651'),$);
#220=IFCPROPERTYSINGLEVALUE('ExactConversion',$,IFCBOOLEAN(.T.),$);
#221=IFCPROPERTYSINGLEVALUE('AcceptedPartialConversion',$,IFCBOOLEAN(.F.),$);
#222=IFCPROPERTYSINGLEVALUE('ConvertedPaths',$,IFCINTEGER(3),$);
#223=IFCPROPERTYSINGLEVALUE('FillRegions',$,IFCINTEGER(14),$);
#224=IFCPROPERTYSINGLEVALUE('OmittedPaints',$,IFCINTEGER(0),$);
#225=IFCPROPERTYSINGLEVALUE('Omissions',$,IFCTEXT('[]'),$);
#226=IFCPROPERTYSET('0cccccccccccccccccccc1',$,'IfcLite_PdfVectorConversion','PDF vector conversion provenance (exact conversion)',(#205,#206,#207,#208,#209,#210,#211,#212,#213,#214,#215,#216,#217,#218,#219,#220,#221,#222,#223,#224,#225));
#227=IFCRELDEFINESBYPROPERTIES('0cccccccccccccccccccc2',$,$,$,(#203),#226);
ENDSEC;
END-ISO-10303-21;
