ISO-10303-21;
HEADER;
FILE_DESCRIPTION(('annotation creation contract','Re-exported by ifc-lite, 178 modifications'),'2;1');
FILE_NAME('export.ifc','2026-09-12T14:45:44',(''),(''),'ifc-lite','ifc-lite','');
FILE_SCHEMA(('IFC4'));
ENDSEC;
DATA;
#1=IFCPROJECT('0Project000000000000000',$,'P',$,$,$,$,(#2),#3);
#2=IFCGEOMETRICREPRESENTATIONCONTEXT($,'Model',3,1.0E-5,#5,$);
#3=IFCUNITASSIGNMENT((#6));
#4=IFCCARTESIANPOINT((0.,0.,0.));
#5=IFCAXIS2PLACEMENT3D(#4,$,$);
#6=IFCSIUNIT(*,.LENGTHUNIT.,$,.METRE.);
#40=IFCBUILDINGSTOREY('0Storey0000000000000000',$,'Level',$,$,#41,$,$,.ELEMENT.,0.);
#41=IFCLOCALPLACEMENT($,#5);
#42=IFCRELAGGREGATES('0ccccccccccccccccccccc',$,$,$,#50,(#40));
#50=IFCBUILDING('0ddddddddddddddddddddd',$,'Building',$,$,#41,$,$,.ELEMENT.,$,$,$);
#51=IFCSPACE('0eeeeeeeeeeeeeeeeeeeee',$,'Room',$,$,#41,$,$,.ELEMENT.,.INTERNAL.,$);
#52=IFCRELAGGREGATES('0fffffffffffffffffffff',$,$,$,#1,(#50));
#53=IFCRELAGGREGATES('0ggggggggggggggggggggg',$,$,$,#40,(#51));
#54=IFCCARTESIANPOINT((2.,3.,4.));
#55=IFCDIRECTION((0.,-1.,0.));
#56=IFCDIRECTION((1.,0.,0.));
#57=IFCAXIS2PLACEMENT3D(#54,#55,#56);
#58=IFCLOCALPLACEMENT(#41,#57);
#59=IFCCARTESIANPOINT((0.6666667968749997,2.3666666666666667,0.));
#60=IFCCARTESIANPOINT((0.6666667968749997,2.299999869791667,0.));
#61=IFCCARTESIANPOINT((0.8999999999999997,2.299999869791667,0.));
#62=IFCCARTESIANPOINT((0.8999999999999997,2.3666666666666667,0.));
#63=IFCPOLYLINE((#59,#60,#61,#62,#59));
#64=IFCANNOTATIONFILLAREA(#63,$);
#65=IFCCOLOURRGB($,0.,0.,1.);
#66=IFCFILLAREASTYLE('PDF solid fill',(#65),.T.);
#67=IFCSTYLEDITEM(#64,(#66),$);
#68=IFCCARTESIANPOINT((1.2333332031249997,2.3666666666666667,0.));
#69=IFCCARTESIANPOINT((1.2333332031249997,2.299999869791667,0.));
#70=IFCCARTESIANPOINT((1.4999999999999998,2.299999869791667,0.));
#71=IFCCARTESIANPOINT((1.4999999999999998,2.3666666666666667,0.));
#72=IFCPOLYLINE((#68,#69,#70,#71,#68));
#73=IFCANNOTATIONFILLAREA(#72,$);
#74=IFCCOLOURRGB($,0.,0.,1.);
#75=IFCFILLAREASTYLE('PDF solid fill',(#74),.T.);
#76=IFCSTYLEDITEM(#73,(#75),$);
#77=IFCCARTESIANPOINT((1.9666667968749998,2.1666666666666665,0.));
#78=IFCCARTESIANPOINT((1.9666667968749998,2.066666666666667,0.));
#79=IFCCARTESIANPOINT((1.9999999999999998,2.066666666666667,0.));
#80=IFCCARTESIANPOINT((1.9999999999999998,2.0333334635416667,0.));
#81=IFCCARTESIANPOINT((2.233333203125,2.0333334635416667,0.));
#82=IFCCARTESIANPOINT((2.233333203125,2.0999998697916666,0.));
#83=IFCCARTESIANPOINT((2.0333332031249998,2.0999998697916666,0.));
#84=IFCCARTESIANPOINT((2.0333332031249998,2.1666666666666665,0.));
#85=IFCPOLYLINE((#77,#78,#79,#80,#81,#82,#83,#84,#77));
#86=IFCANNOTATIONFILLAREA(#85,$);
#87=IFCCOLOURRGB($,0.,0.,1.);
#88=IFCFILLAREASTYLE('PDF solid fill',(#87),.T.);
#89=IFCSTYLEDITEM(#86,(#88),$);
#90=IFCCARTESIANPOINT((1.9666667968749998,2.7666666666666666,0.));
#91=IFCCARTESIANPOINT((1.9666667968749998,2.499999869791667,0.));
#92=IFCCARTESIANPOINT((2.0333332031249998,2.499999869791667,0.));
#93=IFCCARTESIANPOINT((2.0333332031249998,2.6999998697916667,0.));
#94=IFCCARTESIANPOINT((2.0999999999999996,2.6999998697916667,0.));
#95=IFCCARTESIANPOINT((2.0999999999999996,2.7666666666666666,0.));
#96=IFCPOLYLINE((#90,#91,#92,#93,#94,#95,#90));
#97=IFCANNOTATIONFILLAREA(#96,$);
#98=IFCCOLOURRGB($,0.,0.,1.);
#99=IFCFILLAREASTYLE('PDF solid fill',(#98),.T.);
#100=IFCSTYLEDITEM(#97,(#99),$);
#101=IFCCARTESIANPOINT((2.4333332031249997,2.7666666666666666,0.));
#102=IFCCARTESIANPOINT((2.4333332031249997,2.6999998697916667,0.));
#103=IFCCARTESIANPOINT((2.633333203125,2.6999998697916667,0.));
#104=IFCCARTESIANPOINT((2.633333203125,2.6333334635416668,0.));
#105=IFCCARTESIANPOINT((2.6999999999999997,2.6333334635416668,0.));
#106=IFCCARTESIANPOINT((2.6999999999999997,2.7666666666666666,0.));
#107=IFCPOLYLINE((#101,#102,#103,#104,#105,#106,#101));
#108=IFCANNOTATIONFILLAREA(#107,$);
#109=IFCCOLOURRGB($,0.,0.,1.);
#110=IFCFILLAREASTYLE('PDF solid fill',(#109),.T.);
#111=IFCSTYLEDITEM(#108,(#110),$);
#112=IFCCARTESIANPOINT((2.566666796875,2.0999998697916666,0.));
#113=IFCCARTESIANPOINT((2.566666796875,2.0333334635416667,0.));
#114=IFCCARTESIANPOINT((2.6999999999999997,2.0333334635416667,0.));
#115=IFCCARTESIANPOINT((2.6999999999999997,2.299999869791667,0.));
#116=IFCCARTESIANPOINT((2.633333203125,2.299999869791667,0.));
#117=IFCCARTESIANPOINT((2.633333203125,2.0999998697916666,0.));
#118=IFCPOLYLINE((#112,#113,#114,#115,#116,#117,#112));
#119=IFCANNOTATIONFILLAREA(#118,$);
#120=IFCCOLOURRGB($,0.,0.,1.);
#121=IFCFILLAREASTYLE('PDF solid fill',(#120),.T.);
#122=IFCSTYLEDITEM(#119,(#121),$);
#123=IFCCARTESIANPOINT((1.7999999999999998,1.4333334635416666,0.));
#124=IFCCARTESIANPOINT((1.7999999999999998,1.0999998697916666,0.));
#125=IFCCARTESIANPOINT((1.8666667968749997,1.0999998697916666,0.));
#126=IFCCARTESIANPOINT((1.8666667968749997,1.4333334635416666,0.));
#127=IFCPOLYLINE((#123,#124,#125,#126,#123));
#128=IFCANNOTATIONFILLAREA(#127,$);
#129=IFCCOLOURRGB($,0.,0.,1.);
#130=IFCFILLAREASTYLE('PDF solid fill',(#129),.T.);
#131=IFCSTYLEDITEM(#128,(#130),$);
#132=IFCCARTESIANPOINT((1.9333332031249997,1.6999998697916667,0.));
#133=IFCCARTESIANPOINT((1.9333332031249997,1.6333334635416668,0.));
#134=IFCCARTESIANPOINT((2.2666667968749996,1.6333334635416668,0.));
#135=IFCCARTESIANPOINT((2.2666667968749996,1.6999998697916667,0.));
#136=IFCPOLYLINE((#132,#133,#134,#135,#132));
#137=IFCANNOTATIONFILLAREA(#136,$);
#138=IFCCOLOURRGB($,0.,0.,1.);
#139=IFCFILLAREASTYLE('PDF solid fill',(#138),.T.);
#140=IFCSTYLEDITEM(#137,(#139),$);
#141=IFCCARTESIANPOINT((2.066666796875,1.0333334635416667,0.));
#142=IFCCARTESIANPOINT((2.066666796875,0.9666666666666667,0.));
#143=IFCCARTESIANPOINT((2.4,0.9666666666666667,0.));
#144=IFCCARTESIANPOINT((2.4,1.0333334635416667,0.));
#145=IFCPOLYLINE((#141,#142,#143,#144,#141));
#146=IFCANNOTATIONFILLAREA(#145,$);
#147=IFCCOLOURRGB($,0.,0.,1.);
#148=IFCFILLAREASTYLE('PDF solid fill',(#147),.T.);
#149=IFCSTYLEDITEM(#146,(#148),$);
#150=IFCCARTESIANPOINT((2.466666796875,1.5666666666666667,0.));
#151=IFCCARTESIANPOINT((2.466666796875,1.2333334635416666,0.));
#152=IFCCARTESIANPOINT((2.5333332031249998,1.2333334635416666,0.));
#153=IFCCARTESIANPOINT((2.5333332031249998,1.5666666666666667,0.));
#154=IFCPOLYLINE((#150,#151,#152,#153,#150));
#155=IFCANNOTATIONFILLAREA(#154,$);
#156=IFCCOLOURRGB($,0.,0.,1.);
#157=IFCFILLAREASTYLE('PDF solid fill',(#156),.T.);
#158=IFCSTYLEDITEM(#155,(#157),$);
#159=IFCCARTESIANPOINT((0.6333332031249996,1.0999998697916666,0.));
#160=IFCCARTESIANPOINT((0.6333332031249996,0.9999998697916667,0.));
#161=IFCCARTESIANPOINT((0.6666667968749997,0.9999998697916667,0.));
#162=IFCCARTESIANPOINT((0.6666667968749997,0.9666666666666667,0.));
#163=IFCCARTESIANPOINT((0.8999999999999997,0.9666666666666667,0.));
#164=IFCCARTESIANPOINT((0.8999999999999997,1.0333334635416667,0.));
#165=IFCCARTESIANPOINT((0.6999999999999997,1.0333334635416667,0.));
#166=IFCCARTESIANPOINT((0.6999999999999997,1.0999998697916666,0.));
#167=IFCPOLYLINE((#159,#160,#161,#162,#163,#164,#165,#166,#159));
#168=IFCANNOTATIONFILLAREA(#167,$);
#169=IFCCOLOURRGB($,0.,0.,1.);
#170=IFCFILLAREASTYLE('PDF solid fill',(#169),.T.);
#171=IFCSTYLEDITEM(#168,(#170),$);
#172=IFCCARTESIANPOINT((0.6333332031249996,1.6999998697916667,0.));
#173=IFCCARTESIANPOINT((0.6333332031249996,1.4333334635416666,0.));
#174=IFCCARTESIANPOINT((0.6999999999999997,1.4333334635416666,0.));
#175=IFCCARTESIANPOINT((0.6999999999999997,1.6333334635416668,0.));
#176=IFCCARTESIANPOINT((0.7666667968749996,1.6333334635416668,0.));
#177=IFCCARTESIANPOINT((0.7666667968749996,1.6999998697916667,0.));
#178=IFCPOLYLINE((#172,#173,#174,#175,#176,#177,#172));
#179=IFCANNOTATIONFILLAREA(#178,$);
#180=IFCCOLOURRGB($,0.,0.,1.);
#181=IFCFILLAREASTYLE('PDF solid fill',(#180),.T.);
#182=IFCSTYLEDITEM(#179,(#181),$);
#183=IFCCARTESIANPOINT((1.0999999999999996,1.6999998697916667,0.));
#184=IFCCARTESIANPOINT((1.0999999999999996,1.6333334635416668,0.));
#185=IFCCARTESIANPOINT((1.2999999999999998,1.6333334635416668,0.));
#186=IFCCARTESIANPOINT((1.2999999999999998,1.5666666666666667,0.));
#187=IFCCARTESIANPOINT((1.3666667968749997,1.5666666666666667,0.));
#188=IFCCARTESIANPOINT((1.3666667968749997,1.6999998697916667,0.));
#189=IFCPOLYLINE((#183,#184,#185,#186,#187,#188,#183));
#190=IFCANNOTATIONFILLAREA(#189,$);
#191=IFCCOLOURRGB($,0.,0.,1.);
#192=IFCFILLAREASTYLE('PDF solid fill',(#191),.T.);
#193=IFCSTYLEDITEM(#190,(#192),$);
#194=IFCCARTESIANPOINT((1.2333332031249997,1.0333334635416667,0.));
#195=IFCCARTESIANPOINT((1.2333332031249997,0.9666666666666667,0.));
#196=IFCCARTESIANPOINT((1.3666667968749997,0.9666666666666667,0.));
#197=IFCCARTESIANPOINT((1.3666667968749997,1.2333334635416666,0.));
#198=IFCCARTESIANPOINT((1.2999999999999998,1.2333334635416666,0.));
#199=IFCCARTESIANPOINT((1.2999999999999998,1.0333334635416667,0.));
#200=IFCPOLYLINE((#194,#195,#196,#197,#198,#199,#194));
#201=IFCANNOTATIONFILLAREA(#200,$);
#202=IFCCOLOURRGB($,0.,0.,1.);
#203=IFCFILLAREASTYLE('PDF solid fill',(#202),.T.);
#204=IFCSTYLEDITEM(#201,(#203),$);
#205=IFCSHAPEREPRESENTATION(#2,'Annotation','Annotation2D',(#64,#73,#86,#97,#108,#119,#128,#137,#146,#155,#168,#179,#190,#201));
#206=IFCPRODUCTDEFINITIONSHAPE($,$,(#205));
#207=IFCANNOTATION('0aaaaaaaaaaaaaaaaaaaaa',$,'PDF fidelity evidence control:closedDashes','PDF vectors, page 1: exact conversion','IfcLite:PdfVectorFills',#58,#206);
#208=IFCRELCONTAINEDINSPATIALSTRUCTURE('0bbbbbbbbbbbbbbbbbbbbb',$,$,$,(#207),#40);
#209=IFCPROPERTYSINGLEVALUE('SourcePdfSha256',$,IFCIDENTIFIER('0e454a6d5a52834af4e494902c37526a6822bec5793aa5e9711726f049392e31'),$);
#210=IFCPROPERTYSINGLEVALUE('SourcePdfFormatVersion',$,IFCLABEL('1.7'),$);
#211=IFCPROPERTYSINGLEVALUE('SourcePageNumber',$,IFCINTEGER(1),$);
#212=IFCPROPERTYSINGLEVALUE('SourceCropBox',$,IFCTEXT('[10.0,20.0,110.0,92.0]'),$);
#213=IFCPROPERTYSINGLEVALUE('SourceUserUnit',$,IFCREAL(2.),$);
#214=IFCPROPERTYSINGLEVALUE('SourceRotation',$,IFCINTEGER(90),$);
#215=IFCPROPERTYSINGLEVALUE('DecoderVersion',$,IFCLABEL('PDF.js 6.3.289'),$);
#216=IFCPROPERTYSINGLEVALUE('CalibrationKey',$,IFCTEXT('synthetic-control-30-pdf-units-per-metre'),$);
#217=IFCPROPERTYSINGLEVALUE('ModelMetresFromPdf',$,IFCTEXT('[0.03333333333333333,0.0,0.0,0.03333333333333333,0.0,0.0]'),$);
#218=IFCPROPERTYSINGLEVALUE('ToleranceMetres',$,IFCREAL(0.0001),$);
#219=IFCPROPERTYSINGLEVALUE('GridSizeMetres',$,IFCREAL(3.90625E-7),$);
#220=IFCPROPERTYSINGLEVALUE('Algorithm',$,IFCLABEL('ifclite-pdf-fill-annotation-v1'),$);
#221=IFCPROPERTYSINGLEVALUE('RequestSha256',$,IFCIDENTIFIER('684860ec55a13f4337621ee15587564b255298bf68e16692642bf60aa7e0e2c9'),$);
#222=IFCPROPERTYSINGLEVALUE('FidelityAlgorithm',$,IFCLABEL('ifclite-pdf-fidelity-v1'),$);
#223=IFCPROPERTYSINGLEVALUE('FidelitySha256',$,IFCIDENTIFIER('edd3e8777afaabdc758e7a36da767cfdb6ee52ca0d879f7a17e04d55c21a9808'),$);
#224=IFCPROPERTYSINGLEVALUE('ExactConversion',$,IFCBOOLEAN(.T.),$);
#225=IFCPROPERTYSINGLEVALUE('AcceptedPartialConversion',$,IFCBOOLEAN(.F.),$);
#226=IFCPROPERTYSINGLEVALUE('ConvertedPaths',$,IFCINTEGER(3),$);
#227=IFCPROPERTYSINGLEVALUE('FillRegions',$,IFCINTEGER(14),$);
#228=IFCPROPERTYSINGLEVALUE('OmittedPaints',$,IFCINTEGER(0),$);
#229=IFCPROPERTYSINGLEVALUE('Omissions',$,IFCTEXT('[]'),$);
#230=IFCPROPERTYSET('0cccccccccccccccccccc1',$,'IfcLite_PdfVectorConversion','PDF vector conversion provenance (exact conversion)',(#209,#210,#211,#212,#213,#214,#215,#216,#217,#218,#219,#220,#221,#222,#223,#224,#225,#226,#227,#228,#229));
#231=IFCRELDEFINESBYPROPERTIES('0cccccccccccccccccccc2',$,$,$,(#207),#230);
ENDSEC;
END-ISO-10303-21;
