ISO-10303-21;
HEADER;
FILE_DESCRIPTION(('annotation creation contract','Re-exported by ifc-lite, 176 modifications'),'2;1');
FILE_NAME('export.ifc','2026-09-12T01:55:04',(''),(''),'ifc-lite','ifc-lite','');
FILE_SCHEMA(('IFC4'));
ENDSEC;
DATA;
#1=IFCPROJECT('0Project000000000000000',$,'P',$,$,$,$,(#2),#3);
#2=IFCGEOMETRICREPRESENTATIONCONTEXT($,'Model',3,1.0E-5,#5,$);
#3=IFCUNITASSIGNMENT((#6));
#4=IFCCARTESIANPOINT((0.,0.,0.));
#5=IFCAXIS2PLACEMENT3D(#4,$,$);
#6=IFCSIUNIT(*,.LENGTHUNIT.,$,.METRE.);
#40=IFCBUILDINGSTOREY('0Storey0000000000000000',$,'Level',$,$,#41,$,$,.ELEMENT.,0.);
#41=IFCLOCALPLACEMENT($,#5);
#42=IFCRELAGGREGATES('0ccccccccccccccccccccc',$,$,$,#50,(#40));
#50=IFCBUILDING('0ddddddddddddddddddddd',$,'Building',$,$,#41,$,$,.ELEMENT.,$,$,$);
#51=IFCSPACE('0eeeeeeeeeeeeeeeeeeeee',$,'Room',$,$,#41,$,$,.ELEMENT.,.INTERNAL.,$);
#52=IFCRELAGGREGATES('0fffffffffffffffffffff',$,$,$,#1,(#50));
#53=IFCRELAGGREGATES('0ggggggggggggggggggggg',$,$,$,#40,(#51));
#54=IFCCARTESIANPOINT((2.,3.,4.));
#55=IFCDIRECTION((0.,-1.,0.));
#56=IFCDIRECTION((1.,0.,0.));
#57=IFCAXIS2PLACEMENT3D(#54,#55,#56);
#58=IFCLOCALPLACEMENT(#41,#57);
#59=IFCCARTESIANPOINT((0.9999999999999998,1.3333333333333335,0.));
#60=IFCCARTESIANPOINT((0.9999999999999998,1.,0.));
#61=IFCCARTESIANPOINT((1.0154999999999998,1.0002395833333333,0.));
#62=IFCCARTESIANPOINT((1.0307447916666663,1.0009583333333334,0.));
#63=IFCCARTESIANPOINT((1.045723958333333,1.0021302083333334,0.));
#64=IFCCARTESIANPOINT((1.0604270833333331,1.0037447916666666,0.));
#65=IFCCARTESIANPOINT((1.0748333333333333,1.0057864583333334,0.));
#66=IFCCARTESIANPOINT((1.0889427083333332,1.0082395833333333,0.));
#67=IFCCARTESIANPOINT((1.102739583333333,1.0110885416666666,0.));
#68=IFCCARTESIANPOINT((1.1162135416666663,1.0143229166666667,0.));
#69=IFCCARTESIANPOINT((1.1293489583333332,1.017921875,0.));
#70=IFCCARTESIANPOINT((1.1421354166666666,1.0218697916666666,0.));
#71=IFCCARTESIANPOINT((1.154567708333333,1.02615625,0.));
#72=IFCCARTESIANPOINT((1.1666249999999998,1.0307604166666668,0.));
#73=IFCCARTESIANPOINT((1.178302083333333,1.035671875,0.));
#74=IFCCARTESIANPOINT((1.1895885416666665,1.0408750000000002,0.));
#75=IFCCARTESIANPOINT((1.2004739583333333,1.0463489583333334,0.));
#76=IFCCARTESIANPOINT((1.2109374999999998,1.0520833333333335,0.));
#77=IFCCARTESIANPOINT((1.220973958333333,1.0580625000000001,0.));
#78=IFCCARTESIANPOINT((1.2305781249999999,1.0642708333333335,0.));
#79=IFCCARTESIANPOINT((1.2397239583333333,1.0706927083333335,0.));
#80=IFCCARTESIANPOINT((1.248411458333333,1.0773125000000001,0.));
#81=IFCCARTESIANPOINT((1.2566302083333332,1.0841145833333334,0.));
#82=IFCCARTESIANPOINT((1.2643593749999997,1.0910833333333334,0.));
#83=IFCCARTESIANPOINT((1.2715937499999999,1.0982083333333335,0.));
#84=IFCCARTESIANPOINT((1.2783229166666663,1.10546875,0.));
#85=IFCCARTESIANPOINT((1.2845312499999997,1.1128489583333334,0.));
#86=IFCCARTESIANPOINT((1.2902083333333332,1.1203385416666667,0.));
#87=IFCCARTESIANPOINT((1.2953437499999998,1.1279218750000002,0.));
#88=IFCCARTESIANPOINT((1.2999270833333332,1.135578125,0.));
#89=IFCCARTESIANPOINT((1.3039479166666665,1.143296875,0.));
#90=IFCCARTESIANPOINT((1.3073906249999998,1.1510625,0.));
#91=IFCCARTESIANPOINT((1.3102447916666664,1.1588541666666667,0.));
#92=IFCCARTESIANPOINT((1.3124999999999998,1.1666666666666667,0.));
#93=IFCCARTESIANPOINT((1.3141458333333331,1.1744791666666667,0.));
#94=IFCCARTESIANPOINT((1.3151718749999999,1.1822708333333334,0.));
#95=IFCCARTESIANPOINT((1.3155624999999997,1.1900364583333334,0.));
#96=IFCCARTESIANPOINT((1.3153072916666666,1.1977552083333334,0.));
#97=IFCCARTESIANPOINT((1.3143958333333332,1.2054114583333333,0.));
#98=IFCCARTESIANPOINT((1.3128229166666665,1.2129947916666666,0.));
#99=IFCCARTESIANPOINT((1.3105624999999999,1.220484375,0.));
#100=IFCCARTESIANPOINT((1.3076197916666663,1.2278645833333335,0.));
#101=IFCCARTESIANPOINT((1.3039687499999997,1.235125,0.));
#102=IFCCARTESIANPOINT((1.2996041666666664,1.24225,0.));
#103=IFCCARTESIANPOINT((1.2945208333333331,1.24921875,0.));
#104=IFCCARTESIANPOINT((1.2886979166666666,1.2560208333333334,0.));
#105=IFCCARTESIANPOINT((1.2821249999999997,1.262640625,0.));
#106=IFCCARTESIANPOINT((1.2747968749999998,1.2690625,0.));
#107=IFCCARTESIANPOINT((1.2666927083333333,1.2752708333333334,0.));
#108=IFCCARTESIANPOINT((1.2578124999999998,1.28125,0.));
#109=IFCCARTESIANPOINT((1.2481354166666665,1.286984375,0.));
#110=IFCCARTESIANPOINT((1.2376562499999997,1.2924583333333333,0.));
#111=IFCCARTESIANPOINT((1.226359375,1.2976614583333332,0.));
#112=IFCCARTESIANPOINT((1.2142343749999998,1.3025729166666666,0.));
#113=IFCCARTESIANPOINT((1.201270833333333,1.3071770833333334,0.));
#114=IFCCARTESIANPOINT((1.1874531249999998,1.3114635416666667,0.));
#115=IFCCARTESIANPOINT((1.1727760416666664,1.3154114583333334,0.));
#116=IFCCARTESIANPOINT((1.1572291666666663,1.3190104166666667,0.));
#117=IFCCARTESIANPOINT((1.1407916666666664,1.3222447916666669,0.));
#118=IFCCARTESIANPOINT((1.1234583333333332,1.3250937500000002,0.));
#119=IFCCARTESIANPOINT((1.1052187499999997,1.327546875,0.));
#120=IFCCARTESIANPOINT((1.0860572916666664,1.3295885416666668,0.));
#121=IFCCARTESIANPOINT((1.0659687499999997,1.331203125,0.));
#122=IFCCARTESIANPOINT((1.0449374999999999,1.332375,0.));
#123=IFCCARTESIANPOINT((1.022953125,1.3330937500000002,0.));
#124=IFCPOLYLINE((#59,#60,#61,#62,#63,#64,#65,#66,#67,#68,#69,#70,#71,#72,#73,#74,#75,#76,#77,#78,#79,#80,#81,#82,#83,#84,#85,#86,#87,#88,#89,#90,#91,#92,#93,#94,#95,#96,#97,#98,#99,#100,#101,#102,#103,#104,#105,#106,#107,#108,#109,#110,#111,#112,#113,#114,#115,#116,#117,#118,#119,#120,#121,#122,#123,#59));
#125=IFCANNOTATIONFILLAREA(#124,$);
#126=IFCCOLOURRGB($,0.,0.,1.);
#127=IFCFILLAREASTYLE('PDF solid fill',(#126),.T.);
#128=IFCSTYLEDITEM(#125,(#127),$);
#129=IFCCARTESIANPOINT((0.46666666666666656,2.1666666666666665,0.));
#130=IFCCARTESIANPOINT((0.46666666666666656,0.6666666666666667,0.));
#131=IFCCARTESIANPOINT((1.4666666666666663,0.6666666666666667,0.));
#132=IFCCARTESIANPOINT((1.4666666666666663,2.1666666666666665,0.));
#133=IFCPOLYLINE((#129,#130,#131,#132,#129));
#134=IFCCARTESIANPOINT((0.9999999999999998,1.,0.));
#135=IFCCARTESIANPOINT((0.9999999999999998,1.3333333333333335,0.));
#136=IFCCARTESIANPOINT((1.022953125,1.3330937500000002,0.));
#137=IFCCARTESIANPOINT((1.0449374999999999,1.332375,0.));
#138=IFCCARTESIANPOINT((1.0659687499999997,1.331203125,0.));
#139=IFCCARTESIANPOINT((1.0860572916666664,1.3295885416666668,0.));
#140=IFCCARTESIANPOINT((1.1052187499999997,1.327546875,0.));
#141=IFCCARTESIANPOINT((1.1234583333333332,1.3250937500000002,0.));
#142=IFCCARTESIANPOINT((1.1407916666666664,1.3222447916666669,0.));
#143=IFCCARTESIANPOINT((1.1572291666666663,1.3190104166666667,0.));
#144=IFCCARTESIANPOINT((1.1727760416666664,1.3154114583333334,0.));
#145=IFCCARTESIANPOINT((1.1874531249999998,1.3114635416666667,0.));
#146=IFCCARTESIANPOINT((1.201270833333333,1.3071770833333334,0.));
#147=IFCCARTESIANPOINT((1.2142343749999998,1.3025729166666666,0.));
#148=IFCCARTESIANPOINT((1.226359375,1.2976614583333332,0.));
#149=IFCCARTESIANPOINT((1.2376562499999997,1.2924583333333333,0.));
#150=IFCCARTESIANPOINT((1.2481354166666665,1.286984375,0.));
#151=IFCCARTESIANPOINT((1.2578124999999998,1.28125,0.));
#152=IFCCARTESIANPOINT((1.2666927083333333,1.2752708333333334,0.));
#153=IFCCARTESIANPOINT((1.2747968749999998,1.2690625,0.));
#154=IFCCARTESIANPOINT((1.2821249999999997,1.262640625,0.));
#155=IFCCARTESIANPOINT((1.2886979166666666,1.2560208333333334,0.));
#156=IFCCARTESIANPOINT((1.2945208333333331,1.24921875,0.));
#157=IFCCARTESIANPOINT((1.2996041666666664,1.24225,0.));
#158=IFCCARTESIANPOINT((1.3039687499999997,1.235125,0.));
#159=IFCCARTESIANPOINT((1.3076197916666663,1.2278645833333335,0.));
#160=IFCCARTESIANPOINT((1.3105624999999999,1.220484375,0.));
#161=IFCCARTESIANPOINT((1.3128229166666665,1.2129947916666666,0.));
#162=IFCCARTESIANPOINT((1.3143958333333332,1.2054114583333333,0.));
#163=IFCCARTESIANPOINT((1.3153072916666666,1.1977552083333334,0.));
#164=IFCCARTESIANPOINT((1.3155624999999997,1.1900364583333334,0.));
#165=IFCCARTESIANPOINT((1.3151718749999999,1.1822708333333334,0.));
#166=IFCCARTESIANPOINT((1.3141458333333331,1.1744791666666667,0.));
#167=IFCCARTESIANPOINT((1.3124999999999998,1.1666666666666667,0.));
#168=IFCCARTESIANPOINT((1.3102447916666664,1.1588541666666667,0.));
#169=IFCCARTESIANPOINT((1.3073906249999998,1.1510625,0.));
#170=IFCCARTESIANPOINT((1.3039479166666665,1.143296875,0.));
#171=IFCCARTESIANPOINT((1.2999270833333332,1.135578125,0.));
#172=IFCCARTESIANPOINT((1.2953437499999998,1.1279218750000002,0.));
#173=IFCCARTESIANPOINT((1.2902083333333332,1.1203385416666667,0.));
#174=IFCCARTESIANPOINT((1.2845312499999997,1.1128489583333334,0.));
#175=IFCCARTESIANPOINT((1.2783229166666663,1.10546875,0.));
#176=IFCCARTESIANPOINT((1.2715937499999999,1.0982083333333335,0.));
#177=IFCCARTESIANPOINT((1.2643593749999997,1.0910833333333334,0.));
#178=IFCCARTESIANPOINT((1.2566302083333332,1.0841145833333334,0.));
#179=IFCCARTESIANPOINT((1.248411458333333,1.0773125000000001,0.));
#180=IFCCARTESIANPOINT((1.2397239583333333,1.0706927083333335,0.));
#181=IFCCARTESIANPOINT((1.2305781249999999,1.0642708333333335,0.));
#182=IFCCARTESIANPOINT((1.220973958333333,1.0580625000000001,0.));
#183=IFCCARTESIANPOINT((1.2109374999999998,1.0520833333333335,0.));
#184=IFCCARTESIANPOINT((1.2004739583333333,1.0463489583333334,0.));
#185=IFCCARTESIANPOINT((1.1895885416666665,1.0408750000000002,0.));
#186=IFCCARTESIANPOINT((1.178302083333333,1.035671875,0.));
#187=IFCCARTESIANPOINT((1.1666249999999998,1.0307604166666668,0.));
#188=IFCCARTESIANPOINT((1.154567708333333,1.02615625,0.));
#189=IFCCARTESIANPOINT((1.1421354166666666,1.0218697916666666,0.));
#190=IFCCARTESIANPOINT((1.1293489583333332,1.017921875,0.));
#191=IFCCARTESIANPOINT((1.1162135416666663,1.0143229166666667,0.));
#192=IFCCARTESIANPOINT((1.102739583333333,1.0110885416666666,0.));
#193=IFCCARTESIANPOINT((1.0889427083333332,1.0082395833333333,0.));
#194=IFCCARTESIANPOINT((1.0748333333333333,1.0057864583333334,0.));
#195=IFCCARTESIANPOINT((1.0604270833333331,1.0037447916666666,0.));
#196=IFCCARTESIANPOINT((1.045723958333333,1.0021302083333334,0.));
#197=IFCCARTESIANPOINT((1.0307447916666663,1.0009583333333334,0.));
#198=IFCCARTESIANPOINT((1.0154999999999998,1.0002395833333333,0.));
#199=IFCPOLYLINE((#134,#135,#136,#137,#138,#139,#140,#141,#142,#143,#144,#145,#146,#147,#148,#149,#150,#151,#152,#153,#154,#155,#156,#157,#158,#159,#160,#161,#162,#163,#164,#165,#166,#167,#168,#169,#170,#171,#172,#173,#174,#175,#176,#177,#178,#179,#180,#181,#182,#183,#184,#185,#186,#187,#188,#189,#190,#191,#192,#193,#194,#195,#196,#197,#198,#134));
#200=IFCANNOTATIONFILLAREA(#133,(#199));
#201=IFCCOLOURRGB($,1.,0.,0.);
#202=IFCFILLAREASTYLE('PDF solid fill',(#201),.T.);
#203=IFCSTYLEDITEM(#200,(#202),$);
#204=IFCSHAPEREPRESENTATION(#2,'Annotation','Annotation2D',(#125,#200));
#205=IFCPRODUCTDEFINITIONSHAPE($,$,(#204));
#206=IFCANNOTATION('0aaaaaaaaaaaaaaaaaaaaa',$,'PDF fidelity evidence control:transforms','PDF vectors, page 1: exact conversion','IfcLite:PdfVectorFills',#58,#205);
#207=IFCRELCONTAINEDINSPATIALSTRUCTURE('0bbbbbbbbbbbbbbbbbbbbb',$,$,$,(#206),#40);
#208=IFCPROPERTYSINGLEVALUE('SourcePdfSha256',$,IFCIDENTIFIER('d048a384c3db90ef514cf6c3f35ca662331f38b5ae62cac086dae354755403d3'),$);
#209=IFCPROPERTYSINGLEVALUE('SourcePageNumber',$,IFCINTEGER(1),$);
#210=IFCPROPERTYSINGLEVALUE('SourceCropBox',$,IFCTEXT('[10.0,20.0,110.0,92.0]'),$);
#211=IFCPROPERTYSINGLEVALUE('SourceUserUnit',$,IFCREAL(2.),$);
#212=IFCPROPERTYSINGLEVALUE('SourceRotation',$,IFCINTEGER(90),$);
#213=IFCPROPERTYSINGLEVALUE('DecoderVersion',$,IFCLABEL('PDF.js 6.3.289'),$);
#214=IFCPROPERTYSINGLEVALUE('CalibrationKey',$,IFCTEXT('synthetic-control-30-pdf-units-per-metre'),$);
#215=IFCPROPERTYSINGLEVALUE('ModelMetresFromPdf',$,IFCTEXT('[0.03333333333333333,0.0,0.0,0.03333333333333333,0.0,0.0]'),$);
#216=IFCPROPERTYSINGLEVALUE('ToleranceMetres',$,IFCREAL(0.001),$);
#217=IFCPROPERTYSINGLEVALUE('GridSizeMetres',$,IFCREAL(0.000005208333333333333),$);
#218=IFCPROPERTYSINGLEVALUE('Algorithm',$,IFCLABEL('ifclite-pdf-fill-annotation-v1'),$);
#219=IFCPROPERTYSINGLEVALUE('RequestSha256',$,IFCIDENTIFIER('42bd96489100ff9bf3e46f623f36dd6a24ef613b97550446fc64d43fb44a0195'),$);
#220=IFCPROPERTYSINGLEVALUE('FidelityAlgorithm',$,IFCLABEL('ifclite-pdf-fidelity-v1'),$);
#221=IFCPROPERTYSINGLEVALUE('FidelitySha256',$,IFCIDENTIFIER('99d7eb4b2f8581c5fa7ea77f0251ba0e8dc4363b7ecc41251f0298389e3714b5'),$);
#222=IFCPROPERTYSINGLEVALUE('ExactConversion',$,IFCBOOLEAN(.T.),$);
#223=IFCPROPERTYSINGLEVALUE('AcceptedPartialConversion',$,IFCBOOLEAN(.F.),$);
#224=IFCPROPERTYSINGLEVALUE('ConvertedPaths',$,IFCINTEGER(2),$);
#225=IFCPROPERTYSINGLEVALUE('FillRegions',$,IFCINTEGER(2),$);
#226=IFCPROPERTYSINGLEVALUE('OmittedPaints',$,IFCINTEGER(0),$);
#227=IFCPROPERTYSINGLEVALUE('Omissions',$,IFCTEXT('[]'),$);
#228=IFCPROPERTYSET('0cccccccccccccccccccc1',$,'IfcLite_PdfVectorConversion','PDF vector conversion provenance (exact conversion)',(#208,#209,#210,#211,#212,#213,#214,#215,#216,#217,#218,#219,#220,#221,#222,#223,#224,#225,#226,#227));
#229=IFCRELDEFINESBYPROPERTIES('0cccccccccccccccccccc2',$,$,$,(#206),#228);
ENDSEC;
END-ISO-10303-21;
