ISO-10303-21;
HEADER;
FILE_DESCRIPTION(('annotation creation contract','Re-exported by ifc-lite, 233 modifications'),'2;1');
FILE_NAME('export.ifc','2026-09-12T19:20:33',(''),(''),'ifc-lite','ifc-lite','');
FILE_SCHEMA(('IFC4'));
ENDSEC;
DATA;
#1=IFCPROJECT('0Project000000000000000',$,'P',$,$,$,$,(#2),#3);
#2=IFCGEOMETRICREPRESENTATIONCONTEXT($,'Model',3,1.0E-5,#5,$);
#3=IFCUNITASSIGNMENT((#6));
#4=IFCCARTESIANPOINT((0.,0.,0.));
#5=IFCAXIS2PLACEMENT3D(#4,$,$);
#6=IFCSIUNIT(*,.LENGTHUNIT.,$,.METRE.);
#40=IFCBUILDINGSTOREY('0Storey0000000000000000',$,'Level',$,$,#41,$,$,.ELEMENT.,0.);
#41=IFCLOCALPLACEMENT($,#5);
#42=IFCRELAGGREGATES('0ccccccccccccccccccccc',$,$,$,#50,(#40));
#50=IFCBUILDING('0ddddddddddddddddddddd',$,'Building',$,$,#41,$,$,.ELEMENT.,$,$,$);
#51=IFCSPACE('0eeeeeeeeeeeeeeeeeeeee',$,'Room',$,$,#41,$,$,.ELEMENT.,.INTERNAL.,$);
#52=IFCRELAGGREGATES('0fffffffffffffffffffff',$,$,$,#1,(#50));
#53=IFCRELAGGREGATES('0ggggggggggggggggggggg',$,$,$,#40,(#51));
#54=IFCCARTESIANPOINT((2.,3.,4.));
#55=IFCDIRECTION((0.,-1.,0.));
#56=IFCDIRECTION((1.,0.,0.));
#57=IFCAXIS2PLACEMENT3D(#54,#55,#56);
#58=IFCLOCALPLACEMENT(#41,#57);
#59=IFCCARTESIANPOINT((0.06234375000000014,1.09453125,0.));
#60=IFCCARTESIANPOINT((0.06234375000000014,0.28453125,0.));
#61=IFCCARTESIANPOINT((0.12750000000000006,0.28453125,0.));
#62=IFCCARTESIANPOINT((0.12750000000000006,0.30703125000000003,0.));
#63=IFCCARTESIANPOINT((0.08226562500000001,0.30703125000000003,0.));
#64=IFCCARTESIANPOINT((0.08226562500000001,1.07203125,0.));
#65=IFCCARTESIANPOINT((0.855,1.07203125,0.));
#66=IFCCARTESIANPOINT((0.855,0.30703125000000003,0.));
#67=IFCCARTESIANPOINT((0.8247656250000001,0.30703125000000003,0.));
#68=IFCCARTESIANPOINT((0.8247656250000001,0.28453125,0.));
#69=IFCCARTESIANPOINT((0.855,0.28453125,0.));
#70=IFCCARTESIANPOINT((0.855,0.06117187499999999,0.));
#71=IFCCARTESIANPOINT((1.424296875,0.06117187499999999,0.));
#72=IFCCARTESIANPOINT((1.424296875,0.08132812499999997,0.));
#73=IFCCARTESIANPOINT((1.3865625000000001,0.08132812499999997,0.));
#74=IFCCARTESIANPOINT((1.3865625000000001,0.14156250000000004,0.));
#75=IFCCARTESIANPOINT((1.366640625,0.14156250000000004,0.));
#76=IFCCARTESIANPOINT((1.366640625,0.08132812499999997,0.));
#77=IFCCARTESIANPOINT((0.8775000000000001,0.08132812499999997,0.));
#78=IFCCARTESIANPOINT((0.8775000000000001,0.58546875,0.));
#79=IFCCARTESIANPOINT((1.02796875,0.58546875,0.));
#80=IFCCARTESIANPOINT((1.02796875,0.6056250000000001,0.));
#81=IFCCARTESIANPOINT((0.8775000000000001,0.6056250000000001,0.));
#82=IFCCARTESIANPOINT((0.8775000000000001,1.07953125,0.));
#83=IFCCARTESIANPOINT((1.1107031250000001,1.07953125,0.));
#84=IFCCARTESIANPOINT((1.1107031250000001,1.1472656250000002,0.));
#85=IFCCARTESIANPOINT((1.0882031250000002,1.1472656250000002,0.));
#86=IFCCARTESIANPOINT((1.0882031250000002,1.102265625,0.));
#87=IFCCARTESIANPOINT((0.674296875,1.102265625,0.));
#88=IFCCARTESIANPOINT((0.674296875,1.433203125,0.));
#89=IFCCARTESIANPOINT((1.0882031250000002,1.433203125,0.));
#90=IFCCARTESIANPOINT((1.0882031250000002,1.282734375,0.));
#91=IFCCARTESIANPOINT((1.1107031250000001,1.282734375,0.));
#92=IFCCARTESIANPOINT((1.1107031250000001,1.32046875,0.));
#93=IFCCARTESIANPOINT((1.547109375,1.32046875,0.));
#94=IFCCARTESIANPOINT((1.547109375,1.301484375,0.));
#95=IFCCARTESIANPOINT((1.547234375,1.290796875,0.));
#96=IFCCARTESIANPOINT((1.5479687500000001,1.285203125,0.));
#97=IFCCARTESIANPOINT((1.548734375,1.2838125,0.));
#98=IFCCARTESIANPOINT((1.549859375,1.283078125,0.));
#99=IFCCARTESIANPOINT((1.5534375,1.282734375,0.));
#100=IFCCARTESIANPOINT((1.557015625,1.283078125,0.));
#101=IFCCARTESIANPOINT((1.558140625,1.2838125,0.));
#102=IFCCARTESIANPOINT((1.5589062500000002,1.285203125,0.));
#103=IFCCARTESIANPOINT((1.5596406250000001,1.290796875,0.));
#104=IFCCARTESIANPOINT((1.559765625,1.301484375,0.));
#105=IFCCARTESIANPOINT((1.559765625,1.32046875,0.));
#106=IFCCARTESIANPOINT((2.07890625,1.32046875,0.));
#107=IFCCARTESIANPOINT((2.07890625,0.7485937500000001,0.));
#108=IFCCARTESIANPOINT((1.9509375000000002,0.7485937500000001,0.));
#109=IFCCARTESIANPOINT((1.9509375000000002,0.7284375000000001,0.));
#110=IFCCARTESIANPOINT((2.07890625,0.7284375000000001,0.));
#111=IFCCARTESIANPOINT((2.07890625,0.7059375,0.));
#112=IFCCARTESIANPOINT((2.0790625,0.694625,0.));
#113=IFCCARTESIANPOINT((2.079640625,0.687671875,0.));
#114=IFCCARTESIANPOINT((2.0801406250000003,0.685546875,0.));
#115=IFCCARTESIANPOINT((2.0807812500000002,0.684171875,0.));
#116=IFCCARTESIANPOINT((2.081625,0.6834218750000001,0.));
#117=IFCCARTESIANPOINT((2.0826562500000003,0.683203125,0.));
#118=IFCCARTESIANPOINT((2.08325,0.682734375,0.));
#119=IFCCARTESIANPOINT((2.08378125,0.681171875,0.));
#120=IFCCARTESIANPOINT((2.084640625,0.673578125,0.));
#121=IFCCARTESIANPOINT((2.0853125,0.65809375,0.));
#122=IFCCARTESIANPOINT((2.08578125,0.6324375,0.));
#123=IFCCARTESIANPOINT((2.086296875,0.54146875,0.));
#124=IFCCARTESIANPOINT((2.08640625,0.382265625,0.));
#125=IFCCARTESIANPOINT((2.08640625,0.08132812499999997,0.));
#126=IFCCARTESIANPOINT((1.597265625,0.08132812499999997,0.));
#127=IFCCARTESIANPOINT((1.597265625,0.06117187499999999,0.));
#128=IFCCARTESIANPOINT((1.8445312500000002,0.06117187499999999,0.));
#129=IFCCARTESIANPOINT((1.9750625,0.06129687500000003,0.));
#130=IFCCARTESIANPOINT((2.049765625,0.06179687499999997,0.));
#131=IFCCARTESIANPOINT((2.070859375,0.062281250000000066,0.));
#132=IFCCARTESIANPOINT((2.083609375,0.06293749999999998,0.));
#133=IFCCARTESIANPOINT((2.0898906250000002,0.06381250000000005,0.));
#134=IFCCARTESIANPOINT((2.0911875,0.06432812500000007,0.));
#135=IFCCARTESIANPOINT((2.0915625,0.06492187500000002,0.));
#136=IFCCARTESIANPOINT((2.09203125,0.06656249999999997,0.));
#137=IFCCARTESIANPOINT((2.0934375000000003,0.06773437500000001,0.));
#138=IFCCARTESIANPOINT((2.09578125,0.06843750000000004,0.));
#139=IFCCARTESIANPOINT((2.0990625,0.06867187500000005,0.));
#140=IFCCARTESIANPOINT((2.1065625,0.06867187500000005,0.));
#141=IFCCARTESIANPOINT((2.1065625,1.347890625,0.));
#142=IFCCARTESIANPOINT((2.092734375,1.347890625,0.));
#143=IFCCARTESIANPOINT((2.086109375,1.347703125,0.));
#144=IFCCARTESIANPOINT((2.081859375,1.34709375,0.));
#145=IFCCARTESIANPOINT((2.0795781250000003,1.3459375,0.));
#146=IFCCARTESIANPOINT((2.0790625,1.345125,0.));
#147=IFCCARTESIANPOINT((2.07890625,1.344140625,0.));
#148=IFCCARTESIANPOINT((2.0781875000000003,1.343546875,0.));
#149=IFCCARTESIANPOINT((2.0756875,1.3430312500000001,0.));
#150=IFCCARTESIANPOINT((2.0635625,1.34215625,0.));
#151=IFCCARTESIANPOINT((2.038796875,1.3415,0.));
#152=IFCCARTESIANPOINT((1.99765625,1.341015625,0.));
#153=IFCCARTESIANPOINT((1.851375,1.340515625,0.));
#154=IFCCARTESIANPOINT((1.594921875,1.340390625,0.));
#155=IFCCARTESIANPOINT((1.1107031250000001,1.340390625,0.));
#156=IFCCARTESIANPOINT((1.1107031250000001,1.453359375,0.));
#157=IFCCARTESIANPOINT((0.654140625,1.453359375,0.));
#158=IFCCARTESIANPOINT((0.654140625,1.09453125,0.));
#159=IFCPOLYLINE((#59,#60,#61,#62,#63,#64,#65,#66,#67,#68,#69,#70,#71,#72,#73,#74,#75,#76,#77,#78,#79,#80,#81,#82,#83,#84,#85,#86,#87,#88,#89,#90,#91,#92,#93,#94,#95,#96,#97,#98,#99,#100,#101,#102,#103,#104,#105,#106,#107,#108,#109,#110,#111,#112,#113,#114,#115,#116,#117,#118,#119,#120,#121,#122,#123,#124,#125,#126,#127,#128,#129,#130,#131,#132,#133,#134,#135,#136,#137,#138,#139,#140,#141,#142,#143,#144,#145,#146,#147,#148,#149,#150,#151,#152,#153,#154,#155,#156,#157,#158,#59));
#160=IFCANNOTATIONFILLAREA(#159,$);
#161=IFCCOLOURRGB($,0.,0.,0.);
#162=IFCFILLAREASTYLE('PDF solid fill',(#161),.T.);
#163=IFCSTYLEDITEM(#160,(#162),$);
#164=IFCCARTESIANPOINT((0.466171875,0.30703125000000003,0.));
#165=IFCCARTESIANPOINT((0.466171875,0.28453125,0.));
#166=IFCCARTESIANPOINT((0.49359375000000005,0.28453125,0.));
#167=IFCCARTESIANPOINT((0.49359375000000005,0.30703125000000003,0.));
#168=IFCPOLYLINE((#164,#165,#166,#167,#164));
#169=IFCANNOTATIONFILLAREA(#168,$);
#170=IFCCOLOURRGB($,0.,0.,0.);
#171=IFCFILLAREASTYLE('PDF solid fill',(#170),.T.);
#172=IFCSTYLEDITEM(#169,(#171),$);
#173=IFCCARTESIANPOINT((1.223671875,0.6056250000000001,0.));
#174=IFCCARTESIANPOINT((1.223671875,0.58546875,0.));
#175=IFCCARTESIANPOINT((1.366640625,0.58546875,0.));
#176=IFCCARTESIANPOINT((1.366640625,0.29203125,0.));
#177=IFCCARTESIANPOINT((1.3865625000000001,0.29203125,0.));
#178=IFCCARTESIANPOINT((1.3865625000000001,0.344765625,0.));
#179=IFCCARTESIANPOINT((1.559765625,0.344765625,0.));
#180=IFCCARTESIANPOINT((1.559765625,0.7284375000000001,0.));
#181=IFCCARTESIANPOINT((1.7102343750000002,0.7284375000000001,0.));
#182=IFCCARTESIANPOINT((1.7102343750000002,0.7485937500000001,0.));
#183=IFCCARTESIANPOINT((1.559765625,0.7485937500000001,0.));
#184=IFCCARTESIANPOINT((1.559765625,1.1472656250000002,0.));
#185=IFCCARTESIANPOINT((1.547109375,1.1472656250000002,0.));
#186=IFCCARTESIANPOINT((1.547109375,0.9892968750000001,0.));
#187=IFCCARTESIANPOINT((1.3741406250000001,0.9892968750000001,0.));
#188=IFCCARTESIANPOINT((1.3741406250000001,0.6056250000000001,0.));
#189=IFCPOLYLINE((#173,#174,#175,#176,#177,#178,#179,#180,#181,#182,#183,#184,#185,#186,#187,#188,#173));
#190=IFCCARTESIANPOINT((1.394296875,0.36726562500000004,0.));
#191=IFCCARTESIANPOINT((1.394296875,0.397265625,0.));
#192=IFCCARTESIANPOINT((1.539609375,0.397265625,0.));
#193=IFCCARTESIANPOINT((1.539609375,0.36726562500000004,0.));
#194=IFCPOLYLINE((#190,#191,#192,#193,#190));
#195=IFCCARTESIANPOINT((1.394296875,0.412265625,0.));
#196=IFCCARTESIANPOINT((1.394296875,0.4425,0.));
#197=IFCCARTESIANPOINT((1.539609375,0.4425,0.));
#198=IFCCARTESIANPOINT((1.539609375,0.412265625,0.));
#199=IFCPOLYLINE((#195,#196,#197,#198,#195));
#200=IFCCARTESIANPOINT((1.394296875,0.4575,0.));
#201=IFCCARTESIANPOINT((1.394296875,0.48773437500000005,0.));
#202=IFCCARTESIANPOINT((1.539609375,0.48773437500000005,0.));
#203=IFCCARTESIANPOINT((1.539609375,0.4575,0.));
#204=IFCPOLYLINE((#200,#201,#202,#203,#200));
#205=IFCCARTESIANPOINT((1.394296875,0.5001562500000001,0.));
#206=IFCCARTESIANPOINT((1.394296875,0.532734375,0.));
#207=IFCCARTESIANPOINT((1.539609375,0.532734375,0.));
#208=IFCCARTESIANPOINT((1.539609375,0.5001562500000001,0.));
#209=IFCPOLYLINE((#205,#206,#207,#208,#205));
#210=IFCCARTESIANPOINT((1.394296875,0.545390625,0.));
#211=IFCCARTESIANPOINT((1.394296875,0.58546875,0.));
#212=IFCCARTESIANPOINT((1.539609375,0.58546875,0.));
#213=IFCCARTESIANPOINT((1.539609375,0.545390625,0.));
#214=IFCPOLYLINE((#210,#211,#212,#213,#210));
#215=IFCCARTESIANPOINT((1.394296875,0.597890625,0.));
#216=IFCCARTESIANPOINT((1.394296875,0.630703125,0.));
#217=IFCCARTESIANPOINT((1.539609375,0.630703125,0.));
#218=IFCCARTESIANPOINT((1.539609375,0.597890625,0.));
#219=IFCPOLYLINE((#215,#216,#217,#218,#215));
#220=IFCCARTESIANPOINT((1.394296875,0.6431250000000001,0.));
#221=IFCCARTESIANPOINT((1.394296875,0.683203125,0.));
#222=IFCCARTESIANPOINT((1.539609375,0.683203125,0.));
#223=IFCCARTESIANPOINT((1.539609375,0.6431250000000001,0.));
#224=IFCPOLYLINE((#220,#221,#222,#223,#220));
#225=IFCCARTESIANPOINT((1.394296875,0.6958593750000001,0.));
#226=IFCCARTESIANPOINT((1.394296875,0.7284375000000001,0.));
#227=IFCCARTESIANPOINT((1.539609375,0.7284375000000001,0.));
#228=IFCCARTESIANPOINT((1.539609375,0.6958593750000001,0.));
#229=IFCPOLYLINE((#225,#226,#227,#228,#225));
#230=IFCCARTESIANPOINT((1.394296875,0.740859375,0.));
#231=IFCCARTESIANPOINT((1.394296875,0.773671875,0.));
#232=IFCCARTESIANPOINT((1.539609375,0.773671875,0.));
#233=IFCCARTESIANPOINT((1.539609375,0.740859375,0.));
#234=IFCPOLYLINE((#230,#231,#232,#233,#230));
#235=IFCCARTESIANPOINT((1.394296875,0.78609375,0.));
#236=IFCCARTESIANPOINT((1.394296875,0.818671875,0.));
#237=IFCCARTESIANPOINT((1.539609375,0.818671875,0.));
#238=IFCCARTESIANPOINT((1.539609375,0.78609375,0.));
#239=IFCPOLYLINE((#235,#236,#237,#238,#235));
#240=IFCCARTESIANPOINT((1.394296875,0.831328125,0.));
#241=IFCCARTESIANPOINT((1.394296875,0.861328125,0.));
#242=IFCCARTESIANPOINT((1.532109375,0.861328125,0.));
#243=IFCCARTESIANPOINT((1.532109375,0.831328125,0.));
#244=IFCPOLYLINE((#240,#241,#242,#243,#240));
#245=IFCCARTESIANPOINT((1.394296875,0.876328125,0.));
#246=IFCCARTESIANPOINT((1.394296875,0.9140625,0.));
#247=IFCCARTESIANPOINT((1.539609375,0.9140625,0.));
#248=IFCCARTESIANPOINT((1.539609375,0.876328125,0.));
#249=IFCPOLYLINE((#245,#246,#247,#248,#245));
#250=IFCCARTESIANPOINT((1.394296875,0.9290625,0.));
#251=IFCCARTESIANPOINT((1.394296875,0.966796875,0.));
#252=IFCCARTESIANPOINT((1.539609375,0.966796875,0.));
#253=IFCCARTESIANPOINT((1.539609375,0.9290625,0.));
#254=IFCPOLYLINE((#250,#251,#252,#253,#250));
#255=IFCANNOTATIONFILLAREA(#189,(#194,#199,#204,#209,#214,#219,#224,#229,#234,#239,#244,#249,#254));
#256=IFCCOLOURRGB($,0.,0.,0.);
#257=IFCFILLAREASTYLE('PDF solid fill',(#256),.T.);
#258=IFCSTYLEDITEM(#255,(#257),$);
#259=IFCSHAPEREPRESENTATION(#2,'Annotation','Annotation2D',(#160,#169,#255));
#260=IFCPRODUCTDEFINITIONSHAPE($,$,(#259));
#261=IFCANNOTATION('0aaaaaaaaaaaaaaaaaaaaa',$,'PDF fidelity evidence HouseFlrPlan.pdf','PDF vectors, page 1: exact conversion','IfcLite:PdfVectorFills',#58,#260);
#262=IFCRELCONTAINEDINSPATIALSTRUCTURE('0bbbbbbbbbbbbbbbbbbbbb',$,$,$,(#261),#40);
#263=IFCPROPERTYSINGLEVALUE('SourcePdfSha256',$,IFCIDENTIFIER('de2e10df02059bc14a0eae6c1922cd2a699c1938a4c74c97978fccf1ef5df550'),$);
#264=IFCPROPERTYSINGLEVALUE('SourcePdfFormatVersion',$,IFCLABEL('1.3'),$);
#265=IFCPROPERTYSINGLEVALUE('SourcePageNumber',$,IFCINTEGER(1),$);
#266=IFCPROPERTYSINGLEVALUE('SourceCropBox',$,IFCTEXT('[0.0,0.0,218.25,150.75]'),$);
#267=IFCPROPERTYSINGLEVALUE('ConversionClipPdf',$,IFCTEXT('[0.0,0.0,218.25,150.75]'),$);
#268=IFCPROPERTYSINGLEVALUE('SourceUserUnit',$,IFCREAL(1.),$);
#269=IFCPROPERTYSINGLEVALUE('SourceRotation',$,IFCINTEGER(0),$);
#270=IFCPROPERTYSINGLEVALUE('DecoderVersion',$,IFCLABEL('PDF.js 6.3.289'),$);
#271=IFCPROPERTYSINGLEVALUE('CalibrationKey',$,IFCTEXT('evidence-nominal-100-pdf-units-per-metre'),$);
#272=IFCPROPERTYSINGLEVALUE('ModelMetresFromPdf',$,IFCTEXT('[0.01,0.0,0.0,0.01,0.0,0.0]'),$);
#273=IFCPROPERTYSINGLEVALUE('ToleranceMetres',$,IFCREAL(0.002),$);
#274=IFCPROPERTYSINGLEVALUE('GridSizeMetres',$,IFCREAL(0.000015625),$);
#275=IFCPROPERTYSINGLEVALUE('Algorithm',$,IFCLABEL('ifclite-pdf-fill-annotation-v1'),$);
#276=IFCPROPERTYSINGLEVALUE('RequestSha256',$,IFCIDENTIFIER('77992ad154cbbf74b56616ac6d1ba556954b4476cd5f8a2dfea46c98ae5ad8eb'),$);
#277=IFCPROPERTYSINGLEVALUE('FidelityAlgorithm',$,IFCLABEL('ifclite-pdf-fidelity-v1'),$);
#278=IFCPROPERTYSINGLEVALUE('FidelitySha256',$,IFCIDENTIFIER('349ef69ae9efc49751c5dac73235524541c389491fc5b80b363303e83e9a1e9f'),$);
#279=IFCPROPERTYSINGLEVALUE('ExactConversion',$,IFCBOOLEAN(.T.),$);
#280=IFCPROPERTYSINGLEVALUE('AcceptedPartialConversion',$,IFCBOOLEAN(.F.),$);
#281=IFCPROPERTYSINGLEVALUE('ConvertedPaths',$,IFCINTEGER(1),$);
#282=IFCPROPERTYSINGLEVALUE('FillRegions',$,IFCINTEGER(3),$);
#283=IFCPROPERTYSINGLEVALUE('OmittedPaints',$,IFCINTEGER(0),$);
#284=IFCPROPERTYSINGLEVALUE('Omissions',$,IFCTEXT('[]'),$);
#285=IFCPROPERTYSET('0cccccccccccccccccccc1',$,'IfcLite_PdfVectorConversion','PDF vector conversion provenance (exact conversion)',(#263,#264,#265,#266,#267,#268,#269,#270,#271,#272,#273,#274,#275,#276,#277,#278,#279,#280,#281,#282,#283,#284));
#286=IFCRELDEFINESBYPROPERTIES('0cccccccccccccccccccc2',$,$,$,(#261),#285);
ENDSEC;
END-ISO-10303-21;
