<svg xmlns="http://www.w3.org/2000/svg" width="24" height="24" viewBox="0 0 24 24" fill="none"><path fill="#0063B1" fill-opacity=".3" d="M10 7h4v12h-4z"/><path fill="#000000" d="M3.5 3a.5.5 0 0 0-.5.5v17a.5.5 0 0 0 .5.5h17a.5.5 0 0 0 .5-.5.5.5 0 0 0-.5-.5H4V3.5a.5.5 0 0 0-.5-.5"/><path fill="#000000" d="M10 6.5a.5.5 0 0 0-.5.5v6a.5.5 0 0 0-.5-.5H6a.5.5 0 0 0-.5.5v6a.5.5 0 0 0 .5.5.5.5 0 0 0 .5-.5v-5.5h2V19a.5.5 0 0 0 .5.5.5.5 0 0 0 .5-.5.5.5 0 0 0 .5.5.5.5 0 0 0 .5-.5V7.5h3V19a.5.5 0 0 0 .5.5.5.5 0 0 0 .5-.5.5.5 0 0 0 .5.5.5.5 0 0 0 .5-.5v-7.5h2V19a.5.5 0 0 0 .5.5.5.5 0 0 0 .5-.5v-8a.5.5 0 0 0-.5-.5h-3a.5.5 0 0 0-.5.5V7a.5.5 0 0 0-.5-.5Z"/><path fill="#0063B1" d="M19.09 3.008a.5.5 0 0 0-.373.08l-4.291 2.957-3.76-1.316a.5.5 0 0 0-.531.13l-4 4.301a.5.5 0 0 0 .025.705.5.5 0 0 0 .705-.025l3.778-4.06 3.691 1.292a.5.5 0 0 0 .45-.06l4.5-3.1a.5.5 0 0 0 .128-.695.5.5 0 0 0-.322-.21"/><circle cx="19" cy="3.5" r=".9" fill="#0063B1"/></svg>
